%TF.GenerationSoftware,KiCad,Pcbnew,7.0.7-7.0.7~ubuntu22.04.1*%
%TF.CreationDate,2023-09-16T18:52:32-04:00*%
%TF.ProjectId,fd50to34,66643530-746f-4333-942e-6b696361645f,rev?*%
%TF.SameCoordinates,Original*%
%TF.FileFunction,Legend,Top*%
%TF.FilePolarity,Positive*%
%FSLAX46Y46*%
G04 Gerber Fmt 4.6, Leading zero omitted, Abs format (unit mm)*
G04 Created by KiCad (PCBNEW 7.0.7-7.0.7~ubuntu22.04.1) date 2023-09-16 18:52:32*
%MOMM*%
%LPD*%
G01*
G04 APERTURE LIST*
%ADD10C,0.150000*%
%ADD11C,0.120000*%
G04 APERTURE END LIST*
D10*
X936666Y2875180D02*
X936666Y2160895D01*
X936666Y2160895D02*
X889047Y2018038D01*
X889047Y2018038D02*
X793809Y1922800D01*
X793809Y1922800D02*
X650952Y1875180D01*
X650952Y1875180D02*
X555714Y1875180D01*
X1936666Y1875180D02*
X1365238Y1875180D01*
X1650952Y1875180D02*
X1650952Y2875180D01*
X1650952Y2875180D02*
X1555714Y2732323D01*
X1555714Y2732323D02*
X1460476Y2637085D01*
X1460476Y2637085D02*
X1365238Y2589466D01*
X18716666Y-16174819D02*
X18716666Y-16889104D01*
X18716666Y-16889104D02*
X18669047Y-17031961D01*
X18669047Y-17031961D02*
X18573809Y-17127200D01*
X18573809Y-17127200D02*
X18430952Y-17174819D01*
X18430952Y-17174819D02*
X18335714Y-17174819D01*
X19145238Y-16270057D02*
X19192857Y-16222438D01*
X19192857Y-16222438D02*
X19288095Y-16174819D01*
X19288095Y-16174819D02*
X19526190Y-16174819D01*
X19526190Y-16174819D02*
X19621428Y-16222438D01*
X19621428Y-16222438D02*
X19669047Y-16270057D01*
X19669047Y-16270057D02*
X19716666Y-16365295D01*
X19716666Y-16365295D02*
X19716666Y-16460533D01*
X19716666Y-16460533D02*
X19669047Y-16603390D01*
X19669047Y-16603390D02*
X19097619Y-17174819D01*
X19097619Y-17174819D02*
X19716666Y-17174819D01*
X11944819Y-10493333D02*
X12659104Y-10493333D01*
X12659104Y-10493333D02*
X12801961Y-10540952D01*
X12801961Y-10540952D02*
X12897200Y-10636190D01*
X12897200Y-10636190D02*
X12944819Y-10779047D01*
X12944819Y-10779047D02*
X12944819Y-10874285D01*
X11944819Y-10112380D02*
X11944819Y-9493333D01*
X11944819Y-9493333D02*
X12325771Y-9826666D01*
X12325771Y-9826666D02*
X12325771Y-9683809D01*
X12325771Y-9683809D02*
X12373390Y-9588571D01*
X12373390Y-9588571D02*
X12421009Y-9540952D01*
X12421009Y-9540952D02*
X12516247Y-9493333D01*
X12516247Y-9493333D02*
X12754342Y-9493333D01*
X12754342Y-9493333D02*
X12849580Y-9540952D01*
X12849580Y-9540952D02*
X12897200Y-9588571D01*
X12897200Y-9588571D02*
X12944819Y-9683809D01*
X12944819Y-9683809D02*
X12944819Y-9969523D01*
X12944819Y-9969523D02*
X12897200Y-10064761D01*
X12897200Y-10064761D02*
X12849580Y-10112380D01*
D11*
%TO.C,J1*%
X-1330000Y1330000D02*
X0Y1330000D01*
X-1330000Y0D02*
X-1330000Y1330000D01*
X-1330000Y-1270000D02*
X-1330000Y-62290000D01*
X-1330000Y-1270000D02*
X1270000Y-1270000D01*
X-1330000Y-62290000D02*
X3870000Y-62290000D01*
X1270000Y1330000D02*
X3870000Y1330000D01*
X1270000Y-1270000D02*
X1270000Y1330000D01*
X3870000Y1330000D02*
X3870000Y-62290000D01*
%TO.C,J2*%
X16450000Y-17720000D02*
X17780000Y-17720000D01*
X16450000Y-19050000D02*
X16450000Y-17720000D01*
X16450000Y-20320000D02*
X16450000Y-61020000D01*
X16450000Y-20320000D02*
X19050000Y-20320000D01*
X16450000Y-61020000D02*
X21650000Y-61020000D01*
X19050000Y-17720000D02*
X21650000Y-17720000D01*
X19050000Y-20320000D02*
X19050000Y-17720000D01*
X21650000Y-17720000D02*
X21650000Y-61020000D01*
%TO.C,J3*%
X11490000Y-8830000D02*
X11490000Y-10160000D01*
X10160000Y-8830000D02*
X11490000Y-8830000D01*
X8890000Y-8830000D02*
X6290000Y-8830000D01*
X8890000Y-8830000D02*
X8890000Y-11490000D01*
X6290000Y-8830000D02*
X6290000Y-11490000D01*
X8890000Y-11490000D02*
X6290000Y-11490000D01*
%TD*%
M02*
