%TF.GenerationSoftware,KiCad,Pcbnew,7.0.7-7.0.7~ubuntu22.04.1*%
%TF.CreationDate,2023-09-16T18:52:32-04:00*%
%TF.ProjectId,fd50to34,66643530-746f-4333-942e-6b696361645f,rev?*%
%TF.SameCoordinates,Original*%
%TF.FileFunction,Copper,L1,Top*%
%TF.FilePolarity,Positive*%
%FSLAX46Y46*%
G04 Gerber Fmt 4.6, Leading zero omitted, Abs format (unit mm)*
G04 Created by KiCad (PCBNEW 7.0.7-7.0.7~ubuntu22.04.1) date 2023-09-16 18:52:32*
%MOMM*%
%LPD*%
G01*
G04 APERTURE LIST*
%TA.AperFunction,ComponentPad*%
%ADD10R,1.700000X1.700000*%
%TD*%
%TA.AperFunction,ComponentPad*%
%ADD11O,1.700000X1.700000*%
%TD*%
%TA.AperFunction,ViaPad*%
%ADD12C,1.700000*%
%TD*%
%TA.AperFunction,Conductor*%
%ADD13C,0.350000*%
%TD*%
G04 APERTURE END LIST*
D10*
%TO.P,J1,1,GND*%
%TO.N,GND*%
X0Y0D03*
D11*
%TO.P,J1,2,/~{REDWC}*%
%TO.N,unconnected-(J1-{slash}~{REDWC}-Pad2)*%
X2540000Y0D03*
%TO.P,J1,3,GND*%
%TO.N,GND*%
X0Y-2540000D03*
%TO.P,J1,4,~{MTROFF0}*%
%TO.N,unconnected-(J1-~{MTROFF0}-Pad4)*%
X2540000Y-2540000D03*
%TO.P,J1,5,GND*%
%TO.N,GND*%
X0Y-5080000D03*
%TO.P,J1,6,~{MTROFF1}*%
%TO.N,unconnected-(J1-~{MTROFF1}-Pad6)*%
X2540000Y-5080000D03*
%TO.P,J1,7,GND*%
%TO.N,GND*%
X0Y-7620000D03*
%TO.P,J1,8,~{MTROFF2}*%
%TO.N,unconnected-(J1-~{MTROFF2}-Pad8)*%
X2540000Y-7620000D03*
%TO.P,J1,9,GND*%
%TO.N,GND*%
X0Y-10160000D03*
%TO.P,J1,10,~{FD2S}*%
%TO.N,Net-(J1-~{FD2S})*%
X2540000Y-10160000D03*
%TO.P,J1,11,GND*%
%TO.N,GND*%
X0Y-12700000D03*
%TO.P,J1,12,~{DSKCHG}*%
%TO.N,Net-(J1-~{DSKCHG})*%
X2540000Y-12700000D03*
%TO.P,J1,13,GND*%
%TO.N,GND*%
X0Y-15240000D03*
%TO.P,J1,14,~{SIDE1}*%
%TO.N,Net-(J1-~{SIDE1})*%
X2540000Y-15240000D03*
%TO.P,J1,15,GND*%
%TO.N,GND*%
X0Y-17780000D03*
%TO.P,J1,16,~{INUSE}/~{DLOCK}*%
%TO.N,unconnected-(J1-~{INUSE}{slash}~{DLOCK}-Pad16)*%
X2540000Y-17780000D03*
%TO.P,J1,17,GND*%
%TO.N,GND*%
X0Y-20320000D03*
%TO.P,J1,18,~{HLD}*%
%TO.N,Net-(J1-~{HLD})*%
X2540000Y-20320000D03*
%TO.P,J1,19,GND*%
%TO.N,GND*%
X0Y-22860000D03*
%TO.P,J1,20,~{INDEX}*%
%TO.N,Net-(J1-~{INDEX})*%
X2540000Y-22860000D03*
%TO.P,J1,21,GND*%
%TO.N,GND*%
X0Y-25400000D03*
%TO.P,J1,22,~{READY}*%
%TO.N,Net-(J1-~{READY})*%
X2540000Y-25400000D03*
%TO.P,J1,23,GND*%
%TO.N,GND*%
X0Y-27940000D03*
%TO.P,J1,24,~{SECTOR}/~{MTROFF3}*%
%TO.N,unconnected-(J1-~{SECTOR}{slash}~{MTROFF3}-Pad24)*%
X2540000Y-27940000D03*
%TO.P,J1,25,GND*%
%TO.N,GND*%
X0Y-30480000D03*
%TO.P,J1,26,~{DS0}*%
%TO.N,Net-(J1-~{DS0})*%
X2540000Y-30480000D03*
%TO.P,J1,27,GND*%
%TO.N,GND*%
X0Y-33020000D03*
%TO.P,J1,28,~{DS1}*%
%TO.N,Net-(J1-~{DS1})*%
X2540000Y-33020000D03*
%TO.P,J1,29,GND*%
%TO.N,GND*%
X0Y-35560000D03*
%TO.P,J1,30,~{DS2}*%
%TO.N,Net-(J1-~{DS2})*%
X2540000Y-35560000D03*
%TO.P,J1,31,GND*%
%TO.N,GND*%
X0Y-38100000D03*
%TO.P,J1,32,~{DS3}*%
%TO.N,Net-(J1-~{DS3})*%
X2540000Y-38100000D03*
%TO.P,J1,33,GND*%
%TO.N,GND*%
X0Y-40640000D03*
%TO.P,J1,34,~{DIR}*%
%TO.N,Net-(J1-~{DIR})*%
X2540000Y-40640000D03*
%TO.P,J1,35,GND*%
%TO.N,GND*%
X0Y-43180000D03*
%TO.P,J1,36,~{STEP}*%
%TO.N,Net-(J1-~{STEP})*%
X2540000Y-43180000D03*
%TO.P,J1,37,GND*%
%TO.N,GND*%
X0Y-45720000D03*
%TO.P,J1,38,~{WDATA}*%
%TO.N,Net-(J1-~{WDATA})*%
X2540000Y-45720000D03*
%TO.P,J1,39,GND*%
%TO.N,GND*%
X0Y-48260000D03*
%TO.P,J1,40,~{WGATE}*%
%TO.N,Net-(J1-~{WGATE})*%
X2540000Y-48260000D03*
%TO.P,J1,41,GND*%
%TO.N,GND*%
X0Y-50800000D03*
%TO.P,J1,42,~{TRK00}*%
%TO.N,Net-(J1-~{TRK00})*%
X2540000Y-50800000D03*
%TO.P,J1,43,GND*%
%TO.N,GND*%
X0Y-53340000D03*
%TO.P,J1,44,~{WPT}*%
%TO.N,Net-(J1-~{WPT})*%
X2540000Y-53340000D03*
%TO.P,J1,45,GND*%
%TO.N,GND*%
X0Y-55880000D03*
%TO.P,J1,46,~{RDATA}*%
%TO.N,Net-(J1-~{RDATA})*%
X2540000Y-55880000D03*
%TO.P,J1,47,GND*%
%TO.N,GND*%
X0Y-58420000D03*
%TO.P,J1,48,~{SEPDATA}*%
%TO.N,unconnected-(J1-~{SEPDATA}-Pad48)*%
X2540000Y-58420000D03*
%TO.P,J1,49,GND*%
%TO.N,GND*%
X0Y-60960000D03*
%TO.P,J1,50,~{SEPCLOCK}*%
%TO.N,unconnected-(J1-~{SEPCLOCK}-Pad50)*%
X2540000Y-60960000D03*
%TD*%
D10*
%TO.P,J2,1,GND*%
%TO.N,GND*%
X17780000Y-19050000D03*
D11*
%TO.P,J2,2,~{DCD}/~{REDWC}*%
%TO.N,Net-(J1-~{DSKCHG})*%
X20320000Y-19050000D03*
%TO.P,J2,3,GND*%
%TO.N,GND*%
X17780000Y-21590000D03*
%TO.P,J2,4,~{INUSE}*%
%TO.N,unconnected-(J2-~{INUSE}-Pad4)*%
X20320000Y-21590000D03*
%TO.P,J2,5,GND*%
%TO.N,GND*%
X17780000Y-24130000D03*
%TO.P,J2,6,~{DS3}*%
%TO.N,Net-(J1-~{DS3})*%
X20320000Y-24130000D03*
%TO.P,J2,7,GND*%
%TO.N,GND*%
X17780000Y-26670000D03*
%TO.P,J2,8,~{INDEX}*%
%TO.N,Net-(J1-~{INDEX})*%
X20320000Y-26670000D03*
%TO.P,J2,9,GND*%
%TO.N,GND*%
X17780000Y-29210000D03*
%TO.P,J2,10,~{DS0}/~{MOTEA}*%
%TO.N,Net-(J1-~{DS0})*%
X20320000Y-29210000D03*
%TO.P,J2,11,GND*%
%TO.N,GND*%
X17780000Y-31750000D03*
%TO.P,J2,12,~{DS1}/~{DRVSB}*%
%TO.N,Net-(J1-~{DS1})*%
X20320000Y-31750000D03*
%TO.P,J2,13,GND*%
%TO.N,GND*%
X17780000Y-34290000D03*
%TO.P,J2,14,~{DS2}/~{DRVSA}*%
%TO.N,Net-(J1-~{DS2})*%
X20320000Y-34290000D03*
%TO.P,J2,15,GND*%
%TO.N,GND*%
X17780000Y-36830000D03*
%TO.P,J2,16,~{MTRON}/~{MOTEB}*%
%TO.N,Net-(J1-~{HLD})*%
X20320000Y-36830000D03*
%TO.P,J2,17,GND*%
%TO.N,GND*%
X17780000Y-39370000D03*
%TO.P,J2,18,~{DIR}*%
%TO.N,Net-(J1-~{DIR})*%
X20320000Y-39370000D03*
%TO.P,J2,19,GND*%
%TO.N,GND*%
X17780000Y-41910000D03*
%TO.P,J2,20,~{STEP}*%
%TO.N,Net-(J1-~{STEP})*%
X20320000Y-41910000D03*
%TO.P,J2,21,GND*%
%TO.N,GND*%
X17780000Y-44450000D03*
%TO.P,J2,22,~{WDATA}*%
%TO.N,Net-(J1-~{WDATA})*%
X20320000Y-44450000D03*
%TO.P,J2,23,GND*%
%TO.N,GND*%
X17780000Y-46990000D03*
%TO.P,J2,24,~{WGATE}*%
%TO.N,Net-(J1-~{WGATE})*%
X20320000Y-46990000D03*
%TO.P,J2,25,GND*%
%TO.N,GND*%
X17780000Y-49530000D03*
%TO.P,J2,26,~{TRK00}*%
%TO.N,Net-(J1-~{TRK00})*%
X20320000Y-49530000D03*
%TO.P,J2,27,GND*%
%TO.N,GND*%
X17780000Y-52070000D03*
%TO.P,J2,28,~{WPT}*%
%TO.N,Net-(J1-~{WPT})*%
X20320000Y-52070000D03*
%TO.P,J2,29,GND*%
%TO.N,GND*%
X17780000Y-54610000D03*
%TO.P,J2,30,~{RDATA}*%
%TO.N,Net-(J1-~{RDATA})*%
X20320000Y-54610000D03*
%TO.P,J2,31,GND*%
%TO.N,GND*%
X17780000Y-57150000D03*
%TO.P,J2,32,~{SIDE1}*%
%TO.N,Net-(J1-~{SIDE1})*%
X20320000Y-57150000D03*
%TO.P,J2,33,GND*%
%TO.N,GND*%
X17780000Y-59690000D03*
%TO.P,J2,34,~{RDY}/~{DSKCHG}*%
%TO.N,Net-(J1-~{READY})*%
X20320000Y-59690000D03*
%TD*%
D10*
%TO.P,J3,1,Pin_1*%
%TO.N,GND*%
X10160000Y-10160000D03*
D11*
%TO.P,J3,2,Pin_2*%
%TO.N,Net-(J1-~{FD2S})*%
X7620000Y-10160000D03*
%TD*%
D12*
%TO.N,Net-(J1-~{SIDE1})*%
X8890000Y-58420000D03*
X8890000Y-15240000D03*
%TO.N,Net-(J1-~{HLD})*%
X13335000Y-38100000D03*
X13335000Y-20320000D03*
%TO.N,Net-(J1-~{READY})*%
X6985000Y-25400000D03*
X6985000Y-60960000D03*
%TO.N,Net-(J1-~{DS0})*%
X5080000Y-30480000D03*
X15240000Y-30480000D03*
%TO.N,Net-(J1-~{DS1})*%
X5080000Y-33020000D03*
X15240000Y-33020000D03*
%TO.N,Net-(J1-~{DS2})*%
X5080000Y-35560000D03*
X15240000Y-35560000D03*
%TO.N,Net-(J1-~{DS3})*%
X10795000Y-22860000D03*
X10795000Y-38100000D03*
%TD*%
D13*
%TO.N,Net-(J1-~{SIDE1})*%
X8890000Y-15240000D02*
X8890000Y-58420000D01*
%TO.N,Net-(J1-~{HLD})*%
X13335000Y-38100000D02*
X13335000Y-20320000D01*
%TO.N,Net-(J1-~{READY})*%
X6985000Y-60960000D02*
X6985000Y-25400000D01*
%TO.N,Net-(J1-~{DS3})*%
X10795000Y-22860000D02*
X10795000Y-38100000D01*
%TD*%
%TA.AperFunction,Conductor*%
%TO.N,Net-(J1-~{READY})*%
G36*
X7157884Y-59433427D02*
G01*
X7161229Y-59440317D01*
X7198663Y-59754690D01*
X7198663Y-59754691D01*
X7198664Y-59754694D01*
X7300404Y-59966098D01*
X7300405Y-59966099D01*
X7300406Y-59966101D01*
X7443842Y-60135627D01*
X7606887Y-60333829D01*
X7608136Y-60335685D01*
X7764113Y-60623314D01*
X7765044Y-60632220D01*
X7759405Y-60639176D01*
X7758317Y-60639696D01*
X6989489Y-60959134D01*
X6980534Y-60959143D01*
X6980511Y-60959134D01*
X6211682Y-60639696D01*
X6205357Y-60633357D01*
X6205366Y-60624402D01*
X6205880Y-60623325D01*
X6361867Y-60335676D01*
X6363104Y-60333838D01*
X6526157Y-60135627D01*
X6669595Y-59966098D01*
X6771335Y-59754694D01*
X6808771Y-59440316D01*
X6813152Y-59432507D01*
X6820389Y-59430000D01*
X7149611Y-59430000D01*
X7157884Y-59433427D01*
G37*
%TD.AperFunction*%
%TD*%
%TA.AperFunction,Conductor*%
%TO.N,Net-(J1-~{READY})*%
G36*
X6989488Y-25400865D02*
G01*
X7758317Y-25720303D01*
X7764642Y-25726642D01*
X7764633Y-25735597D01*
X7764113Y-25736685D01*
X7608136Y-26024313D01*
X7606887Y-26026169D01*
X7443842Y-26224372D01*
X7300406Y-26393896D01*
X7198663Y-26605307D01*
X7161229Y-26919683D01*
X7156848Y-26927493D01*
X7149611Y-26930000D01*
X6820389Y-26930000D01*
X6812116Y-26926573D01*
X6808771Y-26919683D01*
X6771335Y-26605307D01*
X6771335Y-26605304D01*
X6669595Y-26393900D01*
X6526157Y-26224372D01*
X6363108Y-26026165D01*
X6361865Y-26024317D01*
X6205885Y-25736684D01*
X6204955Y-25727779D01*
X6210594Y-25720823D01*
X6211674Y-25720306D01*
X6980511Y-25400864D01*
X6989465Y-25400856D01*
X6989488Y-25400865D01*
G37*
%TD.AperFunction*%
%TD*%
%TA.AperFunction,Conductor*%
%TO.N,Net-(J1-~{DS3})*%
G36*
X10967884Y-36573427D02*
G01*
X10971229Y-36580317D01*
X11008663Y-36894690D01*
X11008663Y-36894691D01*
X11008664Y-36894694D01*
X11110404Y-37106098D01*
X11110405Y-37106099D01*
X11110406Y-37106101D01*
X11253842Y-37275627D01*
X11416887Y-37473829D01*
X11418136Y-37475685D01*
X11574113Y-37763314D01*
X11575044Y-37772220D01*
X11569405Y-37779176D01*
X11568317Y-37779696D01*
X10799489Y-38099134D01*
X10790534Y-38099143D01*
X10790511Y-38099134D01*
X10021682Y-37779696D01*
X10015357Y-37773357D01*
X10015366Y-37764402D01*
X10015880Y-37763325D01*
X10171867Y-37475676D01*
X10173104Y-37473838D01*
X10336157Y-37275627D01*
X10479595Y-37106098D01*
X10581335Y-36894694D01*
X10618771Y-36580316D01*
X10623152Y-36572507D01*
X10630389Y-36570000D01*
X10959611Y-36570000D01*
X10967884Y-36573427D01*
G37*
%TD.AperFunction*%
%TD*%
%TA.AperFunction,Conductor*%
%TO.N,Net-(J1-~{DS3})*%
G36*
X10799488Y-22860865D02*
G01*
X11568317Y-23180303D01*
X11574642Y-23186642D01*
X11574633Y-23195597D01*
X11574113Y-23196685D01*
X11418136Y-23484313D01*
X11416887Y-23486169D01*
X11253842Y-23684372D01*
X11110406Y-23853896D01*
X11008663Y-24065307D01*
X10971229Y-24379683D01*
X10966848Y-24387493D01*
X10959611Y-24390000D01*
X10630389Y-24390000D01*
X10622116Y-24386573D01*
X10618771Y-24379683D01*
X10581335Y-24065307D01*
X10581335Y-24065304D01*
X10479595Y-23853900D01*
X10336157Y-23684372D01*
X10173108Y-23486165D01*
X10171865Y-23484317D01*
X10015885Y-23196684D01*
X10014955Y-23187779D01*
X10020594Y-23180823D01*
X10021674Y-23180306D01*
X10790511Y-22860864D01*
X10799465Y-22860856D01*
X10799488Y-22860865D01*
G37*
%TD.AperFunction*%
%TD*%
%TA.AperFunction,Conductor*%
%TO.N,Net-(J1-~{HLD})*%
G36*
X13339489Y-20320865D02*
G01*
X14108317Y-20640303D01*
X14114642Y-20646642D01*
X14114633Y-20655597D01*
X14114113Y-20656685D01*
X13958136Y-20944313D01*
X13956887Y-20946169D01*
X13793842Y-21144372D01*
X13650406Y-21313896D01*
X13548663Y-21525307D01*
X13511229Y-21839683D01*
X13506848Y-21847493D01*
X13499611Y-21850000D01*
X13170389Y-21850000D01*
X13162116Y-21846573D01*
X13158771Y-21839683D01*
X13121335Y-21525307D01*
X13121335Y-21525304D01*
X13019595Y-21313900D01*
X12876157Y-21144372D01*
X12713108Y-20946165D01*
X12711865Y-20944317D01*
X12555885Y-20656684D01*
X12554955Y-20647779D01*
X12560594Y-20640823D01*
X12561674Y-20640306D01*
X13330511Y-20320864D01*
X13339466Y-20320856D01*
X13339489Y-20320865D01*
G37*
%TD.AperFunction*%
%TD*%
%TA.AperFunction,Conductor*%
%TO.N,Net-(J1-~{SIDE1})*%
G36*
X9062884Y-56893427D02*
G01*
X9066229Y-56900317D01*
X9103663Y-57214690D01*
X9103663Y-57214691D01*
X9103664Y-57214694D01*
X9205404Y-57426098D01*
X9205405Y-57426099D01*
X9205406Y-57426101D01*
X9348842Y-57595627D01*
X9511887Y-57793829D01*
X9513136Y-57795685D01*
X9669113Y-58083314D01*
X9670044Y-58092220D01*
X9664405Y-58099176D01*
X9663317Y-58099696D01*
X8894489Y-58419134D01*
X8885534Y-58419143D01*
X8885511Y-58419134D01*
X8116682Y-58099696D01*
X8110357Y-58093357D01*
X8110366Y-58084402D01*
X8110880Y-58083325D01*
X8266867Y-57795676D01*
X8268104Y-57793838D01*
X8431157Y-57595627D01*
X8574595Y-57426098D01*
X8676335Y-57214694D01*
X8713771Y-56900316D01*
X8718152Y-56892507D01*
X8725389Y-56890000D01*
X9054611Y-56890000D01*
X9062884Y-56893427D01*
G37*
%TD.AperFunction*%
%TD*%
%TA.AperFunction,Conductor*%
%TO.N,Net-(J1-~{HLD})*%
G36*
X13507884Y-36573427D02*
G01*
X13511229Y-36580317D01*
X13548663Y-36894690D01*
X13548663Y-36894691D01*
X13548664Y-36894694D01*
X13650404Y-37106098D01*
X13650405Y-37106099D01*
X13650406Y-37106101D01*
X13793842Y-37275627D01*
X13956887Y-37473829D01*
X13958136Y-37475685D01*
X14114113Y-37763314D01*
X14115044Y-37772220D01*
X14109405Y-37779176D01*
X14108317Y-37779696D01*
X13339489Y-38099134D01*
X13330534Y-38099143D01*
X13330511Y-38099134D01*
X12561682Y-37779696D01*
X12555357Y-37773357D01*
X12555366Y-37764402D01*
X12555880Y-37763325D01*
X12711867Y-37475676D01*
X12713104Y-37473838D01*
X12876157Y-37275627D01*
X13019595Y-37106098D01*
X13121335Y-36894694D01*
X13158771Y-36580316D01*
X13163152Y-36572507D01*
X13170389Y-36570000D01*
X13499611Y-36570000D01*
X13507884Y-36573427D01*
G37*
%TD.AperFunction*%
%TD*%
%TA.AperFunction,Conductor*%
%TO.N,Net-(J1-~{SIDE1})*%
G36*
X8894489Y-15240865D02*
G01*
X9663317Y-15560303D01*
X9669642Y-15566642D01*
X9669633Y-15575597D01*
X9669113Y-15576685D01*
X9513136Y-15864313D01*
X9511887Y-15866169D01*
X9348842Y-16064372D01*
X9205406Y-16233896D01*
X9103663Y-16445307D01*
X9066229Y-16759683D01*
X9061848Y-16767493D01*
X9054611Y-16770000D01*
X8725389Y-16770000D01*
X8717116Y-16766573D01*
X8713771Y-16759683D01*
X8676335Y-16445307D01*
X8676335Y-16445304D01*
X8574595Y-16233900D01*
X8431157Y-16064372D01*
X8268108Y-15866165D01*
X8266865Y-15864317D01*
X8110885Y-15576684D01*
X8109955Y-15567779D01*
X8115594Y-15560823D01*
X8116674Y-15560306D01*
X8885511Y-15240864D01*
X8894466Y-15240856D01*
X8894489Y-15240865D01*
G37*
%TD.AperFunction*%
%TD*%
M02*
