M48
; DRILL file {KiCad 7.0.7-7.0.7~ubuntu22.04.1} date Mon 04 Sep 2023 11:59:42 PM
; FORMAT={-:-/ absolute / inch / decimal}
; #@! TF.CreationDate,2023-09-04T23:59:42-04:00
; #@! TF.GenerationSoftware,Kicad,Pcbnew,7.0.7-7.0.7~ubuntu22.04.1
; #@! TF.FileFunction,Plated,1,2,PTH
FMAT,2
INCH
; #@! TA.AperFunction,Plated,PTH,ViaDrill
T1C0.0394
; #@! TA.AperFunction,Plated,PTH,ComponentDrill
T2C0.0394
%
G90
G05
T1
X0.2Y-1.2
X0.2Y-1.3
X0.2Y-1.4
X0.275Y-1.0
X0.275Y-2.4
X0.35Y-0.6
X0.35Y-2.3
X0.425Y-0.9
X0.425Y-1.5
X0.525Y-0.8
X0.525Y-1.5
X0.6Y-1.2
X0.6Y-1.3
X0.6Y-1.4
T2
X0.0Y0.0
X0.0Y-0.1
X0.0Y-0.2
X0.0Y-0.3
X0.0Y-0.4
X0.0Y-0.5
X0.0Y-0.6
X0.0Y-0.7
X0.0Y-0.8
X0.0Y-0.9
X0.0Y-1.0
X0.0Y-1.1
X0.0Y-1.2
X0.0Y-1.3
X0.0Y-1.4
X0.0Y-1.5
X0.0Y-1.6
X0.0Y-1.7
X0.0Y-1.8
X0.0Y-1.9
X0.0Y-2.0
X0.0Y-2.1
X0.0Y-2.2
X0.0Y-2.3
X0.0Y-2.4
X0.1Y0.0
X0.1Y-0.1
X0.1Y-0.2
X0.1Y-0.3
X0.1Y-0.4
X0.1Y-0.5
X0.1Y-0.6
X0.1Y-0.7
X0.1Y-0.8
X0.1Y-0.9
X0.1Y-1.0
X0.1Y-1.1
X0.1Y-1.2
X0.1Y-1.3
X0.1Y-1.4
X0.1Y-1.5
X0.1Y-1.6
X0.1Y-1.7
X0.1Y-1.8
X0.1Y-1.9
X0.1Y-2.0
X0.1Y-2.1
X0.1Y-2.2
X0.1Y-2.3
X0.1Y-2.4
X0.7Y-0.75
X0.7Y-0.85
X0.7Y-0.95
X0.7Y-1.05
X0.7Y-1.15
X0.7Y-1.25
X0.7Y-1.35
X0.7Y-1.45
X0.7Y-1.55
X0.7Y-1.65
X0.7Y-1.75
X0.7Y-1.85
X0.7Y-1.95
X0.7Y-2.05
X0.7Y-2.15
X0.7Y-2.25
X0.7Y-2.35
X0.8Y-0.75
X0.8Y-0.85
X0.8Y-0.95
X0.8Y-1.05
X0.8Y-1.15
X0.8Y-1.25
X0.8Y-1.35
X0.8Y-1.45
X0.8Y-1.55
X0.8Y-1.65
X0.8Y-1.75
X0.8Y-1.85
X0.8Y-1.95
X0.8Y-2.05
X0.8Y-2.15
X0.8Y-2.25
X0.8Y-2.35
T0
M30
