%TF.GenerationSoftware,KiCad,Pcbnew,7.0.7-7.0.7~ubuntu22.04.1*%
%TF.CreationDate,2023-09-04T23:59:45-04:00*%
%TF.ProjectId,fd50to34,66643530-746f-4333-942e-6b696361645f,rev?*%
%TF.SameCoordinates,Original*%
%TF.FileFunction,Copper,L2,Bot*%
%TF.FilePolarity,Positive*%
%FSLAX46Y46*%
G04 Gerber Fmt 4.6, Leading zero omitted, Abs format (unit mm)*
G04 Created by KiCad (PCBNEW 7.0.7-7.0.7~ubuntu22.04.1) date 2023-09-04 23:59:45*
%MOMM*%
%LPD*%
G01*
G04 APERTURE LIST*
%TA.AperFunction,ComponentPad*%
%ADD10R,1.700000X1.700000*%
%TD*%
%TA.AperFunction,ComponentPad*%
%ADD11O,1.700000X1.700000*%
%TD*%
%TA.AperFunction,ViaPad*%
%ADD12C,1.700000*%
%TD*%
%TA.AperFunction,Conductor*%
%ADD13C,0.350000*%
%TD*%
G04 APERTURE END LIST*
D10*
%TO.P,J2,1,GND*%
%TO.N,GND*%
X17780000Y-19050000D03*
D11*
%TO.P,J2,2,~{DCD}/~{REDWC}*%
%TO.N,Net-(J1-~{DSKCHG})*%
X20320000Y-19050000D03*
%TO.P,J2,3,GND*%
%TO.N,GND*%
X17780000Y-21590000D03*
%TO.P,J2,4,~{INUSE}*%
%TO.N,unconnected-(J2-~{INUSE}-Pad4)*%
X20320000Y-21590000D03*
%TO.P,J2,5,GND*%
%TO.N,GND*%
X17780000Y-24130000D03*
%TO.P,J2,6,~{DS3}*%
%TO.N,Net-(J1-~{DS3})*%
X20320000Y-24130000D03*
%TO.P,J2,7,GND*%
%TO.N,GND*%
X17780000Y-26670000D03*
%TO.P,J2,8,~{INDEX}*%
%TO.N,Net-(J1-~{INDEX})*%
X20320000Y-26670000D03*
%TO.P,J2,9,GND*%
%TO.N,GND*%
X17780000Y-29210000D03*
%TO.P,J2,10,~{DS0}/~{MOTEA}*%
%TO.N,Net-(J1-~{DS0})*%
X20320000Y-29210000D03*
%TO.P,J2,11,GND*%
%TO.N,GND*%
X17780000Y-31750000D03*
%TO.P,J2,12,~{DS1}/~{DRVSB}*%
%TO.N,Net-(J1-~{DS1})*%
X20320000Y-31750000D03*
%TO.P,J2,13,GND*%
%TO.N,GND*%
X17780000Y-34290000D03*
%TO.P,J2,14,~{DS2}/~{DRVSA}*%
%TO.N,Net-(J1-~{DS2})*%
X20320000Y-34290000D03*
%TO.P,J2,15,GND*%
%TO.N,GND*%
X17780000Y-36830000D03*
%TO.P,J2,16,~{MTRON}/~{MOTEB}*%
%TO.N,Net-(J1-~{HLD})*%
X20320000Y-36830000D03*
%TO.P,J2,17,GND*%
%TO.N,GND*%
X17780000Y-39370000D03*
%TO.P,J2,18,~{DIR}*%
%TO.N,Net-(J1-~{DIR})*%
X20320000Y-39370000D03*
%TO.P,J2,19,GND*%
%TO.N,GND*%
X17780000Y-41910000D03*
%TO.P,J2,20,~{STEP}*%
%TO.N,Net-(J1-~{STEP})*%
X20320000Y-41910000D03*
%TO.P,J2,21,GND*%
%TO.N,GND*%
X17780000Y-44450000D03*
%TO.P,J2,22,~{WDATA}*%
%TO.N,Net-(J1-~{WDATA})*%
X20320000Y-44450000D03*
%TO.P,J2,23,GND*%
%TO.N,GND*%
X17780000Y-46990000D03*
%TO.P,J2,24,~{WGATE}*%
%TO.N,Net-(J1-~{WGATE})*%
X20320000Y-46990000D03*
%TO.P,J2,25,GND*%
%TO.N,GND*%
X17780000Y-49530000D03*
%TO.P,J2,26,~{TRK00}*%
%TO.N,Net-(J1-~{TRK00})*%
X20320000Y-49530000D03*
%TO.P,J2,27,GND*%
%TO.N,GND*%
X17780000Y-52070000D03*
%TO.P,J2,28,~{WPT}*%
%TO.N,Net-(J1-~{WPT})*%
X20320000Y-52070000D03*
%TO.P,J2,29,GND*%
%TO.N,GND*%
X17780000Y-54610000D03*
%TO.P,J2,30,~{RDATA}*%
%TO.N,Net-(J1-~{RDATA})*%
X20320000Y-54610000D03*
%TO.P,J2,31,GND*%
%TO.N,GND*%
X17780000Y-57150000D03*
%TO.P,J2,32,~{SIDE1}*%
%TO.N,Net-(J1-~{SIDE1})*%
X20320000Y-57150000D03*
%TO.P,J2,33,GND*%
%TO.N,GND*%
X17780000Y-59690000D03*
%TO.P,J2,34,~{RDY}/~{DSKCHG}*%
%TO.N,Net-(J1-~{READY})*%
X20320000Y-59690000D03*
%TD*%
D10*
%TO.P,J1,1,GND*%
%TO.N,GND*%
X0Y0D03*
D11*
%TO.P,J1,2,/~{REDWC}*%
%TO.N,unconnected-(J1-{slash}~{REDWC}-Pad2)*%
X2540000Y0D03*
%TO.P,J1,3,GND*%
%TO.N,GND*%
X0Y-2540000D03*
%TO.P,J1,4,~{MTROFF0}*%
%TO.N,unconnected-(J1-~{MTROFF0}-Pad4)*%
X2540000Y-2540000D03*
%TO.P,J1,5,GND*%
%TO.N,GND*%
X0Y-5080000D03*
%TO.P,J1,6,~{MTROFF1}*%
%TO.N,unconnected-(J1-~{MTROFF1}-Pad6)*%
X2540000Y-5080000D03*
%TO.P,J1,7,GND*%
%TO.N,GND*%
X0Y-7620000D03*
%TO.P,J1,8,~{MTROFF2}*%
%TO.N,unconnected-(J1-~{MTROFF2}-Pad8)*%
X2540000Y-7620000D03*
%TO.P,J1,9,GND*%
%TO.N,GND*%
X0Y-10160000D03*
%TO.P,J1,10,~{FD2S}*%
X2540000Y-10160000D03*
%TO.P,J1,11,GND*%
X0Y-12700000D03*
%TO.P,J1,12,~{DSKCHG}*%
%TO.N,Net-(J1-~{DSKCHG})*%
X2540000Y-12700000D03*
%TO.P,J1,13,GND*%
%TO.N,GND*%
X0Y-15240000D03*
%TO.P,J1,14,~{SIDE1}*%
%TO.N,Net-(J1-~{SIDE1})*%
X2540000Y-15240000D03*
%TO.P,J1,15,GND*%
%TO.N,GND*%
X0Y-17780000D03*
%TO.P,J1,16,~{INUSE}/~{DLOCK}*%
%TO.N,unconnected-(J1-~{INUSE}{slash}~{DLOCK}-Pad16)*%
X2540000Y-17780000D03*
%TO.P,J1,17,GND*%
%TO.N,GND*%
X0Y-20320000D03*
%TO.P,J1,18,~{HLD}*%
%TO.N,Net-(J1-~{HLD})*%
X2540000Y-20320000D03*
%TO.P,J1,19,GND*%
%TO.N,GND*%
X0Y-22860000D03*
%TO.P,J1,20,~{INDEX}*%
%TO.N,Net-(J1-~{INDEX})*%
X2540000Y-22860000D03*
%TO.P,J1,21,GND*%
%TO.N,GND*%
X0Y-25400000D03*
%TO.P,J1,22,~{READY}*%
%TO.N,Net-(J1-~{READY})*%
X2540000Y-25400000D03*
%TO.P,J1,23,GND*%
%TO.N,GND*%
X0Y-27940000D03*
%TO.P,J1,24,~{SECTOR}/~{MTROFF3}*%
%TO.N,unconnected-(J1-~{SECTOR}{slash}~{MTROFF3}-Pad24)*%
X2540000Y-27940000D03*
%TO.P,J1,25,GND*%
%TO.N,GND*%
X0Y-30480000D03*
%TO.P,J1,26,~{DS0}*%
%TO.N,Net-(J1-~{DS0})*%
X2540000Y-30480000D03*
%TO.P,J1,27,GND*%
%TO.N,GND*%
X0Y-33020000D03*
%TO.P,J1,28,~{DS1}*%
%TO.N,Net-(J1-~{DS1})*%
X2540000Y-33020000D03*
%TO.P,J1,29,GND*%
%TO.N,GND*%
X0Y-35560000D03*
%TO.P,J1,30,~{DS2}*%
%TO.N,Net-(J1-~{DS2})*%
X2540000Y-35560000D03*
%TO.P,J1,31,GND*%
%TO.N,GND*%
X0Y-38100000D03*
%TO.P,J1,32,~{DS3}*%
%TO.N,Net-(J1-~{DS3})*%
X2540000Y-38100000D03*
%TO.P,J1,33,GND*%
%TO.N,GND*%
X0Y-40640000D03*
%TO.P,J1,34,~{DIR}*%
%TO.N,Net-(J1-~{DIR})*%
X2540000Y-40640000D03*
%TO.P,J1,35,GND*%
%TO.N,GND*%
X0Y-43180000D03*
%TO.P,J1,36,~{STEP}*%
%TO.N,Net-(J1-~{STEP})*%
X2540000Y-43180000D03*
%TO.P,J1,37,GND*%
%TO.N,GND*%
X0Y-45720000D03*
%TO.P,J1,38,~{WDATA}*%
%TO.N,Net-(J1-~{WDATA})*%
X2540000Y-45720000D03*
%TO.P,J1,39,GND*%
%TO.N,GND*%
X0Y-48260000D03*
%TO.P,J1,40,~{WGATE}*%
%TO.N,Net-(J1-~{WGATE})*%
X2540000Y-48260000D03*
%TO.P,J1,41,GND*%
%TO.N,GND*%
X0Y-50800000D03*
%TO.P,J1,42,~{TRK00}*%
%TO.N,Net-(J1-~{TRK00})*%
X2540000Y-50800000D03*
%TO.P,J1,43,GND*%
%TO.N,GND*%
X0Y-53340000D03*
%TO.P,J1,44,~{WPT}*%
%TO.N,Net-(J1-~{WPT})*%
X2540000Y-53340000D03*
%TO.P,J1,45,GND*%
%TO.N,GND*%
X0Y-55880000D03*
%TO.P,J1,46,~{RDATA}*%
%TO.N,Net-(J1-~{RDATA})*%
X2540000Y-55880000D03*
%TO.P,J1,47,GND*%
%TO.N,GND*%
X0Y-58420000D03*
%TO.P,J1,48,~{SEPDATA}*%
%TO.N,unconnected-(J1-~{SEPDATA}-Pad48)*%
X2540000Y-58420000D03*
%TO.P,J1,49,GND*%
%TO.N,GND*%
X0Y-60960000D03*
%TO.P,J1,50,~{SEPCLOCK}*%
%TO.N,unconnected-(J1-~{SEPCLOCK}-Pad50)*%
X2540000Y-60960000D03*
%TD*%
D12*
%TO.N,Net-(J1-~{HLD})*%
X13335000Y-20320000D03*
X13335000Y-38100000D03*
%TO.N,Net-(J1-~{DS2})*%
X15240000Y-35560000D03*
X5080000Y-35560000D03*
%TO.N,Net-(J1-~{DS1})*%
X15240000Y-33020000D03*
X5080000Y-33020000D03*
%TO.N,Net-(J1-~{DS0})*%
X15240000Y-30480000D03*
X5080000Y-30480000D03*
%TO.N,Net-(J1-~{DS3})*%
X10795000Y-38100000D03*
X10795000Y-22860000D03*
%TO.N,Net-(J1-~{READY})*%
X6985000Y-25400000D03*
X6985000Y-60960000D03*
%TO.N,Net-(J1-~{SIDE1})*%
X8890000Y-15240000D03*
X8890000Y-58420000D03*
%TD*%
D13*
%TO.N,Net-(J1-~{SIDE1})*%
X18221573Y-58419980D02*
G75*
G03*
X19635786Y-57834212I27J1999980D01*
G01*
%TO.N,Net-(J1-~{HLD})*%
X18221573Y-38099980D02*
G75*
G03*
X19635785Y-37514213I27J1999980D01*
G01*
%TO.N,Net-(J1-~{DS2})*%
X18221573Y-35559980D02*
G75*
G03*
X19635786Y-34974212I27J1999980D01*
G01*
%TO.N,Net-(J1-~{WGATE})*%
X18221573Y-48259980D02*
G75*
G03*
X19635786Y-47674212I27J1999980D01*
G01*
%TO.N,Net-(J1-~{DS3})*%
X19635800Y-23445772D02*
G75*
G03*
X18221573Y-22860000I-1414200J-1414228D01*
G01*
%TO.N,Net-(J1-~{INDEX})*%
X8205785Y-23445787D02*
G75*
G03*
X6791573Y-22860000I-1414215J-1414213D01*
G01*
X9574199Y-24814227D02*
G75*
G03*
X10988427Y-25400000I1414201J1414227D01*
G01*
%TO.N,Net-(J1-~{DS1})*%
X18221573Y-33019980D02*
G75*
G03*
X19635786Y-32434212I27J1999980D01*
G01*
%TO.N,Net-(J1-~{INDEX})*%
X19635800Y-25985772D02*
G75*
G03*
X18221573Y-25400000I-1414200J-1414228D01*
G01*
%TO.N,Net-(J1-~{READY})*%
X18221573Y-60959980D02*
G75*
G03*
X19635786Y-60374212I27J1999980D01*
G01*
%TO.N,Net-(J1-~{TRK00})*%
X18221573Y-50799980D02*
G75*
G03*
X19635786Y-50214212I27J1999980D01*
G01*
%TO.N,Net-(J1-~{WPT})*%
X18221573Y-53339980D02*
G75*
G03*
X19635786Y-52754212I27J1999980D01*
G01*
%TO.N,Net-(J1-~{DS0})*%
X18221573Y-30479980D02*
G75*
G03*
X19635786Y-29894212I27J1999980D01*
G01*
%TO.N,Net-(J1-~{DIR})*%
X18221573Y-40639980D02*
G75*
G03*
X19635786Y-40054212I27J1999980D01*
G01*
%TO.N,Net-(J1-~{DSKCHG})*%
X20319980Y-17338427D02*
G75*
G03*
X19734213Y-15924215I-1999980J27D01*
G01*
X17095801Y-13285773D02*
G75*
G03*
X15681573Y-12700000I-1414201J-1414227D01*
G01*
%TO.N,Net-(J1-~{STEP})*%
X18221573Y-43179980D02*
G75*
G03*
X19635786Y-42594212I27J1999980D01*
G01*
%TO.N,Net-(J1-~{RDATA})*%
X18221573Y-55879980D02*
G75*
G03*
X19635786Y-55294212I27J1999980D01*
G01*
%TO.N,Net-(J1-~{WDATA})*%
X18221573Y-45719980D02*
G75*
G03*
X19635786Y-45134212I27J1999980D01*
G01*
%TO.N,Net-(J1-~{DS3})*%
X2540000Y-38100000D02*
X10795000Y-38100000D01*
X20320000Y-24130000D02*
X19635786Y-23445786D01*
X18221573Y-22860000D02*
X10795000Y-22860000D01*
%TO.N,Net-(J1-~{INDEX})*%
X20320000Y-26670000D02*
X19635786Y-25985786D01*
X18221573Y-25400000D02*
X10988427Y-25400000D01*
X9574213Y-24814213D02*
X8205786Y-23445786D01*
X6791573Y-22860000D02*
X2540000Y-22860000D01*
%TO.N,Net-(J1-~{READY})*%
X6985000Y-25400000D02*
X2540000Y-25400000D01*
%TO.N,Net-(J1-~{SIDE1})*%
X2540000Y-15240000D02*
X8890000Y-15240000D01*
%TO.N,Net-(J1-~{DSKCHG})*%
X17095787Y-13285787D02*
X19734214Y-15924214D01*
X2540000Y-12700000D02*
X15681573Y-12700000D01*
X20320000Y-17338427D02*
X20320000Y-19050000D01*
%TO.N,Net-(J1-~{READY})*%
X6985000Y-60960000D02*
X18221573Y-60960000D01*
X19635787Y-60374213D02*
X20320000Y-59690000D01*
%TO.N,Net-(J1-~{SIDE1})*%
X8890000Y-58420000D02*
X18221573Y-58420000D01*
X19635787Y-57834213D02*
X20320000Y-57150000D01*
%TO.N,Net-(J1-~{RDATA})*%
X2540000Y-55880000D02*
X18221573Y-55880000D01*
X19635787Y-55294213D02*
X20320000Y-54610000D01*
%TO.N,Net-(J1-~{WPT})*%
X2540000Y-53340000D02*
X18221573Y-53340000D01*
X19635787Y-52754213D02*
X20320000Y-52070000D01*
%TO.N,Net-(J1-~{TRK00})*%
X2540000Y-50800000D02*
X18221573Y-50800000D01*
X19635787Y-50214213D02*
X20320000Y-49530000D01*
%TO.N,Net-(J1-~{WGATE})*%
X2540000Y-48260000D02*
X18221573Y-48260000D01*
X19635787Y-47674213D02*
X20320000Y-46990000D01*
%TO.N,Net-(J1-~{WDATA})*%
X2540000Y-45720000D02*
X18221573Y-45720000D01*
X19635787Y-45134213D02*
X20320000Y-44450000D01*
%TO.N,Net-(J1-~{STEP})*%
X2540000Y-43180000D02*
X18221573Y-43180000D01*
X19635787Y-42594213D02*
X20320000Y-41910000D01*
%TO.N,Net-(J1-~{DIR})*%
X2540000Y-40640000D02*
X18221573Y-40640000D01*
X19635787Y-40054213D02*
X20320000Y-39370000D01*
%TO.N,Net-(J1-~{HLD})*%
X13335000Y-20320000D02*
X2540000Y-20320000D01*
X18221573Y-38100000D02*
X13335000Y-38100000D01*
X20320000Y-36830000D02*
X19635786Y-37514214D01*
%TO.N,Net-(J1-~{DS2})*%
X15240000Y-35560000D02*
X18221573Y-35560000D01*
X19635787Y-34974213D02*
X20320000Y-34290000D01*
X5080000Y-35560000D02*
X15240000Y-35560000D01*
X2540000Y-35560000D02*
X5080000Y-35560000D01*
%TO.N,Net-(J1-~{DS1})*%
X15240000Y-33020000D02*
X18221573Y-33020000D01*
X19635787Y-32434213D02*
X20320000Y-31750000D01*
X5080000Y-33020000D02*
X15240000Y-33020000D01*
X2540000Y-33020000D02*
X5080000Y-33020000D01*
%TO.N,Net-(J1-~{DS0})*%
X15240000Y-30480000D02*
X18221573Y-30480000D01*
X19635787Y-29894213D02*
X20320000Y-29210000D01*
X5080000Y-30480000D02*
X15240000Y-30480000D01*
X2540000Y-30480000D02*
X5080000Y-30480000D01*
%TD*%
%TA.AperFunction,Conductor*%
%TO.N,GND*%
G36*
X23819039Y3536315D02*
G01*
X23864794Y3483511D01*
X23876000Y3432000D01*
X23876000Y-64392000D01*
X23856315Y-64459039D01*
X23803511Y-64504794D01*
X23752000Y-64516000D01*
X-3432000Y-64516000D01*
X-3499039Y-64496315D01*
X-3544794Y-64443511D01*
X-3556000Y-64392000D01*
X-3556000Y-60960000D01*
X1430768Y-60960000D01*
X1449654Y-61163816D01*
X1505673Y-61360704D01*
X1596912Y-61543935D01*
X1720269Y-61707287D01*
X1871537Y-61845185D01*
X1871539Y-61845187D01*
X2045569Y-61952942D01*
X2045575Y-61952945D01*
X2068810Y-61961946D01*
X2236444Y-62026888D01*
X2437653Y-62064500D01*
X2437656Y-62064500D01*
X2642344Y-62064500D01*
X2642347Y-62064500D01*
X2843556Y-62026888D01*
X3034427Y-61952944D01*
X3208462Y-61845186D01*
X3359732Y-61707285D01*
X3483088Y-61543935D01*
X3574328Y-61360701D01*
X3630345Y-61163821D01*
X3649232Y-60960000D01*
X5875768Y-60960000D01*
X5894654Y-61163816D01*
X5950673Y-61360704D01*
X6041912Y-61543935D01*
X6165269Y-61707287D01*
X6316537Y-61845185D01*
X6316539Y-61845187D01*
X6490569Y-61952942D01*
X6490575Y-61952945D01*
X6513810Y-61961946D01*
X6681444Y-62026888D01*
X6882653Y-62064500D01*
X6882656Y-62064500D01*
X7087344Y-62064500D01*
X7087347Y-62064500D01*
X7288556Y-62026888D01*
X7429227Y-61972390D01*
X7433211Y-61971003D01*
X7445390Y-61967230D01*
X7449013Y-61965264D01*
X7456164Y-61961955D01*
X7479427Y-61952944D01*
X7532190Y-61920273D01*
X7535234Y-61918507D01*
X7670446Y-61845185D01*
X7738463Y-61808301D01*
X7738462Y-61808301D01*
X7749055Y-61801884D01*
X7749056Y-61801883D01*
X7749056Y-61801884D01*
X7761209Y-61793705D01*
X7761210Y-61793704D01*
X7761209Y-61793704D01*
X7761219Y-61793698D01*
X7771213Y-61786252D01*
X7771216Y-61786250D01*
X7771215Y-61786251D01*
X7975617Y-61618106D01*
X8109177Y-61505098D01*
X8135492Y-61488029D01*
X8245293Y-61435186D01*
X8284397Y-61423792D01*
X8535367Y-61393908D01*
X8535381Y-61393903D01*
X8540425Y-61392872D01*
X8540547Y-61393471D01*
X8568204Y-61389500D01*
X18255871Y-61389500D01*
X18256387Y-61389480D01*
X18358005Y-61389482D01*
X18629164Y-61358933D01*
X18629171Y-61358931D01*
X18629180Y-61358930D01*
X18814785Y-61316568D01*
X18895198Y-61298216D01*
X19152761Y-61208094D01*
X19398614Y-61089701D01*
X19466847Y-61046827D01*
X19491768Y-61034814D01*
X19495017Y-61033673D01*
X19495027Y-61033671D01*
X19738324Y-60920431D01*
X19764436Y-60911654D01*
X19920735Y-60877861D01*
X19938767Y-60875332D01*
X20121342Y-60863274D01*
X20129783Y-60862447D01*
X20373213Y-60830981D01*
X20384737Y-60828960D01*
X20384734Y-60828960D01*
X20384736Y-60828959D01*
X20384739Y-60828959D01*
X20398216Y-60825964D01*
X20404153Y-60824360D01*
X20409509Y-60822914D01*
X20477888Y-60801095D01*
X20602710Y-60761268D01*
X20610161Y-60759391D01*
X20623556Y-60756888D01*
X20655036Y-60744691D01*
X20658531Y-60743457D01*
X20717041Y-60724790D01*
X20722871Y-60722667D01*
X20733122Y-60718686D01*
X20737011Y-60716093D01*
X20760997Y-60703642D01*
X20814427Y-60682944D01*
X20988462Y-60575186D01*
X21139732Y-60437285D01*
X21263088Y-60273935D01*
X21354328Y-60090701D01*
X21410345Y-59893821D01*
X21429232Y-59690000D01*
X21410345Y-59486179D01*
X21354328Y-59289299D01*
X21263088Y-59106065D01*
X21139732Y-58942715D01*
X21139730Y-58942712D01*
X20988462Y-58804814D01*
X20988460Y-58804812D01*
X20814430Y-58697057D01*
X20814424Y-58697054D01*
X20625373Y-58623816D01*
X20623556Y-58623112D01*
X20422347Y-58585500D01*
X20217653Y-58585500D01*
X20016444Y-58623112D01*
X20016441Y-58623112D01*
X20016441Y-58623113D01*
X19825575Y-58697054D01*
X19825569Y-58697057D01*
X19651539Y-58804812D01*
X19651537Y-58804814D01*
X19500269Y-58942712D01*
X19376912Y-59106064D01*
X19285672Y-59289297D01*
X19285669Y-59289303D01*
X19229655Y-59486175D01*
X19229655Y-59486176D01*
X19225104Y-59535283D01*
X19222156Y-59552998D01*
X19208405Y-59609835D01*
X19205538Y-59626204D01*
X19205537Y-59626212D01*
X19205537Y-59626213D01*
X19203398Y-59645699D01*
X19203398Y-59645700D01*
X19202645Y-59662290D01*
X19207511Y-59922187D01*
X19212691Y-60069559D01*
X19206342Y-60113314D01*
X19198249Y-60137465D01*
X19161217Y-60192347D01*
X19036111Y-60299222D01*
X19035826Y-60298889D01*
X19023669Y-60308828D01*
X19010204Y-60317825D01*
X19003171Y-60321885D01*
X18826230Y-60409140D01*
X18818729Y-60412247D01*
X18631906Y-60475663D01*
X18624063Y-60477765D01*
X18430558Y-60516253D01*
X18422509Y-60517312D01*
X18223304Y-60530366D01*
X18219249Y-60530499D01*
X18149838Y-60530499D01*
X18149826Y-60530500D01*
X8568588Y-60530500D01*
X8541571Y-60526211D01*
X8541310Y-60527400D01*
X8535360Y-60526089D01*
X8284399Y-60496205D01*
X8245289Y-60484809D01*
X8135501Y-60431972D01*
X8109180Y-60414900D01*
X7975617Y-60301893D01*
X7771207Y-60133741D01*
X7771206Y-60133740D01*
X7761186Y-60126276D01*
X7761187Y-60126277D01*
X7761179Y-60126271D01*
X7749022Y-60118093D01*
X7749018Y-60118090D01*
X7738454Y-60111693D01*
X7738455Y-60111694D01*
X7535240Y-60001493D01*
X7532156Y-59999704D01*
X7479432Y-59967059D01*
X7479430Y-59967058D01*
X7479427Y-59967056D01*
X7479425Y-59967055D01*
X7479423Y-59967054D01*
X7456184Y-59958050D01*
X7449026Y-59954740D01*
X7442478Y-59951190D01*
X7436564Y-59948176D01*
X7436560Y-59948174D01*
X7432483Y-59946226D01*
X7420144Y-59940719D01*
X7420140Y-59940718D01*
X7420138Y-59940717D01*
X7412652Y-59939220D01*
X7392182Y-59933256D01*
X7288561Y-59893113D01*
X7288556Y-59893112D01*
X7087347Y-59855500D01*
X6882653Y-59855500D01*
X6681444Y-59893112D01*
X6681441Y-59893112D01*
X6681441Y-59893113D01*
X6490575Y-59967054D01*
X6490569Y-59967057D01*
X6316539Y-60074812D01*
X6316537Y-60074814D01*
X6165269Y-60212712D01*
X6041912Y-60376064D01*
X5950673Y-60559295D01*
X5950671Y-60559299D01*
X5950672Y-60559299D01*
X5898279Y-60743444D01*
X5894654Y-60756183D01*
X5875768Y-60959999D01*
X5875768Y-60960000D01*
X3649232Y-60960000D01*
X3630345Y-60756179D01*
X3574328Y-60559299D01*
X3483088Y-60376065D01*
X3359732Y-60212715D01*
X3359730Y-60212712D01*
X3208462Y-60074814D01*
X3208460Y-60074812D01*
X3034430Y-59967057D01*
X3034424Y-59967054D01*
X2845373Y-59893816D01*
X2843556Y-59893112D01*
X2642347Y-59855500D01*
X2437653Y-59855500D01*
X2236444Y-59893112D01*
X2236441Y-59893112D01*
X2236441Y-59893113D01*
X2045575Y-59967054D01*
X2045569Y-59967057D01*
X1871539Y-60074812D01*
X1871537Y-60074814D01*
X1720269Y-60212712D01*
X1596912Y-60376064D01*
X1505673Y-60559295D01*
X1505671Y-60559299D01*
X1505672Y-60559299D01*
X1453279Y-60743444D01*
X1449654Y-60756183D01*
X1430768Y-60959999D01*
X1430768Y-60960000D01*
X-3556000Y-60960000D01*
X-3556000Y-58420000D01*
X1430768Y-58420000D01*
X1449654Y-58623816D01*
X1449654Y-58623818D01*
X1449655Y-58623821D01*
X1487893Y-58758213D01*
X1505673Y-58820704D01*
X1596912Y-59003935D01*
X1720269Y-59167287D01*
X1871537Y-59305185D01*
X1871539Y-59305187D01*
X2045569Y-59412942D01*
X2045575Y-59412945D01*
X2068810Y-59421946D01*
X2236444Y-59486888D01*
X2437653Y-59524500D01*
X2437656Y-59524500D01*
X2642344Y-59524500D01*
X2642347Y-59524500D01*
X2843556Y-59486888D01*
X3034427Y-59412944D01*
X3208462Y-59305186D01*
X3359732Y-59167285D01*
X3483088Y-59003935D01*
X3574328Y-58820701D01*
X3630345Y-58623821D01*
X3649232Y-58420000D01*
X7780768Y-58420000D01*
X7799654Y-58623816D01*
X7799654Y-58623818D01*
X7799655Y-58623821D01*
X7837893Y-58758213D01*
X7855673Y-58820704D01*
X7946912Y-59003935D01*
X8070269Y-59167287D01*
X8221537Y-59305185D01*
X8221539Y-59305187D01*
X8395569Y-59412942D01*
X8395575Y-59412945D01*
X8418810Y-59421946D01*
X8586444Y-59486888D01*
X8787653Y-59524500D01*
X8787656Y-59524500D01*
X8992344Y-59524500D01*
X8992347Y-59524500D01*
X9193556Y-59486888D01*
X9334227Y-59432390D01*
X9338211Y-59431003D01*
X9350390Y-59427230D01*
X9354013Y-59425264D01*
X9361164Y-59421955D01*
X9384427Y-59412944D01*
X9437190Y-59380273D01*
X9440234Y-59378507D01*
X9575446Y-59305185D01*
X9643463Y-59268301D01*
X9643462Y-59268301D01*
X9654055Y-59261884D01*
X9654056Y-59261883D01*
X9654056Y-59261884D01*
X9666209Y-59253705D01*
X9666210Y-59253704D01*
X9666209Y-59253704D01*
X9666219Y-59253698D01*
X9676213Y-59246252D01*
X9676216Y-59246250D01*
X9676215Y-59246251D01*
X9880617Y-59078106D01*
X10014177Y-58965098D01*
X10040492Y-58948029D01*
X10150293Y-58895186D01*
X10189397Y-58883792D01*
X10440367Y-58853908D01*
X10440381Y-58853903D01*
X10445425Y-58852872D01*
X10445547Y-58853471D01*
X10473204Y-58849500D01*
X18255871Y-58849500D01*
X18256387Y-58849480D01*
X18358005Y-58849482D01*
X18629164Y-58818933D01*
X18629171Y-58818931D01*
X18629180Y-58818930D01*
X18814785Y-58776568D01*
X18895198Y-58758216D01*
X19152761Y-58668094D01*
X19398614Y-58549701D01*
X19466847Y-58506827D01*
X19491768Y-58494814D01*
X19495017Y-58493673D01*
X19495027Y-58493671D01*
X19738324Y-58380431D01*
X19764436Y-58371654D01*
X19920735Y-58337861D01*
X19938767Y-58335332D01*
X20121342Y-58323274D01*
X20129783Y-58322447D01*
X20373213Y-58290981D01*
X20384737Y-58288960D01*
X20384734Y-58288960D01*
X20384736Y-58288959D01*
X20384739Y-58288959D01*
X20398216Y-58285964D01*
X20404153Y-58284360D01*
X20409509Y-58282914D01*
X20477888Y-58261095D01*
X20602710Y-58221268D01*
X20610161Y-58219391D01*
X20623556Y-58216888D01*
X20655036Y-58204691D01*
X20658531Y-58203457D01*
X20717041Y-58184790D01*
X20722871Y-58182667D01*
X20733122Y-58178686D01*
X20737011Y-58176093D01*
X20760997Y-58163642D01*
X20814427Y-58142944D01*
X20988462Y-58035186D01*
X21139732Y-57897285D01*
X21263088Y-57733935D01*
X21354328Y-57550701D01*
X21410345Y-57353821D01*
X21429232Y-57150000D01*
X21410345Y-56946179D01*
X21354328Y-56749299D01*
X21263088Y-56566065D01*
X21139732Y-56402715D01*
X21139730Y-56402712D01*
X20988462Y-56264814D01*
X20988460Y-56264812D01*
X20814430Y-56157057D01*
X20814424Y-56157054D01*
X20625373Y-56083816D01*
X20623556Y-56083112D01*
X20422347Y-56045500D01*
X20217653Y-56045500D01*
X20016444Y-56083112D01*
X20016441Y-56083112D01*
X20016441Y-56083113D01*
X19825575Y-56157054D01*
X19825569Y-56157057D01*
X19651539Y-56264812D01*
X19651537Y-56264814D01*
X19500269Y-56402712D01*
X19376912Y-56566064D01*
X19285672Y-56749297D01*
X19285669Y-56749303D01*
X19229655Y-56946175D01*
X19229655Y-56946176D01*
X19225104Y-56995283D01*
X19222156Y-57012998D01*
X19208405Y-57069835D01*
X19205538Y-57086204D01*
X19205537Y-57086212D01*
X19205537Y-57086213D01*
X19203398Y-57105699D01*
X19203398Y-57105700D01*
X19202645Y-57122290D01*
X19207511Y-57382187D01*
X19212691Y-57529559D01*
X19206342Y-57573314D01*
X19198249Y-57597465D01*
X19161217Y-57652347D01*
X19036111Y-57759222D01*
X19035826Y-57758889D01*
X19023669Y-57768828D01*
X19010204Y-57777825D01*
X19003171Y-57781885D01*
X18826230Y-57869140D01*
X18818729Y-57872247D01*
X18631906Y-57935663D01*
X18624063Y-57937765D01*
X18430558Y-57976253D01*
X18422509Y-57977312D01*
X18223304Y-57990366D01*
X18219249Y-57990499D01*
X18149838Y-57990499D01*
X18149826Y-57990500D01*
X10473588Y-57990500D01*
X10446571Y-57986211D01*
X10446310Y-57987400D01*
X10440360Y-57986089D01*
X10189399Y-57956205D01*
X10150289Y-57944809D01*
X10040501Y-57891972D01*
X10014180Y-57874900D01*
X9880617Y-57761893D01*
X9676207Y-57593741D01*
X9676206Y-57593740D01*
X9666186Y-57586276D01*
X9666187Y-57586277D01*
X9666179Y-57586271D01*
X9654022Y-57578093D01*
X9654018Y-57578090D01*
X9643454Y-57571693D01*
X9643455Y-57571694D01*
X9440240Y-57461493D01*
X9437156Y-57459704D01*
X9384432Y-57427059D01*
X9384430Y-57427058D01*
X9384427Y-57427056D01*
X9384425Y-57427055D01*
X9384423Y-57427054D01*
X9361184Y-57418050D01*
X9354026Y-57414740D01*
X9347478Y-57411190D01*
X9341564Y-57408176D01*
X9341560Y-57408174D01*
X9337483Y-57406226D01*
X9325144Y-57400719D01*
X9325140Y-57400718D01*
X9325138Y-57400717D01*
X9317652Y-57399220D01*
X9297182Y-57393256D01*
X9193561Y-57353113D01*
X9193556Y-57353112D01*
X8992347Y-57315500D01*
X8787653Y-57315500D01*
X8586444Y-57353112D01*
X8586441Y-57353112D01*
X8586441Y-57353113D01*
X8395575Y-57427054D01*
X8395569Y-57427057D01*
X8221539Y-57534812D01*
X8221537Y-57534814D01*
X8070269Y-57672712D01*
X7946912Y-57836064D01*
X7855673Y-58019295D01*
X7855671Y-58019299D01*
X7855672Y-58019299D01*
X7803279Y-58203444D01*
X7799654Y-58216183D01*
X7780768Y-58419999D01*
X7780768Y-58420000D01*
X3649232Y-58420000D01*
X3630345Y-58216179D01*
X3574328Y-58019299D01*
X3483088Y-57836065D01*
X3359732Y-57672715D01*
X3359730Y-57672712D01*
X3208462Y-57534814D01*
X3208460Y-57534812D01*
X3034430Y-57427057D01*
X3034424Y-57427054D01*
X2845373Y-57353816D01*
X2843556Y-57353112D01*
X2642347Y-57315500D01*
X2437653Y-57315500D01*
X2236444Y-57353112D01*
X2236441Y-57353112D01*
X2236441Y-57353113D01*
X2045575Y-57427054D01*
X2045569Y-57427057D01*
X1871539Y-57534812D01*
X1871537Y-57534814D01*
X1720269Y-57672712D01*
X1596912Y-57836064D01*
X1505673Y-58019295D01*
X1505671Y-58019299D01*
X1505672Y-58019299D01*
X1453279Y-58203444D01*
X1449654Y-58216183D01*
X1430768Y-58419999D01*
X1430768Y-58420000D01*
X-3556000Y-58420000D01*
X-3556000Y-55880000D01*
X1430768Y-55880000D01*
X1449654Y-56083816D01*
X1449654Y-56083818D01*
X1449655Y-56083821D01*
X1487893Y-56218213D01*
X1505673Y-56280704D01*
X1596912Y-56463935D01*
X1720269Y-56627287D01*
X1871537Y-56765185D01*
X1871539Y-56765187D01*
X2045569Y-56872942D01*
X2045575Y-56872945D01*
X2068810Y-56881946D01*
X2236444Y-56946888D01*
X2437653Y-56984500D01*
X2437656Y-56984500D01*
X2642344Y-56984500D01*
X2642347Y-56984500D01*
X2843556Y-56946888D01*
X2984227Y-56892390D01*
X2988211Y-56891003D01*
X3000390Y-56887230D01*
X3004013Y-56885264D01*
X3011164Y-56881955D01*
X3034427Y-56872944D01*
X3087190Y-56840273D01*
X3090234Y-56838507D01*
X3225446Y-56765185D01*
X3293463Y-56728301D01*
X3293462Y-56728301D01*
X3304055Y-56721884D01*
X3304056Y-56721883D01*
X3304056Y-56721884D01*
X3316209Y-56713705D01*
X3316210Y-56713704D01*
X3316209Y-56713704D01*
X3316219Y-56713698D01*
X3326213Y-56706252D01*
X3326216Y-56706250D01*
X3326215Y-56706251D01*
X3530617Y-56538106D01*
X3664177Y-56425098D01*
X3690492Y-56408029D01*
X3800293Y-56355186D01*
X3839397Y-56343792D01*
X4090367Y-56313908D01*
X4090381Y-56313903D01*
X4095425Y-56312872D01*
X4095547Y-56313471D01*
X4123204Y-56309500D01*
X18255871Y-56309500D01*
X18256387Y-56309480D01*
X18358005Y-56309482D01*
X18629164Y-56278933D01*
X18629171Y-56278931D01*
X18629180Y-56278930D01*
X18814785Y-56236568D01*
X18895198Y-56218216D01*
X19152761Y-56128094D01*
X19398614Y-56009701D01*
X19466847Y-55966827D01*
X19491768Y-55954814D01*
X19495017Y-55953673D01*
X19495027Y-55953671D01*
X19738324Y-55840431D01*
X19764436Y-55831654D01*
X19920735Y-55797861D01*
X19938767Y-55795332D01*
X20121342Y-55783274D01*
X20129783Y-55782447D01*
X20373213Y-55750981D01*
X20384737Y-55748960D01*
X20384734Y-55748960D01*
X20384736Y-55748959D01*
X20384739Y-55748959D01*
X20398216Y-55745964D01*
X20404153Y-55744360D01*
X20409509Y-55742914D01*
X20477888Y-55721095D01*
X20602710Y-55681268D01*
X20610161Y-55679391D01*
X20623556Y-55676888D01*
X20655036Y-55664691D01*
X20658531Y-55663457D01*
X20717041Y-55644790D01*
X20722871Y-55642667D01*
X20733122Y-55638686D01*
X20737011Y-55636093D01*
X20760997Y-55623642D01*
X20814427Y-55602944D01*
X20988462Y-55495186D01*
X21139732Y-55357285D01*
X21263088Y-55193935D01*
X21354328Y-55010701D01*
X21410345Y-54813821D01*
X21429232Y-54610000D01*
X21410345Y-54406179D01*
X21354328Y-54209299D01*
X21263088Y-54026065D01*
X21139732Y-53862715D01*
X21139730Y-53862712D01*
X20988462Y-53724814D01*
X20988460Y-53724812D01*
X20814430Y-53617057D01*
X20814424Y-53617054D01*
X20625373Y-53543816D01*
X20623556Y-53543112D01*
X20422347Y-53505500D01*
X20217653Y-53505500D01*
X20016444Y-53543112D01*
X20016441Y-53543112D01*
X20016441Y-53543113D01*
X19825575Y-53617054D01*
X19825569Y-53617057D01*
X19651539Y-53724812D01*
X19651537Y-53724814D01*
X19500269Y-53862712D01*
X19376912Y-54026064D01*
X19285672Y-54209297D01*
X19285669Y-54209303D01*
X19229655Y-54406175D01*
X19229655Y-54406176D01*
X19225104Y-54455283D01*
X19222156Y-54472998D01*
X19208405Y-54529835D01*
X19205538Y-54546204D01*
X19205537Y-54546212D01*
X19205537Y-54546213D01*
X19203398Y-54565699D01*
X19203398Y-54565700D01*
X19202645Y-54582290D01*
X19207511Y-54842187D01*
X19212691Y-54989559D01*
X19206342Y-55033314D01*
X19198249Y-55057465D01*
X19161217Y-55112347D01*
X19036111Y-55219222D01*
X19035826Y-55218889D01*
X19023669Y-55228828D01*
X19010204Y-55237825D01*
X19003171Y-55241885D01*
X18826230Y-55329140D01*
X18818729Y-55332247D01*
X18631906Y-55395663D01*
X18624063Y-55397765D01*
X18430558Y-55436253D01*
X18422509Y-55437312D01*
X18223304Y-55450366D01*
X18219249Y-55450499D01*
X18149838Y-55450499D01*
X18149826Y-55450500D01*
X4123588Y-55450500D01*
X4096571Y-55446211D01*
X4096310Y-55447400D01*
X4090360Y-55446089D01*
X3839399Y-55416205D01*
X3800289Y-55404809D01*
X3690501Y-55351972D01*
X3664180Y-55334900D01*
X3530617Y-55221893D01*
X3326207Y-55053741D01*
X3326206Y-55053740D01*
X3316186Y-55046276D01*
X3316187Y-55046277D01*
X3316179Y-55046271D01*
X3304022Y-55038093D01*
X3304018Y-55038090D01*
X3293454Y-55031693D01*
X3293455Y-55031694D01*
X3090240Y-54921493D01*
X3087156Y-54919704D01*
X3034432Y-54887059D01*
X3034430Y-54887058D01*
X3034427Y-54887056D01*
X3034425Y-54887055D01*
X3034423Y-54887054D01*
X3011184Y-54878050D01*
X3004026Y-54874740D01*
X2997478Y-54871190D01*
X2991564Y-54868176D01*
X2991560Y-54868174D01*
X2987483Y-54866226D01*
X2975144Y-54860719D01*
X2975140Y-54860718D01*
X2975138Y-54860717D01*
X2967652Y-54859220D01*
X2947182Y-54853256D01*
X2843561Y-54813113D01*
X2843556Y-54813112D01*
X2642347Y-54775500D01*
X2437653Y-54775500D01*
X2236444Y-54813112D01*
X2236441Y-54813112D01*
X2236441Y-54813113D01*
X2045575Y-54887054D01*
X2045569Y-54887057D01*
X1871539Y-54994812D01*
X1871537Y-54994814D01*
X1720269Y-55132712D01*
X1596912Y-55296064D01*
X1505673Y-55479295D01*
X1505671Y-55479299D01*
X1505672Y-55479299D01*
X1453279Y-55663444D01*
X1449654Y-55676183D01*
X1430768Y-55879999D01*
X1430768Y-55880000D01*
X-3556000Y-55880000D01*
X-3556000Y-53340000D01*
X1430768Y-53340000D01*
X1449654Y-53543816D01*
X1449654Y-53543818D01*
X1449655Y-53543821D01*
X1487893Y-53678213D01*
X1505673Y-53740704D01*
X1596912Y-53923935D01*
X1720269Y-54087287D01*
X1871537Y-54225185D01*
X1871539Y-54225187D01*
X2045569Y-54332942D01*
X2045575Y-54332945D01*
X2068810Y-54341946D01*
X2236444Y-54406888D01*
X2437653Y-54444500D01*
X2437656Y-54444500D01*
X2642344Y-54444500D01*
X2642347Y-54444500D01*
X2843556Y-54406888D01*
X2984227Y-54352390D01*
X2988211Y-54351003D01*
X3000390Y-54347230D01*
X3004013Y-54345264D01*
X3011164Y-54341955D01*
X3034427Y-54332944D01*
X3087190Y-54300273D01*
X3090234Y-54298507D01*
X3225446Y-54225185D01*
X3293463Y-54188301D01*
X3293462Y-54188301D01*
X3304055Y-54181884D01*
X3304056Y-54181883D01*
X3304056Y-54181884D01*
X3316209Y-54173705D01*
X3316210Y-54173704D01*
X3316209Y-54173704D01*
X3316219Y-54173698D01*
X3326213Y-54166252D01*
X3326216Y-54166250D01*
X3326215Y-54166251D01*
X3530617Y-53998106D01*
X3664177Y-53885098D01*
X3690492Y-53868029D01*
X3800293Y-53815186D01*
X3839397Y-53803792D01*
X4090367Y-53773908D01*
X4090381Y-53773903D01*
X4095425Y-53772872D01*
X4095547Y-53773471D01*
X4123204Y-53769500D01*
X18255871Y-53769500D01*
X18256387Y-53769480D01*
X18358005Y-53769482D01*
X18629164Y-53738933D01*
X18629171Y-53738931D01*
X18629180Y-53738930D01*
X18814785Y-53696568D01*
X18895198Y-53678216D01*
X19152761Y-53588094D01*
X19398614Y-53469701D01*
X19466847Y-53426827D01*
X19491768Y-53414814D01*
X19495017Y-53413673D01*
X19495027Y-53413671D01*
X19738324Y-53300431D01*
X19764436Y-53291654D01*
X19920735Y-53257861D01*
X19938767Y-53255332D01*
X20121342Y-53243274D01*
X20129783Y-53242447D01*
X20373213Y-53210981D01*
X20384737Y-53208960D01*
X20384734Y-53208960D01*
X20384736Y-53208959D01*
X20384739Y-53208959D01*
X20398216Y-53205964D01*
X20404153Y-53204360D01*
X20409509Y-53202914D01*
X20477888Y-53181095D01*
X20602710Y-53141268D01*
X20610161Y-53139391D01*
X20623556Y-53136888D01*
X20655036Y-53124691D01*
X20658531Y-53123457D01*
X20717041Y-53104790D01*
X20722871Y-53102667D01*
X20733122Y-53098686D01*
X20737011Y-53096093D01*
X20760997Y-53083642D01*
X20814427Y-53062944D01*
X20988462Y-52955186D01*
X21139732Y-52817285D01*
X21263088Y-52653935D01*
X21354328Y-52470701D01*
X21410345Y-52273821D01*
X21429232Y-52070000D01*
X21410345Y-51866179D01*
X21354328Y-51669299D01*
X21263088Y-51486065D01*
X21139732Y-51322715D01*
X21139730Y-51322712D01*
X20988462Y-51184814D01*
X20988460Y-51184812D01*
X20814430Y-51077057D01*
X20814424Y-51077054D01*
X20625373Y-51003816D01*
X20623556Y-51003112D01*
X20422347Y-50965500D01*
X20217653Y-50965500D01*
X20016444Y-51003112D01*
X20016441Y-51003112D01*
X20016441Y-51003113D01*
X19825575Y-51077054D01*
X19825569Y-51077057D01*
X19651539Y-51184812D01*
X19651537Y-51184814D01*
X19500269Y-51322712D01*
X19376912Y-51486064D01*
X19285672Y-51669297D01*
X19285669Y-51669303D01*
X19229655Y-51866175D01*
X19229655Y-51866176D01*
X19225104Y-51915283D01*
X19222156Y-51932998D01*
X19208405Y-51989835D01*
X19205538Y-52006204D01*
X19205537Y-52006212D01*
X19205537Y-52006213D01*
X19203398Y-52025699D01*
X19203398Y-52025700D01*
X19202645Y-52042290D01*
X19207511Y-52302187D01*
X19212691Y-52449559D01*
X19206342Y-52493314D01*
X19198249Y-52517465D01*
X19161217Y-52572347D01*
X19036111Y-52679222D01*
X19035826Y-52678889D01*
X19023669Y-52688828D01*
X19010204Y-52697825D01*
X19003171Y-52701885D01*
X18826230Y-52789140D01*
X18818729Y-52792247D01*
X18631906Y-52855663D01*
X18624063Y-52857765D01*
X18430558Y-52896253D01*
X18422509Y-52897312D01*
X18223304Y-52910366D01*
X18219249Y-52910499D01*
X18149838Y-52910499D01*
X18149826Y-52910500D01*
X4123588Y-52910500D01*
X4096571Y-52906211D01*
X4096310Y-52907400D01*
X4090360Y-52906089D01*
X3839399Y-52876205D01*
X3800289Y-52864809D01*
X3690501Y-52811972D01*
X3664180Y-52794900D01*
X3530617Y-52681893D01*
X3326207Y-52513741D01*
X3326206Y-52513740D01*
X3316186Y-52506276D01*
X3316187Y-52506277D01*
X3316179Y-52506271D01*
X3304022Y-52498093D01*
X3304018Y-52498090D01*
X3293454Y-52491693D01*
X3293455Y-52491694D01*
X3090240Y-52381493D01*
X3087156Y-52379704D01*
X3034432Y-52347059D01*
X3034430Y-52347058D01*
X3034427Y-52347056D01*
X3034425Y-52347055D01*
X3034423Y-52347054D01*
X3011184Y-52338050D01*
X3004026Y-52334740D01*
X2997478Y-52331190D01*
X2991564Y-52328176D01*
X2991560Y-52328174D01*
X2987483Y-52326226D01*
X2975144Y-52320719D01*
X2975140Y-52320718D01*
X2975138Y-52320717D01*
X2967652Y-52319220D01*
X2947182Y-52313256D01*
X2843561Y-52273113D01*
X2843556Y-52273112D01*
X2642347Y-52235500D01*
X2437653Y-52235500D01*
X2236444Y-52273112D01*
X2236441Y-52273112D01*
X2236441Y-52273113D01*
X2045575Y-52347054D01*
X2045569Y-52347057D01*
X1871539Y-52454812D01*
X1871537Y-52454814D01*
X1720269Y-52592712D01*
X1596912Y-52756064D01*
X1505673Y-52939295D01*
X1505671Y-52939299D01*
X1505672Y-52939299D01*
X1453279Y-53123444D01*
X1449654Y-53136183D01*
X1430768Y-53339999D01*
X1430768Y-53340000D01*
X-3556000Y-53340000D01*
X-3556000Y-50800000D01*
X1430768Y-50800000D01*
X1449654Y-51003816D01*
X1449654Y-51003818D01*
X1449655Y-51003821D01*
X1487893Y-51138213D01*
X1505673Y-51200704D01*
X1596912Y-51383935D01*
X1720269Y-51547287D01*
X1871537Y-51685185D01*
X1871539Y-51685187D01*
X2045569Y-51792942D01*
X2045575Y-51792945D01*
X2068810Y-51801946D01*
X2236444Y-51866888D01*
X2437653Y-51904500D01*
X2437656Y-51904500D01*
X2642344Y-51904500D01*
X2642347Y-51904500D01*
X2843556Y-51866888D01*
X2984227Y-51812390D01*
X2988211Y-51811003D01*
X3000390Y-51807230D01*
X3004013Y-51805264D01*
X3011164Y-51801955D01*
X3034427Y-51792944D01*
X3087190Y-51760273D01*
X3090234Y-51758507D01*
X3225446Y-51685185D01*
X3293463Y-51648301D01*
X3293462Y-51648301D01*
X3304055Y-51641884D01*
X3304056Y-51641883D01*
X3304056Y-51641884D01*
X3316209Y-51633705D01*
X3316210Y-51633704D01*
X3316209Y-51633704D01*
X3316219Y-51633698D01*
X3326213Y-51626252D01*
X3326216Y-51626250D01*
X3326215Y-51626251D01*
X3530617Y-51458106D01*
X3664177Y-51345098D01*
X3690492Y-51328029D01*
X3800293Y-51275186D01*
X3839397Y-51263792D01*
X4090367Y-51233908D01*
X4090381Y-51233903D01*
X4095425Y-51232872D01*
X4095547Y-51233471D01*
X4123204Y-51229500D01*
X18255871Y-51229500D01*
X18256387Y-51229480D01*
X18358005Y-51229482D01*
X18629164Y-51198933D01*
X18629171Y-51198931D01*
X18629180Y-51198930D01*
X18814785Y-51156568D01*
X18895198Y-51138216D01*
X19152761Y-51048094D01*
X19398614Y-50929701D01*
X19466847Y-50886827D01*
X19491768Y-50874814D01*
X19495017Y-50873673D01*
X19495027Y-50873671D01*
X19738324Y-50760431D01*
X19764436Y-50751654D01*
X19920735Y-50717861D01*
X19938767Y-50715332D01*
X20121342Y-50703274D01*
X20129783Y-50702447D01*
X20373213Y-50670981D01*
X20384737Y-50668960D01*
X20384734Y-50668960D01*
X20384736Y-50668959D01*
X20384739Y-50668959D01*
X20398216Y-50665964D01*
X20404153Y-50664360D01*
X20409509Y-50662914D01*
X20477888Y-50641095D01*
X20602710Y-50601268D01*
X20610161Y-50599391D01*
X20623556Y-50596888D01*
X20655036Y-50584691D01*
X20658531Y-50583457D01*
X20717041Y-50564790D01*
X20722871Y-50562667D01*
X20733122Y-50558686D01*
X20737011Y-50556093D01*
X20760997Y-50543642D01*
X20814427Y-50522944D01*
X20988462Y-50415186D01*
X21139732Y-50277285D01*
X21263088Y-50113935D01*
X21354328Y-49930701D01*
X21410345Y-49733821D01*
X21429232Y-49530000D01*
X21410345Y-49326179D01*
X21354328Y-49129299D01*
X21263088Y-48946065D01*
X21139732Y-48782715D01*
X21139730Y-48782712D01*
X20988462Y-48644814D01*
X20988460Y-48644812D01*
X20814430Y-48537057D01*
X20814424Y-48537054D01*
X20625373Y-48463816D01*
X20623556Y-48463112D01*
X20422347Y-48425500D01*
X20217653Y-48425500D01*
X20016444Y-48463112D01*
X20016441Y-48463112D01*
X20016441Y-48463113D01*
X19825575Y-48537054D01*
X19825569Y-48537057D01*
X19651539Y-48644812D01*
X19651537Y-48644814D01*
X19500269Y-48782712D01*
X19376912Y-48946064D01*
X19285672Y-49129297D01*
X19285669Y-49129303D01*
X19229655Y-49326175D01*
X19229655Y-49326176D01*
X19225104Y-49375283D01*
X19222156Y-49392998D01*
X19208405Y-49449835D01*
X19205538Y-49466204D01*
X19205537Y-49466212D01*
X19205537Y-49466213D01*
X19203398Y-49485699D01*
X19203398Y-49485700D01*
X19202645Y-49502290D01*
X19207511Y-49762187D01*
X19212691Y-49909559D01*
X19206342Y-49953314D01*
X19198249Y-49977465D01*
X19161217Y-50032347D01*
X19036111Y-50139222D01*
X19035826Y-50138889D01*
X19023669Y-50148828D01*
X19010204Y-50157825D01*
X19003171Y-50161885D01*
X18826230Y-50249140D01*
X18818729Y-50252247D01*
X18631906Y-50315663D01*
X18624063Y-50317765D01*
X18430558Y-50356253D01*
X18422509Y-50357312D01*
X18223304Y-50370366D01*
X18219249Y-50370499D01*
X18149838Y-50370499D01*
X18149826Y-50370500D01*
X4123588Y-50370500D01*
X4096571Y-50366211D01*
X4096310Y-50367400D01*
X4090360Y-50366089D01*
X3839399Y-50336205D01*
X3800289Y-50324809D01*
X3690501Y-50271972D01*
X3664180Y-50254900D01*
X3530617Y-50141893D01*
X3326207Y-49973741D01*
X3326206Y-49973740D01*
X3316186Y-49966276D01*
X3316187Y-49966277D01*
X3316179Y-49966271D01*
X3304022Y-49958093D01*
X3304018Y-49958090D01*
X3293454Y-49951693D01*
X3293455Y-49951694D01*
X3090240Y-49841493D01*
X3087156Y-49839704D01*
X3034432Y-49807059D01*
X3034430Y-49807058D01*
X3034427Y-49807056D01*
X3034425Y-49807055D01*
X3034423Y-49807054D01*
X3011184Y-49798050D01*
X3004026Y-49794740D01*
X2997478Y-49791190D01*
X2991564Y-49788176D01*
X2991560Y-49788174D01*
X2987483Y-49786226D01*
X2975144Y-49780719D01*
X2975140Y-49780718D01*
X2975138Y-49780717D01*
X2967652Y-49779220D01*
X2947182Y-49773256D01*
X2843561Y-49733113D01*
X2843556Y-49733112D01*
X2642347Y-49695500D01*
X2437653Y-49695500D01*
X2236444Y-49733112D01*
X2236441Y-49733112D01*
X2236441Y-49733113D01*
X2045575Y-49807054D01*
X2045569Y-49807057D01*
X1871539Y-49914812D01*
X1871537Y-49914814D01*
X1720269Y-50052712D01*
X1596912Y-50216064D01*
X1505673Y-50399295D01*
X1505671Y-50399299D01*
X1505672Y-50399299D01*
X1453279Y-50583444D01*
X1449654Y-50596183D01*
X1430768Y-50799999D01*
X1430768Y-50800000D01*
X-3556000Y-50800000D01*
X-3556000Y-48260000D01*
X1430768Y-48260000D01*
X1449654Y-48463816D01*
X1449654Y-48463818D01*
X1449655Y-48463821D01*
X1487893Y-48598213D01*
X1505673Y-48660704D01*
X1596912Y-48843935D01*
X1720269Y-49007287D01*
X1871537Y-49145185D01*
X1871539Y-49145187D01*
X2045569Y-49252942D01*
X2045575Y-49252945D01*
X2068810Y-49261946D01*
X2236444Y-49326888D01*
X2437653Y-49364500D01*
X2437656Y-49364500D01*
X2642344Y-49364500D01*
X2642347Y-49364500D01*
X2843556Y-49326888D01*
X2984227Y-49272390D01*
X2988211Y-49271003D01*
X3000390Y-49267230D01*
X3004013Y-49265264D01*
X3011164Y-49261955D01*
X3034427Y-49252944D01*
X3087190Y-49220273D01*
X3090234Y-49218507D01*
X3225446Y-49145185D01*
X3293463Y-49108301D01*
X3293462Y-49108301D01*
X3304055Y-49101884D01*
X3304056Y-49101883D01*
X3304056Y-49101884D01*
X3316209Y-49093705D01*
X3316210Y-49093704D01*
X3316209Y-49093704D01*
X3316219Y-49093698D01*
X3326213Y-49086252D01*
X3326216Y-49086250D01*
X3326215Y-49086251D01*
X3530617Y-48918106D01*
X3664177Y-48805098D01*
X3690492Y-48788029D01*
X3800293Y-48735186D01*
X3839397Y-48723792D01*
X4090367Y-48693908D01*
X4090381Y-48693903D01*
X4095425Y-48692872D01*
X4095547Y-48693471D01*
X4123204Y-48689500D01*
X18255871Y-48689500D01*
X18256387Y-48689480D01*
X18358005Y-48689482D01*
X18629164Y-48658933D01*
X18629171Y-48658931D01*
X18629180Y-48658930D01*
X18814785Y-48616568D01*
X18895198Y-48598216D01*
X19152761Y-48508094D01*
X19398614Y-48389701D01*
X19466847Y-48346827D01*
X19491768Y-48334814D01*
X19495017Y-48333673D01*
X19495027Y-48333671D01*
X19738324Y-48220431D01*
X19764436Y-48211654D01*
X19920735Y-48177861D01*
X19938767Y-48175332D01*
X20121342Y-48163274D01*
X20129783Y-48162447D01*
X20373213Y-48130981D01*
X20384737Y-48128960D01*
X20384734Y-48128960D01*
X20384736Y-48128959D01*
X20384739Y-48128959D01*
X20398216Y-48125964D01*
X20404153Y-48124360D01*
X20409509Y-48122914D01*
X20477888Y-48101095D01*
X20602710Y-48061268D01*
X20610161Y-48059391D01*
X20623556Y-48056888D01*
X20655036Y-48044691D01*
X20658531Y-48043457D01*
X20717041Y-48024790D01*
X20722871Y-48022667D01*
X20733122Y-48018686D01*
X20737011Y-48016093D01*
X20760997Y-48003642D01*
X20814427Y-47982944D01*
X20988462Y-47875186D01*
X21139732Y-47737285D01*
X21263088Y-47573935D01*
X21354328Y-47390701D01*
X21410345Y-47193821D01*
X21429232Y-46990000D01*
X21410345Y-46786179D01*
X21354328Y-46589299D01*
X21263088Y-46406065D01*
X21139732Y-46242715D01*
X21139730Y-46242712D01*
X20988462Y-46104814D01*
X20988460Y-46104812D01*
X20814430Y-45997057D01*
X20814424Y-45997054D01*
X20625373Y-45923816D01*
X20623556Y-45923112D01*
X20422347Y-45885500D01*
X20217653Y-45885500D01*
X20016444Y-45923112D01*
X20016441Y-45923112D01*
X20016441Y-45923113D01*
X19825575Y-45997054D01*
X19825569Y-45997057D01*
X19651539Y-46104812D01*
X19651537Y-46104814D01*
X19500269Y-46242712D01*
X19376912Y-46406064D01*
X19285672Y-46589297D01*
X19285669Y-46589303D01*
X19229655Y-46786175D01*
X19229655Y-46786176D01*
X19225104Y-46835283D01*
X19222156Y-46852998D01*
X19208405Y-46909835D01*
X19205538Y-46926204D01*
X19205537Y-46926212D01*
X19205537Y-46926213D01*
X19203398Y-46945699D01*
X19203398Y-46945700D01*
X19202645Y-46962290D01*
X19207511Y-47222187D01*
X19212691Y-47369559D01*
X19206342Y-47413314D01*
X19198249Y-47437465D01*
X19161217Y-47492347D01*
X19036111Y-47599222D01*
X19035826Y-47598889D01*
X19023669Y-47608828D01*
X19010204Y-47617825D01*
X19003171Y-47621885D01*
X18826230Y-47709140D01*
X18818729Y-47712247D01*
X18631906Y-47775663D01*
X18624063Y-47777765D01*
X18430558Y-47816253D01*
X18422509Y-47817312D01*
X18223304Y-47830366D01*
X18219249Y-47830499D01*
X18149838Y-47830499D01*
X18149826Y-47830500D01*
X4123588Y-47830500D01*
X4096571Y-47826211D01*
X4096310Y-47827400D01*
X4090360Y-47826089D01*
X3839399Y-47796205D01*
X3800289Y-47784809D01*
X3690501Y-47731972D01*
X3664180Y-47714900D01*
X3530617Y-47601893D01*
X3326207Y-47433741D01*
X3326206Y-47433740D01*
X3316186Y-47426276D01*
X3316187Y-47426277D01*
X3316179Y-47426271D01*
X3304022Y-47418093D01*
X3304018Y-47418090D01*
X3293454Y-47411693D01*
X3293455Y-47411694D01*
X3090240Y-47301493D01*
X3087156Y-47299704D01*
X3034432Y-47267059D01*
X3034430Y-47267058D01*
X3034427Y-47267056D01*
X3034425Y-47267055D01*
X3034423Y-47267054D01*
X3011184Y-47258050D01*
X3004026Y-47254740D01*
X2997478Y-47251190D01*
X2991564Y-47248176D01*
X2991560Y-47248174D01*
X2987483Y-47246226D01*
X2975144Y-47240719D01*
X2975140Y-47240718D01*
X2975138Y-47240717D01*
X2967652Y-47239220D01*
X2947182Y-47233256D01*
X2843561Y-47193113D01*
X2843556Y-47193112D01*
X2642347Y-47155500D01*
X2437653Y-47155500D01*
X2236444Y-47193112D01*
X2236441Y-47193112D01*
X2236441Y-47193113D01*
X2045575Y-47267054D01*
X2045569Y-47267057D01*
X1871539Y-47374812D01*
X1871537Y-47374814D01*
X1720269Y-47512712D01*
X1596912Y-47676064D01*
X1505673Y-47859295D01*
X1505671Y-47859299D01*
X1505672Y-47859299D01*
X1453279Y-48043444D01*
X1449654Y-48056183D01*
X1430768Y-48259999D01*
X1430768Y-48260000D01*
X-3556000Y-48260000D01*
X-3556000Y-45720000D01*
X1430768Y-45720000D01*
X1449654Y-45923816D01*
X1449654Y-45923818D01*
X1449655Y-45923821D01*
X1487893Y-46058213D01*
X1505673Y-46120704D01*
X1596912Y-46303935D01*
X1720269Y-46467287D01*
X1871537Y-46605185D01*
X1871539Y-46605187D01*
X2045569Y-46712942D01*
X2045575Y-46712945D01*
X2068810Y-46721946D01*
X2236444Y-46786888D01*
X2437653Y-46824500D01*
X2437656Y-46824500D01*
X2642344Y-46824500D01*
X2642347Y-46824500D01*
X2843556Y-46786888D01*
X2984227Y-46732390D01*
X2988211Y-46731003D01*
X3000390Y-46727230D01*
X3004013Y-46725264D01*
X3011164Y-46721955D01*
X3034427Y-46712944D01*
X3087190Y-46680273D01*
X3090234Y-46678507D01*
X3225446Y-46605185D01*
X3293463Y-46568301D01*
X3293462Y-46568301D01*
X3304055Y-46561884D01*
X3304056Y-46561883D01*
X3304056Y-46561884D01*
X3316209Y-46553705D01*
X3316210Y-46553704D01*
X3316209Y-46553704D01*
X3316219Y-46553698D01*
X3326213Y-46546252D01*
X3326216Y-46546250D01*
X3326215Y-46546251D01*
X3530617Y-46378106D01*
X3664177Y-46265098D01*
X3690492Y-46248029D01*
X3800293Y-46195186D01*
X3839397Y-46183792D01*
X4090367Y-46153908D01*
X4090381Y-46153903D01*
X4095425Y-46152872D01*
X4095547Y-46153471D01*
X4123204Y-46149500D01*
X18255871Y-46149500D01*
X18256387Y-46149480D01*
X18358005Y-46149482D01*
X18629164Y-46118933D01*
X18629171Y-46118931D01*
X18629180Y-46118930D01*
X18814785Y-46076568D01*
X18895198Y-46058216D01*
X19152761Y-45968094D01*
X19398614Y-45849701D01*
X19466847Y-45806827D01*
X19491768Y-45794814D01*
X19495017Y-45793673D01*
X19495027Y-45793671D01*
X19738324Y-45680431D01*
X19764436Y-45671654D01*
X19920735Y-45637861D01*
X19938767Y-45635332D01*
X20121342Y-45623274D01*
X20129783Y-45622447D01*
X20373213Y-45590981D01*
X20384737Y-45588960D01*
X20384734Y-45588960D01*
X20384736Y-45588959D01*
X20384739Y-45588959D01*
X20398216Y-45585964D01*
X20404153Y-45584360D01*
X20409509Y-45582914D01*
X20477888Y-45561095D01*
X20602710Y-45521268D01*
X20610161Y-45519391D01*
X20623556Y-45516888D01*
X20655036Y-45504691D01*
X20658531Y-45503457D01*
X20717041Y-45484790D01*
X20722871Y-45482667D01*
X20733122Y-45478686D01*
X20737011Y-45476093D01*
X20760997Y-45463642D01*
X20814427Y-45442944D01*
X20988462Y-45335186D01*
X21139732Y-45197285D01*
X21263088Y-45033935D01*
X21354328Y-44850701D01*
X21410345Y-44653821D01*
X21429232Y-44450000D01*
X21410345Y-44246179D01*
X21354328Y-44049299D01*
X21263088Y-43866065D01*
X21139732Y-43702715D01*
X21139730Y-43702712D01*
X20988462Y-43564814D01*
X20988460Y-43564812D01*
X20814430Y-43457057D01*
X20814424Y-43457054D01*
X20625373Y-43383816D01*
X20623556Y-43383112D01*
X20422347Y-43345500D01*
X20217653Y-43345500D01*
X20016444Y-43383112D01*
X20016441Y-43383112D01*
X20016441Y-43383113D01*
X19825575Y-43457054D01*
X19825569Y-43457057D01*
X19651539Y-43564812D01*
X19651537Y-43564814D01*
X19500269Y-43702712D01*
X19376912Y-43866064D01*
X19285672Y-44049297D01*
X19285669Y-44049303D01*
X19229655Y-44246175D01*
X19229655Y-44246176D01*
X19225104Y-44295283D01*
X19222156Y-44312998D01*
X19208405Y-44369835D01*
X19205538Y-44386204D01*
X19205537Y-44386212D01*
X19205537Y-44386213D01*
X19203398Y-44405699D01*
X19203398Y-44405700D01*
X19202645Y-44422290D01*
X19207511Y-44682187D01*
X19212691Y-44829559D01*
X19206342Y-44873314D01*
X19198249Y-44897465D01*
X19161217Y-44952347D01*
X19036111Y-45059222D01*
X19035826Y-45058889D01*
X19023669Y-45068828D01*
X19010204Y-45077825D01*
X19003171Y-45081885D01*
X18826230Y-45169140D01*
X18818729Y-45172247D01*
X18631906Y-45235663D01*
X18624063Y-45237765D01*
X18430558Y-45276253D01*
X18422509Y-45277312D01*
X18223304Y-45290366D01*
X18219249Y-45290499D01*
X18149838Y-45290499D01*
X18149826Y-45290500D01*
X4123588Y-45290500D01*
X4096571Y-45286211D01*
X4096310Y-45287400D01*
X4090360Y-45286089D01*
X3839399Y-45256205D01*
X3800289Y-45244809D01*
X3690501Y-45191972D01*
X3664180Y-45174900D01*
X3530617Y-45061893D01*
X3326207Y-44893741D01*
X3326206Y-44893740D01*
X3316186Y-44886276D01*
X3316187Y-44886277D01*
X3316179Y-44886271D01*
X3304022Y-44878093D01*
X3304018Y-44878090D01*
X3293454Y-44871693D01*
X3293455Y-44871694D01*
X3090240Y-44761493D01*
X3087156Y-44759704D01*
X3034432Y-44727059D01*
X3034430Y-44727058D01*
X3034427Y-44727056D01*
X3034425Y-44727055D01*
X3034423Y-44727054D01*
X3011184Y-44718050D01*
X3004026Y-44714740D01*
X2997478Y-44711190D01*
X2991564Y-44708176D01*
X2991560Y-44708174D01*
X2987483Y-44706226D01*
X2975144Y-44700719D01*
X2975140Y-44700718D01*
X2975138Y-44700717D01*
X2967652Y-44699220D01*
X2947182Y-44693256D01*
X2843561Y-44653113D01*
X2843556Y-44653112D01*
X2642347Y-44615500D01*
X2437653Y-44615500D01*
X2236444Y-44653112D01*
X2236441Y-44653112D01*
X2236441Y-44653113D01*
X2045575Y-44727054D01*
X2045569Y-44727057D01*
X1871539Y-44834812D01*
X1871537Y-44834814D01*
X1720269Y-44972712D01*
X1596912Y-45136064D01*
X1505673Y-45319295D01*
X1505671Y-45319299D01*
X1505672Y-45319299D01*
X1453279Y-45503444D01*
X1449654Y-45516183D01*
X1430768Y-45719999D01*
X1430768Y-45720000D01*
X-3556000Y-45720000D01*
X-3556000Y-43180000D01*
X1430768Y-43180000D01*
X1449654Y-43383816D01*
X1449654Y-43383818D01*
X1449655Y-43383821D01*
X1487893Y-43518213D01*
X1505673Y-43580704D01*
X1596912Y-43763935D01*
X1720269Y-43927287D01*
X1871537Y-44065185D01*
X1871539Y-44065187D01*
X2045569Y-44172942D01*
X2045575Y-44172945D01*
X2068810Y-44181946D01*
X2236444Y-44246888D01*
X2437653Y-44284500D01*
X2437656Y-44284500D01*
X2642344Y-44284500D01*
X2642347Y-44284500D01*
X2843556Y-44246888D01*
X2984227Y-44192390D01*
X2988211Y-44191003D01*
X3000390Y-44187230D01*
X3004013Y-44185264D01*
X3011164Y-44181955D01*
X3034427Y-44172944D01*
X3087190Y-44140273D01*
X3090234Y-44138507D01*
X3225446Y-44065185D01*
X3293463Y-44028301D01*
X3293462Y-44028301D01*
X3304055Y-44021884D01*
X3304056Y-44021883D01*
X3304056Y-44021884D01*
X3316209Y-44013705D01*
X3316210Y-44013704D01*
X3316209Y-44013704D01*
X3316219Y-44013698D01*
X3326213Y-44006252D01*
X3326216Y-44006250D01*
X3326215Y-44006251D01*
X3530617Y-43838106D01*
X3664177Y-43725098D01*
X3690492Y-43708029D01*
X3800293Y-43655186D01*
X3839397Y-43643792D01*
X4090367Y-43613908D01*
X4090381Y-43613903D01*
X4095425Y-43612872D01*
X4095547Y-43613471D01*
X4123204Y-43609500D01*
X18255871Y-43609500D01*
X18256387Y-43609480D01*
X18358005Y-43609482D01*
X18629164Y-43578933D01*
X18629171Y-43578931D01*
X18629180Y-43578930D01*
X18814785Y-43536568D01*
X18895198Y-43518216D01*
X19152761Y-43428094D01*
X19398614Y-43309701D01*
X19466847Y-43266827D01*
X19491768Y-43254814D01*
X19495017Y-43253673D01*
X19495027Y-43253671D01*
X19738324Y-43140431D01*
X19764436Y-43131654D01*
X19920735Y-43097861D01*
X19938767Y-43095332D01*
X20121342Y-43083274D01*
X20129783Y-43082447D01*
X20373213Y-43050981D01*
X20384737Y-43048960D01*
X20384734Y-43048960D01*
X20384736Y-43048959D01*
X20384739Y-43048959D01*
X20398216Y-43045964D01*
X20404153Y-43044360D01*
X20409509Y-43042914D01*
X20477888Y-43021095D01*
X20602710Y-42981268D01*
X20610161Y-42979391D01*
X20623556Y-42976888D01*
X20655036Y-42964691D01*
X20658531Y-42963457D01*
X20717041Y-42944790D01*
X20722871Y-42942667D01*
X20733122Y-42938686D01*
X20737011Y-42936093D01*
X20760997Y-42923642D01*
X20814427Y-42902944D01*
X20988462Y-42795186D01*
X21139732Y-42657285D01*
X21263088Y-42493935D01*
X21354328Y-42310701D01*
X21410345Y-42113821D01*
X21429232Y-41910000D01*
X21410345Y-41706179D01*
X21354328Y-41509299D01*
X21263088Y-41326065D01*
X21139732Y-41162715D01*
X21139730Y-41162712D01*
X20988462Y-41024814D01*
X20988460Y-41024812D01*
X20814430Y-40917057D01*
X20814424Y-40917054D01*
X20625373Y-40843816D01*
X20623556Y-40843112D01*
X20422347Y-40805500D01*
X20217653Y-40805500D01*
X20016444Y-40843112D01*
X20016441Y-40843112D01*
X20016441Y-40843113D01*
X19825575Y-40917054D01*
X19825569Y-40917057D01*
X19651539Y-41024812D01*
X19651537Y-41024814D01*
X19500269Y-41162712D01*
X19376912Y-41326064D01*
X19285672Y-41509297D01*
X19285669Y-41509303D01*
X19229655Y-41706175D01*
X19229655Y-41706176D01*
X19225104Y-41755283D01*
X19222156Y-41772998D01*
X19208405Y-41829835D01*
X19205538Y-41846204D01*
X19205537Y-41846212D01*
X19205537Y-41846213D01*
X19203398Y-41865699D01*
X19203398Y-41865700D01*
X19202645Y-41882290D01*
X19207511Y-42142187D01*
X19212691Y-42289559D01*
X19206342Y-42333314D01*
X19198249Y-42357465D01*
X19161217Y-42412347D01*
X19036111Y-42519222D01*
X19035826Y-42518889D01*
X19023669Y-42528828D01*
X19010204Y-42537825D01*
X19003171Y-42541885D01*
X18826230Y-42629140D01*
X18818729Y-42632247D01*
X18631906Y-42695663D01*
X18624063Y-42697765D01*
X18430558Y-42736253D01*
X18422509Y-42737312D01*
X18223304Y-42750366D01*
X18219249Y-42750499D01*
X18149838Y-42750499D01*
X18149826Y-42750500D01*
X4123588Y-42750500D01*
X4096571Y-42746211D01*
X4096310Y-42747400D01*
X4090360Y-42746089D01*
X3839399Y-42716205D01*
X3800289Y-42704809D01*
X3690501Y-42651972D01*
X3664180Y-42634900D01*
X3530617Y-42521893D01*
X3326207Y-42353741D01*
X3326206Y-42353740D01*
X3316186Y-42346276D01*
X3316187Y-42346277D01*
X3316179Y-42346271D01*
X3304022Y-42338093D01*
X3304018Y-42338090D01*
X3293454Y-42331693D01*
X3293455Y-42331694D01*
X3090240Y-42221493D01*
X3087156Y-42219704D01*
X3034432Y-42187059D01*
X3034430Y-42187058D01*
X3034427Y-42187056D01*
X3034425Y-42187055D01*
X3034423Y-42187054D01*
X3011184Y-42178050D01*
X3004026Y-42174740D01*
X2997478Y-42171190D01*
X2991564Y-42168176D01*
X2991560Y-42168174D01*
X2987483Y-42166226D01*
X2975144Y-42160719D01*
X2975140Y-42160718D01*
X2975138Y-42160717D01*
X2967652Y-42159220D01*
X2947182Y-42153256D01*
X2843561Y-42113113D01*
X2843556Y-42113112D01*
X2642347Y-42075500D01*
X2437653Y-42075500D01*
X2236444Y-42113112D01*
X2236441Y-42113112D01*
X2236441Y-42113113D01*
X2045575Y-42187054D01*
X2045569Y-42187057D01*
X1871539Y-42294812D01*
X1871537Y-42294814D01*
X1720269Y-42432712D01*
X1596912Y-42596064D01*
X1505673Y-42779295D01*
X1505671Y-42779299D01*
X1505672Y-42779299D01*
X1453279Y-42963444D01*
X1449654Y-42976183D01*
X1430768Y-43179999D01*
X1430768Y-43180000D01*
X-3556000Y-43180000D01*
X-3556000Y-40640000D01*
X1430768Y-40640000D01*
X1449654Y-40843816D01*
X1449654Y-40843818D01*
X1449655Y-40843821D01*
X1487893Y-40978213D01*
X1505673Y-41040704D01*
X1596912Y-41223935D01*
X1720269Y-41387287D01*
X1871537Y-41525185D01*
X1871539Y-41525187D01*
X2045569Y-41632942D01*
X2045575Y-41632945D01*
X2068810Y-41641946D01*
X2236444Y-41706888D01*
X2437653Y-41744500D01*
X2437656Y-41744500D01*
X2642344Y-41744500D01*
X2642347Y-41744500D01*
X2843556Y-41706888D01*
X2984227Y-41652390D01*
X2988211Y-41651003D01*
X3000390Y-41647230D01*
X3004013Y-41645264D01*
X3011164Y-41641955D01*
X3034427Y-41632944D01*
X3087190Y-41600273D01*
X3090234Y-41598507D01*
X3225446Y-41525185D01*
X3293463Y-41488301D01*
X3293462Y-41488301D01*
X3304055Y-41481884D01*
X3304056Y-41481883D01*
X3304056Y-41481884D01*
X3316209Y-41473705D01*
X3316210Y-41473704D01*
X3316209Y-41473704D01*
X3316219Y-41473698D01*
X3326213Y-41466252D01*
X3326216Y-41466250D01*
X3326215Y-41466251D01*
X3530617Y-41298106D01*
X3664177Y-41185098D01*
X3690492Y-41168029D01*
X3800293Y-41115186D01*
X3839397Y-41103792D01*
X4090367Y-41073908D01*
X4090381Y-41073903D01*
X4095425Y-41072872D01*
X4095547Y-41073471D01*
X4123204Y-41069500D01*
X18255871Y-41069500D01*
X18256387Y-41069480D01*
X18358005Y-41069482D01*
X18629164Y-41038933D01*
X18629171Y-41038931D01*
X18629180Y-41038930D01*
X18814785Y-40996568D01*
X18895198Y-40978216D01*
X19152761Y-40888094D01*
X19398614Y-40769701D01*
X19466847Y-40726827D01*
X19491768Y-40714814D01*
X19495017Y-40713673D01*
X19495027Y-40713671D01*
X19738324Y-40600431D01*
X19764436Y-40591654D01*
X19920735Y-40557861D01*
X19938767Y-40555332D01*
X20121342Y-40543274D01*
X20129783Y-40542447D01*
X20373213Y-40510981D01*
X20384737Y-40508960D01*
X20384734Y-40508960D01*
X20384736Y-40508959D01*
X20384739Y-40508959D01*
X20398216Y-40505964D01*
X20404153Y-40504360D01*
X20409509Y-40502914D01*
X20477888Y-40481095D01*
X20602710Y-40441268D01*
X20610161Y-40439391D01*
X20623556Y-40436888D01*
X20655036Y-40424691D01*
X20658531Y-40423457D01*
X20717041Y-40404790D01*
X20722871Y-40402667D01*
X20733122Y-40398686D01*
X20737011Y-40396093D01*
X20760997Y-40383642D01*
X20814427Y-40362944D01*
X20988462Y-40255186D01*
X21139732Y-40117285D01*
X21263088Y-39953935D01*
X21354328Y-39770701D01*
X21410345Y-39573821D01*
X21429232Y-39370000D01*
X21410345Y-39166179D01*
X21354328Y-38969299D01*
X21263088Y-38786065D01*
X21156635Y-38645098D01*
X21139730Y-38622712D01*
X20988462Y-38484814D01*
X20988460Y-38484812D01*
X20814430Y-38377057D01*
X20814424Y-38377054D01*
X20625373Y-38303816D01*
X20623556Y-38303112D01*
X20422347Y-38265500D01*
X20217653Y-38265500D01*
X20016444Y-38303112D01*
X20016441Y-38303112D01*
X20016441Y-38303113D01*
X19825575Y-38377054D01*
X19825569Y-38377057D01*
X19651539Y-38484812D01*
X19651537Y-38484814D01*
X19500269Y-38622712D01*
X19376912Y-38786064D01*
X19285672Y-38969297D01*
X19285669Y-38969303D01*
X19229655Y-39166175D01*
X19229655Y-39166176D01*
X19225104Y-39215283D01*
X19222156Y-39232998D01*
X19208405Y-39289835D01*
X19205538Y-39306204D01*
X19205537Y-39306212D01*
X19205537Y-39306213D01*
X19203398Y-39325699D01*
X19203398Y-39325700D01*
X19202645Y-39342290D01*
X19207511Y-39602187D01*
X19212691Y-39749559D01*
X19206342Y-39793314D01*
X19198249Y-39817465D01*
X19161217Y-39872347D01*
X19036111Y-39979222D01*
X19035826Y-39978889D01*
X19023669Y-39988828D01*
X19010204Y-39997825D01*
X19003171Y-40001885D01*
X18826230Y-40089140D01*
X18818729Y-40092247D01*
X18631906Y-40155663D01*
X18624063Y-40157765D01*
X18430558Y-40196253D01*
X18422509Y-40197312D01*
X18223304Y-40210366D01*
X18219249Y-40210499D01*
X18149838Y-40210499D01*
X18149826Y-40210500D01*
X4123588Y-40210500D01*
X4096571Y-40206211D01*
X4096310Y-40207400D01*
X4090360Y-40206089D01*
X3839399Y-40176205D01*
X3800289Y-40164809D01*
X3690501Y-40111972D01*
X3664180Y-40094900D01*
X3530617Y-39981893D01*
X3326207Y-39813741D01*
X3326206Y-39813740D01*
X3316186Y-39806276D01*
X3316187Y-39806277D01*
X3316179Y-39806271D01*
X3304022Y-39798093D01*
X3304018Y-39798090D01*
X3293454Y-39791693D01*
X3293455Y-39791694D01*
X3090240Y-39681493D01*
X3087156Y-39679704D01*
X3034432Y-39647059D01*
X3034430Y-39647058D01*
X3034427Y-39647056D01*
X3034425Y-39647055D01*
X3034423Y-39647054D01*
X3011184Y-39638050D01*
X3004026Y-39634740D01*
X2997478Y-39631190D01*
X2991564Y-39628176D01*
X2991560Y-39628174D01*
X2987483Y-39626226D01*
X2975144Y-39620719D01*
X2975140Y-39620718D01*
X2975138Y-39620717D01*
X2967652Y-39619220D01*
X2947182Y-39613256D01*
X2843561Y-39573113D01*
X2843556Y-39573112D01*
X2642347Y-39535500D01*
X2437653Y-39535500D01*
X2236444Y-39573112D01*
X2236441Y-39573112D01*
X2236441Y-39573113D01*
X2045575Y-39647054D01*
X2045569Y-39647057D01*
X1871539Y-39754812D01*
X1871537Y-39754814D01*
X1720269Y-39892712D01*
X1596912Y-40056064D01*
X1505673Y-40239295D01*
X1505671Y-40239299D01*
X1505672Y-40239299D01*
X1453279Y-40423444D01*
X1449654Y-40436183D01*
X1430768Y-40639999D01*
X1430768Y-40640000D01*
X-3556000Y-40640000D01*
X-3556000Y-38100000D01*
X1430768Y-38100000D01*
X1449654Y-38303816D01*
X1449654Y-38303818D01*
X1449655Y-38303821D01*
X1487893Y-38438213D01*
X1505673Y-38500704D01*
X1596912Y-38683935D01*
X1720269Y-38847287D01*
X1871537Y-38985185D01*
X1871539Y-38985187D01*
X2045569Y-39092942D01*
X2045575Y-39092945D01*
X2072506Y-39103378D01*
X2236444Y-39166888D01*
X2437653Y-39204500D01*
X2437656Y-39204500D01*
X2642344Y-39204500D01*
X2642347Y-39204500D01*
X2843556Y-39166888D01*
X2984227Y-39112390D01*
X2988211Y-39111003D01*
X3000390Y-39107230D01*
X3004013Y-39105264D01*
X3011164Y-39101955D01*
X3034427Y-39092944D01*
X3087190Y-39060273D01*
X3090234Y-39058507D01*
X3225446Y-38985185D01*
X3293463Y-38948301D01*
X3293462Y-38948301D01*
X3304055Y-38941884D01*
X3304056Y-38941883D01*
X3304056Y-38941884D01*
X3316209Y-38933705D01*
X3316210Y-38933704D01*
X3316209Y-38933704D01*
X3316219Y-38933698D01*
X3326213Y-38926252D01*
X3326216Y-38926250D01*
X3326215Y-38926251D01*
X3530617Y-38758106D01*
X3664177Y-38645098D01*
X3690492Y-38628029D01*
X3800293Y-38575186D01*
X3839397Y-38563792D01*
X4090367Y-38533908D01*
X4090381Y-38533903D01*
X4095425Y-38532872D01*
X4095547Y-38533471D01*
X4123204Y-38529500D01*
X9211416Y-38529500D01*
X9238429Y-38533787D01*
X9238691Y-38532599D01*
X9244625Y-38533905D01*
X9244633Y-38533908D01*
X9495592Y-38563791D01*
X9534702Y-38575187D01*
X9644497Y-38628027D01*
X9670817Y-38645098D01*
X9804382Y-38758106D01*
X10008781Y-38926249D01*
X10008782Y-38926249D01*
X10008784Y-38926251D01*
X10018779Y-38933698D01*
X10030943Y-38941884D01*
X10030945Y-38941885D01*
X10041536Y-38948301D01*
X10244749Y-39058500D01*
X10247833Y-39060289D01*
X10269232Y-39073538D01*
X10300573Y-39092944D01*
X10323811Y-39101946D01*
X10330978Y-39105261D01*
X10337523Y-39108810D01*
X10343424Y-39111819D01*
X10347495Y-39113764D01*
X10350699Y-39115194D01*
X10359855Y-39119280D01*
X10367336Y-39120775D01*
X10387811Y-39126739D01*
X10491444Y-39166888D01*
X10692653Y-39204500D01*
X10692656Y-39204500D01*
X10897344Y-39204500D01*
X10897347Y-39204500D01*
X11098556Y-39166888D01*
X11289427Y-39092944D01*
X11463462Y-38985186D01*
X11614732Y-38847285D01*
X11738088Y-38683935D01*
X11829328Y-38500701D01*
X11885345Y-38303821D01*
X11904232Y-38100000D01*
X12225768Y-38100000D01*
X12244654Y-38303816D01*
X12244654Y-38303818D01*
X12244655Y-38303821D01*
X12282893Y-38438213D01*
X12300673Y-38500704D01*
X12391912Y-38683935D01*
X12515269Y-38847287D01*
X12666537Y-38985185D01*
X12666539Y-38985187D01*
X12840569Y-39092942D01*
X12840575Y-39092945D01*
X12867506Y-39103378D01*
X13031444Y-39166888D01*
X13232653Y-39204500D01*
X13232656Y-39204500D01*
X13437344Y-39204500D01*
X13437347Y-39204500D01*
X13638556Y-39166888D01*
X13779227Y-39112390D01*
X13783211Y-39111003D01*
X13795390Y-39107230D01*
X13799013Y-39105264D01*
X13806164Y-39101955D01*
X13829427Y-39092944D01*
X13882190Y-39060273D01*
X13885234Y-39058507D01*
X14020446Y-38985185D01*
X14088463Y-38948301D01*
X14088462Y-38948301D01*
X14099055Y-38941884D01*
X14099056Y-38941883D01*
X14099056Y-38941884D01*
X14111209Y-38933705D01*
X14111210Y-38933704D01*
X14111209Y-38933704D01*
X14111219Y-38933698D01*
X14121213Y-38926252D01*
X14121216Y-38926250D01*
X14121215Y-38926251D01*
X14325617Y-38758106D01*
X14459177Y-38645098D01*
X14485492Y-38628029D01*
X14595293Y-38575186D01*
X14634397Y-38563792D01*
X14885367Y-38533908D01*
X14885381Y-38533903D01*
X14890425Y-38532872D01*
X14890547Y-38533471D01*
X14918204Y-38529500D01*
X18255871Y-38529500D01*
X18256387Y-38529480D01*
X18358004Y-38529482D01*
X18629164Y-38498933D01*
X18629171Y-38498931D01*
X18629180Y-38498930D01*
X18814785Y-38456568D01*
X18895198Y-38438216D01*
X19152760Y-38348094D01*
X19398613Y-38229701D01*
X19466856Y-38186821D01*
X19491767Y-38174813D01*
X19495022Y-38173670D01*
X19495029Y-38173669D01*
X19738331Y-38060428D01*
X19764443Y-38051652D01*
X19920735Y-38017860D01*
X19938745Y-38015331D01*
X20109471Y-38004056D01*
X20121703Y-38003249D01*
X20130142Y-38002398D01*
X20373212Y-37970980D01*
X20384739Y-37968958D01*
X20384741Y-37968957D01*
X20384743Y-37968957D01*
X20398216Y-37965963D01*
X20404153Y-37964359D01*
X20409509Y-37962913D01*
X20461881Y-37946202D01*
X20602707Y-37901268D01*
X20610152Y-37899392D01*
X20623556Y-37896888D01*
X20655042Y-37884689D01*
X20658560Y-37883448D01*
X20682399Y-37875842D01*
X20717039Y-37864791D01*
X20719530Y-37863883D01*
X20722871Y-37862667D01*
X20733122Y-37858686D01*
X20737011Y-37856093D01*
X20760997Y-37843642D01*
X20814427Y-37822944D01*
X20988462Y-37715186D01*
X21139732Y-37577285D01*
X21263088Y-37413935D01*
X21354328Y-37230701D01*
X21410345Y-37033821D01*
X21429232Y-36830000D01*
X21410345Y-36626179D01*
X21354328Y-36429299D01*
X21263088Y-36246065D01*
X21156634Y-36105097D01*
X21139730Y-36082712D01*
X20988462Y-35944814D01*
X20988460Y-35944812D01*
X20814430Y-35837057D01*
X20814424Y-35837054D01*
X20625373Y-35763816D01*
X20623556Y-35763112D01*
X20422347Y-35725500D01*
X20217653Y-35725500D01*
X20016444Y-35763112D01*
X20016441Y-35763112D01*
X20016441Y-35763113D01*
X19825575Y-35837054D01*
X19825569Y-35837057D01*
X19651539Y-35944812D01*
X19651537Y-35944814D01*
X19500269Y-36082712D01*
X19376912Y-36246064D01*
X19285672Y-36429297D01*
X19285669Y-36429303D01*
X19229655Y-36626175D01*
X19229655Y-36626176D01*
X19225104Y-36675283D01*
X19222156Y-36692998D01*
X19208405Y-36749835D01*
X19205538Y-36766204D01*
X19205537Y-36766212D01*
X19205537Y-36766213D01*
X19203398Y-36785699D01*
X19203398Y-36785700D01*
X19202645Y-36802291D01*
X19207511Y-37062185D01*
X19212691Y-37209559D01*
X19206341Y-37253317D01*
X19198249Y-37277463D01*
X19161219Y-37332342D01*
X19036110Y-37439221D01*
X19035825Y-37438888D01*
X19023657Y-37448836D01*
X19010208Y-37457822D01*
X19003177Y-37461882D01*
X18826227Y-37549141D01*
X18818726Y-37552248D01*
X18631904Y-37615664D01*
X18624062Y-37617765D01*
X18430558Y-37656253D01*
X18422509Y-37657312D01*
X18223304Y-37670366D01*
X18219249Y-37670499D01*
X18149838Y-37670499D01*
X18149826Y-37670500D01*
X14918588Y-37670500D01*
X14891571Y-37666211D01*
X14891310Y-37667400D01*
X14885360Y-37666089D01*
X14634399Y-37636205D01*
X14595289Y-37624809D01*
X14485501Y-37571972D01*
X14459180Y-37554900D01*
X14325617Y-37441893D01*
X14121207Y-37273741D01*
X14121206Y-37273740D01*
X14111186Y-37266276D01*
X14111187Y-37266277D01*
X14111179Y-37266271D01*
X14099022Y-37258093D01*
X14099018Y-37258090D01*
X14088454Y-37251693D01*
X14088455Y-37251694D01*
X13885240Y-37141493D01*
X13882156Y-37139704D01*
X13882146Y-37139698D01*
X13829427Y-37107056D01*
X13829425Y-37107055D01*
X13829423Y-37107054D01*
X13806184Y-37098050D01*
X13799026Y-37094740D01*
X13792478Y-37091190D01*
X13786564Y-37088176D01*
X13785331Y-37087587D01*
X13782483Y-37086226D01*
X13770144Y-37080719D01*
X13770140Y-37080718D01*
X13770138Y-37080717D01*
X13762652Y-37079220D01*
X13742182Y-37073256D01*
X13638561Y-37033113D01*
X13638556Y-37033112D01*
X13437347Y-36995500D01*
X13232653Y-36995500D01*
X13031444Y-37033112D01*
X13031441Y-37033112D01*
X13031441Y-37033113D01*
X12840575Y-37107054D01*
X12840569Y-37107057D01*
X12666539Y-37214812D01*
X12666537Y-37214814D01*
X12515269Y-37352712D01*
X12391912Y-37516064D01*
X12300673Y-37699295D01*
X12244654Y-37896183D01*
X12225768Y-38099999D01*
X12225768Y-38100000D01*
X11904232Y-38100000D01*
X11885345Y-37896179D01*
X11829328Y-37699299D01*
X11738088Y-37516065D01*
X11614732Y-37352715D01*
X11614730Y-37352712D01*
X11463462Y-37214814D01*
X11463460Y-37214812D01*
X11289430Y-37107057D01*
X11289424Y-37107054D01*
X11100373Y-37033816D01*
X11098556Y-37033112D01*
X10897347Y-36995500D01*
X10692653Y-36995500D01*
X10527289Y-37026411D01*
X10491438Y-37033113D01*
X10350823Y-37087587D01*
X10346785Y-37088993D01*
X10334615Y-37092765D01*
X10334609Y-37092768D01*
X10330967Y-37094743D01*
X10323814Y-37098051D01*
X10300575Y-37107054D01*
X10300568Y-37107058D01*
X10247850Y-37139698D01*
X10244769Y-37141485D01*
X10080248Y-37230704D01*
X10041525Y-37251703D01*
X10038861Y-37253317D01*
X10030977Y-37258093D01*
X10030927Y-37258123D01*
X10018781Y-37266298D01*
X10012037Y-37271323D01*
X10008794Y-37273740D01*
X10008791Y-37273742D01*
X9912793Y-37352712D01*
X9804381Y-37441893D01*
X9670815Y-37554902D01*
X9644494Y-37571973D01*
X9534705Y-37624809D01*
X9495596Y-37636205D01*
X9244631Y-37666091D01*
X9239562Y-37667129D01*
X9239439Y-37666529D01*
X9211790Y-37670500D01*
X4123588Y-37670500D01*
X4096571Y-37666211D01*
X4096310Y-37667400D01*
X4090360Y-37666089D01*
X3839399Y-37636205D01*
X3800289Y-37624809D01*
X3690501Y-37571972D01*
X3664180Y-37554900D01*
X3530617Y-37441893D01*
X3326207Y-37273741D01*
X3326206Y-37273740D01*
X3316186Y-37266276D01*
X3316187Y-37266277D01*
X3316179Y-37266271D01*
X3304022Y-37258093D01*
X3304018Y-37258090D01*
X3293454Y-37251693D01*
X3293455Y-37251694D01*
X3090240Y-37141493D01*
X3087156Y-37139704D01*
X3087146Y-37139698D01*
X3034427Y-37107056D01*
X3034425Y-37107055D01*
X3034423Y-37107054D01*
X3011184Y-37098050D01*
X3004026Y-37094740D01*
X2997478Y-37091190D01*
X2991564Y-37088176D01*
X2990331Y-37087587D01*
X2987483Y-37086226D01*
X2975144Y-37080719D01*
X2975140Y-37080718D01*
X2975138Y-37080717D01*
X2967652Y-37079220D01*
X2947182Y-37073256D01*
X2843561Y-37033113D01*
X2843556Y-37033112D01*
X2642347Y-36995500D01*
X2437653Y-36995500D01*
X2236444Y-37033112D01*
X2236441Y-37033112D01*
X2236441Y-37033113D01*
X2045575Y-37107054D01*
X2045569Y-37107057D01*
X1871539Y-37214812D01*
X1871537Y-37214814D01*
X1720269Y-37352712D01*
X1596912Y-37516064D01*
X1505673Y-37699295D01*
X1449654Y-37896183D01*
X1430768Y-38099999D01*
X1430768Y-38100000D01*
X-3556000Y-38100000D01*
X-3556000Y-35560000D01*
X1430768Y-35560000D01*
X1449654Y-35763816D01*
X1449654Y-35763818D01*
X1449655Y-35763821D01*
X1487893Y-35898213D01*
X1505673Y-35960704D01*
X1596912Y-36143935D01*
X1720269Y-36307287D01*
X1871537Y-36445185D01*
X1871539Y-36445187D01*
X2045569Y-36552942D01*
X2045575Y-36552945D01*
X2072506Y-36563378D01*
X2236444Y-36626888D01*
X2437653Y-36664500D01*
X2437656Y-36664500D01*
X2642344Y-36664500D01*
X2642347Y-36664500D01*
X2843556Y-36626888D01*
X2984227Y-36572390D01*
X2988211Y-36571003D01*
X3000390Y-36567230D01*
X3004013Y-36565264D01*
X3011164Y-36561955D01*
X3034427Y-36552944D01*
X3087190Y-36520273D01*
X3090234Y-36518507D01*
X3225446Y-36445185D01*
X3293463Y-36408301D01*
X3293462Y-36408301D01*
X3304055Y-36401884D01*
X3304056Y-36401883D01*
X3304056Y-36401884D01*
X3316209Y-36393705D01*
X3316210Y-36393704D01*
X3316209Y-36393704D01*
X3316219Y-36393698D01*
X3326213Y-36386252D01*
X3326216Y-36386250D01*
X3326215Y-36386251D01*
X3530617Y-36218106D01*
X3664177Y-36105098D01*
X3690493Y-36088028D01*
X3756227Y-36056393D01*
X3825168Y-36045060D01*
X3863765Y-36056392D01*
X3929500Y-36088028D01*
X3955816Y-36105095D01*
X4089383Y-36218105D01*
X4089383Y-36218106D01*
X4293781Y-36386249D01*
X4293782Y-36386249D01*
X4293784Y-36386251D01*
X4303779Y-36393698D01*
X4315943Y-36401884D01*
X4315945Y-36401885D01*
X4326536Y-36408301D01*
X4529749Y-36518500D01*
X4532833Y-36520289D01*
X4554232Y-36533538D01*
X4585573Y-36552944D01*
X4608811Y-36561946D01*
X4615978Y-36565261D01*
X4622523Y-36568810D01*
X4628424Y-36571819D01*
X4632495Y-36573764D01*
X4635699Y-36575194D01*
X4644855Y-36579280D01*
X4652336Y-36580775D01*
X4672811Y-36586739D01*
X4776444Y-36626888D01*
X4977653Y-36664500D01*
X4977656Y-36664500D01*
X5182344Y-36664500D01*
X5182347Y-36664500D01*
X5383556Y-36626888D01*
X5524227Y-36572390D01*
X5528211Y-36571003D01*
X5540390Y-36567230D01*
X5544013Y-36565264D01*
X5551164Y-36561955D01*
X5574427Y-36552944D01*
X5627190Y-36520273D01*
X5630234Y-36518507D01*
X5765446Y-36445185D01*
X5833463Y-36408301D01*
X5833462Y-36408301D01*
X5844055Y-36401884D01*
X5844056Y-36401883D01*
X5844056Y-36401884D01*
X5856209Y-36393705D01*
X5856210Y-36393704D01*
X5856209Y-36393704D01*
X5856219Y-36393698D01*
X5866213Y-36386252D01*
X5866216Y-36386250D01*
X5866215Y-36386251D01*
X6070617Y-36218106D01*
X6204177Y-36105098D01*
X6230496Y-36088027D01*
X6340294Y-36035186D01*
X6379400Y-36023791D01*
X6630366Y-35993907D01*
X6630375Y-35993904D01*
X6635428Y-35992871D01*
X6635550Y-35993469D01*
X6663201Y-35989500D01*
X13656416Y-35989500D01*
X13683429Y-35993787D01*
X13683691Y-35992599D01*
X13689625Y-35993905D01*
X13689633Y-35993908D01*
X13940592Y-36023791D01*
X13979702Y-36035187D01*
X14089497Y-36088027D01*
X14115817Y-36105098D01*
X14249382Y-36218106D01*
X14453781Y-36386249D01*
X14453782Y-36386249D01*
X14453784Y-36386251D01*
X14463779Y-36393698D01*
X14475943Y-36401884D01*
X14475945Y-36401885D01*
X14486536Y-36408301D01*
X14689749Y-36518500D01*
X14692833Y-36520289D01*
X14714232Y-36533538D01*
X14745573Y-36552944D01*
X14768811Y-36561946D01*
X14775978Y-36565261D01*
X14782523Y-36568810D01*
X14788424Y-36571819D01*
X14792495Y-36573764D01*
X14795699Y-36575194D01*
X14804855Y-36579280D01*
X14812336Y-36580775D01*
X14832811Y-36586739D01*
X14936444Y-36626888D01*
X15137653Y-36664500D01*
X15137656Y-36664500D01*
X15342344Y-36664500D01*
X15342347Y-36664500D01*
X15543556Y-36626888D01*
X15684227Y-36572390D01*
X15688211Y-36571003D01*
X15700390Y-36567230D01*
X15704013Y-36565264D01*
X15711164Y-36561955D01*
X15734427Y-36552944D01*
X15787190Y-36520273D01*
X15790234Y-36518507D01*
X15925446Y-36445185D01*
X15993463Y-36408301D01*
X15993462Y-36408301D01*
X16004055Y-36401884D01*
X16004056Y-36401883D01*
X16004056Y-36401884D01*
X16016209Y-36393705D01*
X16016210Y-36393704D01*
X16016209Y-36393704D01*
X16016219Y-36393698D01*
X16026213Y-36386252D01*
X16026216Y-36386250D01*
X16026215Y-36386251D01*
X16230617Y-36218106D01*
X16364177Y-36105098D01*
X16390492Y-36088029D01*
X16500293Y-36035186D01*
X16539397Y-36023792D01*
X16790367Y-35993908D01*
X16790381Y-35993903D01*
X16795425Y-35992872D01*
X16795547Y-35993471D01*
X16823204Y-35989500D01*
X18255871Y-35989500D01*
X18256387Y-35989480D01*
X18358005Y-35989482D01*
X18629164Y-35958933D01*
X18629171Y-35958931D01*
X18629180Y-35958930D01*
X18814785Y-35916568D01*
X18895198Y-35898216D01*
X19152761Y-35808094D01*
X19398614Y-35689701D01*
X19466847Y-35646827D01*
X19491768Y-35634814D01*
X19495017Y-35633673D01*
X19495027Y-35633671D01*
X19738324Y-35520431D01*
X19764436Y-35511654D01*
X19920735Y-35477861D01*
X19938767Y-35475332D01*
X20121342Y-35463274D01*
X20129783Y-35462447D01*
X20373213Y-35430981D01*
X20384737Y-35428960D01*
X20384734Y-35428960D01*
X20384736Y-35428959D01*
X20384739Y-35428959D01*
X20398216Y-35425964D01*
X20404153Y-35424360D01*
X20409509Y-35422914D01*
X20477888Y-35401095D01*
X20602710Y-35361268D01*
X20610161Y-35359391D01*
X20623556Y-35356888D01*
X20655036Y-35344691D01*
X20658531Y-35343457D01*
X20717041Y-35324790D01*
X20722871Y-35322667D01*
X20733122Y-35318686D01*
X20737011Y-35316093D01*
X20760997Y-35303642D01*
X20814427Y-35282944D01*
X20988462Y-35175186D01*
X21139732Y-35037285D01*
X21263088Y-34873935D01*
X21354328Y-34690701D01*
X21410345Y-34493821D01*
X21429232Y-34290000D01*
X21410345Y-34086179D01*
X21354328Y-33889299D01*
X21263088Y-33706065D01*
X21156634Y-33565097D01*
X21139730Y-33542712D01*
X20988462Y-33404814D01*
X20988460Y-33404812D01*
X20814430Y-33297057D01*
X20814424Y-33297054D01*
X20625373Y-33223816D01*
X20623556Y-33223112D01*
X20422347Y-33185500D01*
X20217653Y-33185500D01*
X20016444Y-33223112D01*
X20016441Y-33223112D01*
X20016441Y-33223113D01*
X19825575Y-33297054D01*
X19825569Y-33297057D01*
X19651539Y-33404812D01*
X19651537Y-33404814D01*
X19500269Y-33542712D01*
X19376912Y-33706064D01*
X19285672Y-33889297D01*
X19285669Y-33889303D01*
X19229655Y-34086175D01*
X19229655Y-34086176D01*
X19225104Y-34135283D01*
X19222156Y-34152998D01*
X19208405Y-34209835D01*
X19205538Y-34226204D01*
X19205537Y-34226212D01*
X19205537Y-34226213D01*
X19203398Y-34245699D01*
X19203398Y-34245700D01*
X19202645Y-34262290D01*
X19207511Y-34522187D01*
X19212691Y-34669559D01*
X19206342Y-34713314D01*
X19198249Y-34737465D01*
X19161217Y-34792347D01*
X19036111Y-34899222D01*
X19035826Y-34898889D01*
X19023669Y-34908828D01*
X19010204Y-34917825D01*
X19003171Y-34921885D01*
X18826230Y-35009140D01*
X18818729Y-35012247D01*
X18631906Y-35075663D01*
X18624063Y-35077765D01*
X18430558Y-35116253D01*
X18422509Y-35117312D01*
X18223304Y-35130366D01*
X18219249Y-35130499D01*
X18149838Y-35130499D01*
X18149826Y-35130500D01*
X16823588Y-35130500D01*
X16796571Y-35126211D01*
X16796310Y-35127400D01*
X16790360Y-35126089D01*
X16539399Y-35096205D01*
X16500289Y-35084809D01*
X16390501Y-35031972D01*
X16364180Y-35014900D01*
X16230617Y-34901893D01*
X16026207Y-34733741D01*
X16026206Y-34733740D01*
X16016186Y-34726276D01*
X16016187Y-34726277D01*
X16016179Y-34726271D01*
X16004022Y-34718093D01*
X16004018Y-34718090D01*
X15993454Y-34711693D01*
X15993455Y-34711694D01*
X15790240Y-34601493D01*
X15787156Y-34599704D01*
X15787146Y-34599698D01*
X15734427Y-34567056D01*
X15734425Y-34567055D01*
X15734423Y-34567054D01*
X15711184Y-34558050D01*
X15704026Y-34554740D01*
X15697478Y-34551190D01*
X15691564Y-34548176D01*
X15690331Y-34547587D01*
X15687483Y-34546226D01*
X15675144Y-34540719D01*
X15675140Y-34540718D01*
X15675138Y-34540717D01*
X15667652Y-34539220D01*
X15647182Y-34533256D01*
X15543561Y-34493113D01*
X15543556Y-34493112D01*
X15342347Y-34455500D01*
X15137653Y-34455500D01*
X14972289Y-34486411D01*
X14936438Y-34493113D01*
X14795823Y-34547587D01*
X14791785Y-34548993D01*
X14779615Y-34552765D01*
X14779609Y-34552768D01*
X14775967Y-34554743D01*
X14768814Y-34558051D01*
X14745575Y-34567054D01*
X14745568Y-34567058D01*
X14692850Y-34599698D01*
X14689769Y-34601485D01*
X14525248Y-34690704D01*
X14486525Y-34711703D01*
X14483866Y-34713314D01*
X14475977Y-34718093D01*
X14475927Y-34718123D01*
X14463781Y-34726298D01*
X14457037Y-34731323D01*
X14453794Y-34733740D01*
X14453791Y-34733742D01*
X14382549Y-34792347D01*
X14249381Y-34901893D01*
X14115815Y-35014902D01*
X14089494Y-35031973D01*
X13979705Y-35084809D01*
X13940596Y-35096205D01*
X13689631Y-35126091D01*
X13684562Y-35127129D01*
X13684439Y-35126529D01*
X13656790Y-35130500D01*
X6663583Y-35130500D01*
X6636569Y-35126212D01*
X6636308Y-35127401D01*
X6630358Y-35126090D01*
X6379402Y-35096206D01*
X6340292Y-35084810D01*
X6230500Y-35031972D01*
X6204179Y-35014900D01*
X6070617Y-34901893D01*
X5866207Y-34733741D01*
X5866206Y-34733740D01*
X5856186Y-34726276D01*
X5856187Y-34726277D01*
X5856179Y-34726271D01*
X5844022Y-34718093D01*
X5844018Y-34718090D01*
X5833454Y-34711693D01*
X5833455Y-34711694D01*
X5630240Y-34601493D01*
X5627156Y-34599704D01*
X5627146Y-34599698D01*
X5574427Y-34567056D01*
X5574425Y-34567055D01*
X5574423Y-34567054D01*
X5551184Y-34558050D01*
X5544026Y-34554740D01*
X5537478Y-34551190D01*
X5531564Y-34548176D01*
X5530331Y-34547587D01*
X5527483Y-34546226D01*
X5515144Y-34540719D01*
X5515140Y-34540718D01*
X5515138Y-34540717D01*
X5507652Y-34539220D01*
X5487182Y-34533256D01*
X5383561Y-34493113D01*
X5383556Y-34493112D01*
X5182347Y-34455500D01*
X4977653Y-34455500D01*
X4812289Y-34486411D01*
X4776438Y-34493113D01*
X4635823Y-34547587D01*
X4631785Y-34548993D01*
X4619615Y-34552765D01*
X4619609Y-34552768D01*
X4615967Y-34554743D01*
X4608814Y-34558051D01*
X4585575Y-34567054D01*
X4585568Y-34567058D01*
X4532850Y-34599698D01*
X4529769Y-34601485D01*
X4365248Y-34690704D01*
X4326525Y-34711703D01*
X4323866Y-34713314D01*
X4315977Y-34718093D01*
X4315927Y-34718123D01*
X4303781Y-34726298D01*
X4297037Y-34731323D01*
X4293794Y-34733740D01*
X4293791Y-34733742D01*
X4222549Y-34792347D01*
X4089381Y-34901893D01*
X3955815Y-35014902D01*
X3929495Y-35031973D01*
X3863771Y-35063603D01*
X3794826Y-35074937D01*
X3756225Y-35063603D01*
X3690501Y-35031973D01*
X3664180Y-35014901D01*
X3530617Y-34901893D01*
X3326207Y-34733741D01*
X3326206Y-34733740D01*
X3316186Y-34726276D01*
X3316187Y-34726277D01*
X3316179Y-34726271D01*
X3304022Y-34718093D01*
X3304018Y-34718090D01*
X3293454Y-34711693D01*
X3293455Y-34711694D01*
X3090240Y-34601493D01*
X3087156Y-34599704D01*
X3087146Y-34599698D01*
X3034427Y-34567056D01*
X3034425Y-34567055D01*
X3034423Y-34567054D01*
X3011184Y-34558050D01*
X3004026Y-34554740D01*
X2997478Y-34551190D01*
X2991564Y-34548176D01*
X2990331Y-34547587D01*
X2987483Y-34546226D01*
X2975144Y-34540719D01*
X2975140Y-34540718D01*
X2975138Y-34540717D01*
X2967652Y-34539220D01*
X2947182Y-34533256D01*
X2843561Y-34493113D01*
X2843556Y-34493112D01*
X2642347Y-34455500D01*
X2437653Y-34455500D01*
X2236444Y-34493112D01*
X2236441Y-34493112D01*
X2236441Y-34493113D01*
X2045575Y-34567054D01*
X2045569Y-34567057D01*
X1871539Y-34674812D01*
X1871537Y-34674814D01*
X1720269Y-34812712D01*
X1596912Y-34976064D01*
X1505673Y-35159295D01*
X1505671Y-35159299D01*
X1505672Y-35159299D01*
X1453279Y-35343444D01*
X1449654Y-35356183D01*
X1430768Y-35559999D01*
X1430768Y-35560000D01*
X-3556000Y-35560000D01*
X-3556000Y-33020000D01*
X1430768Y-33020000D01*
X1449654Y-33223816D01*
X1449654Y-33223818D01*
X1449655Y-33223821D01*
X1487893Y-33358213D01*
X1505673Y-33420704D01*
X1596912Y-33603935D01*
X1720269Y-33767287D01*
X1871537Y-33905185D01*
X1871539Y-33905187D01*
X2045569Y-34012942D01*
X2045575Y-34012945D01*
X2072506Y-34023378D01*
X2236444Y-34086888D01*
X2437653Y-34124500D01*
X2437656Y-34124500D01*
X2642344Y-34124500D01*
X2642347Y-34124500D01*
X2843556Y-34086888D01*
X2984227Y-34032390D01*
X2988211Y-34031003D01*
X3000390Y-34027230D01*
X3004013Y-34025264D01*
X3011164Y-34021955D01*
X3034427Y-34012944D01*
X3087190Y-33980273D01*
X3090234Y-33978507D01*
X3225446Y-33905185D01*
X3293463Y-33868301D01*
X3293462Y-33868301D01*
X3304055Y-33861884D01*
X3304056Y-33861883D01*
X3304056Y-33861884D01*
X3316209Y-33853705D01*
X3316210Y-33853704D01*
X3316209Y-33853704D01*
X3316219Y-33853698D01*
X3326213Y-33846252D01*
X3326216Y-33846250D01*
X3326215Y-33846251D01*
X3530617Y-33678106D01*
X3664177Y-33565098D01*
X3690493Y-33548028D01*
X3756227Y-33516393D01*
X3825168Y-33505060D01*
X3863765Y-33516392D01*
X3929500Y-33548028D01*
X3955816Y-33565095D01*
X4089383Y-33678106D01*
X4293781Y-33846249D01*
X4293782Y-33846249D01*
X4293784Y-33846251D01*
X4303779Y-33853698D01*
X4315943Y-33861884D01*
X4315945Y-33861885D01*
X4326536Y-33868301D01*
X4529749Y-33978500D01*
X4532833Y-33980289D01*
X4554232Y-33993538D01*
X4585573Y-34012944D01*
X4608811Y-34021946D01*
X4615978Y-34025261D01*
X4622523Y-34028810D01*
X4628424Y-34031819D01*
X4632495Y-34033764D01*
X4635699Y-34035194D01*
X4644855Y-34039280D01*
X4652336Y-34040775D01*
X4672811Y-34046739D01*
X4776444Y-34086888D01*
X4977653Y-34124500D01*
X4977656Y-34124500D01*
X5182344Y-34124500D01*
X5182347Y-34124500D01*
X5383556Y-34086888D01*
X5524227Y-34032390D01*
X5528211Y-34031003D01*
X5540390Y-34027230D01*
X5544013Y-34025264D01*
X5551164Y-34021955D01*
X5574427Y-34012944D01*
X5627190Y-33980273D01*
X5630234Y-33978507D01*
X5765446Y-33905185D01*
X5833463Y-33868301D01*
X5833462Y-33868301D01*
X5844055Y-33861884D01*
X5844056Y-33861883D01*
X5844056Y-33861884D01*
X5856209Y-33853705D01*
X5856210Y-33853704D01*
X5856209Y-33853704D01*
X5856219Y-33853698D01*
X5866213Y-33846252D01*
X5866216Y-33846250D01*
X5866215Y-33846251D01*
X6070617Y-33678106D01*
X6204177Y-33565098D01*
X6230496Y-33548027D01*
X6340294Y-33495186D01*
X6379400Y-33483791D01*
X6630366Y-33453907D01*
X6630375Y-33453904D01*
X6635428Y-33452871D01*
X6635550Y-33453469D01*
X6663201Y-33449500D01*
X13656416Y-33449500D01*
X13683429Y-33453787D01*
X13683691Y-33452599D01*
X13689625Y-33453905D01*
X13689633Y-33453908D01*
X13940592Y-33483791D01*
X13979702Y-33495187D01*
X14089497Y-33548027D01*
X14115817Y-33565098D01*
X14249382Y-33678106D01*
X14453781Y-33846249D01*
X14453782Y-33846249D01*
X14453784Y-33846251D01*
X14463779Y-33853698D01*
X14475943Y-33861884D01*
X14475945Y-33861885D01*
X14486536Y-33868301D01*
X14689749Y-33978500D01*
X14692833Y-33980289D01*
X14714232Y-33993538D01*
X14745573Y-34012944D01*
X14768811Y-34021946D01*
X14775978Y-34025261D01*
X14782523Y-34028810D01*
X14788424Y-34031819D01*
X14792495Y-34033764D01*
X14795699Y-34035194D01*
X14804855Y-34039280D01*
X14812336Y-34040775D01*
X14832811Y-34046739D01*
X14936444Y-34086888D01*
X15137653Y-34124500D01*
X15137656Y-34124500D01*
X15342344Y-34124500D01*
X15342347Y-34124500D01*
X15543556Y-34086888D01*
X15684227Y-34032390D01*
X15688211Y-34031003D01*
X15700390Y-34027230D01*
X15704013Y-34025264D01*
X15711164Y-34021955D01*
X15734427Y-34012944D01*
X15787190Y-33980273D01*
X15790234Y-33978507D01*
X15925446Y-33905185D01*
X15993463Y-33868301D01*
X15993462Y-33868301D01*
X16004055Y-33861884D01*
X16004056Y-33861883D01*
X16004056Y-33861884D01*
X16016209Y-33853705D01*
X16016210Y-33853704D01*
X16016209Y-33853704D01*
X16016219Y-33853698D01*
X16026213Y-33846252D01*
X16026216Y-33846250D01*
X16026215Y-33846251D01*
X16230617Y-33678106D01*
X16364177Y-33565098D01*
X16390492Y-33548029D01*
X16500293Y-33495186D01*
X16539397Y-33483792D01*
X16790367Y-33453908D01*
X16790381Y-33453903D01*
X16795425Y-33452872D01*
X16795547Y-33453471D01*
X16823204Y-33449500D01*
X18255871Y-33449500D01*
X18256387Y-33449480D01*
X18358005Y-33449482D01*
X18629164Y-33418933D01*
X18629171Y-33418931D01*
X18629180Y-33418930D01*
X18814785Y-33376568D01*
X18895198Y-33358216D01*
X19152761Y-33268094D01*
X19398614Y-33149701D01*
X19466847Y-33106827D01*
X19491768Y-33094814D01*
X19495017Y-33093673D01*
X19495027Y-33093671D01*
X19738324Y-32980431D01*
X19764436Y-32971654D01*
X19920735Y-32937861D01*
X19938767Y-32935332D01*
X20121342Y-32923274D01*
X20129783Y-32922447D01*
X20373213Y-32890981D01*
X20384737Y-32888960D01*
X20384734Y-32888960D01*
X20384736Y-32888959D01*
X20384739Y-32888959D01*
X20398216Y-32885964D01*
X20404153Y-32884360D01*
X20409509Y-32882914D01*
X20477888Y-32861095D01*
X20602710Y-32821268D01*
X20610161Y-32819391D01*
X20623556Y-32816888D01*
X20655036Y-32804691D01*
X20658531Y-32803457D01*
X20717041Y-32784790D01*
X20722871Y-32782667D01*
X20733122Y-32778686D01*
X20737011Y-32776093D01*
X20760997Y-32763642D01*
X20814427Y-32742944D01*
X20988462Y-32635186D01*
X21139732Y-32497285D01*
X21263088Y-32333935D01*
X21354328Y-32150701D01*
X21410345Y-31953821D01*
X21429232Y-31750000D01*
X21410345Y-31546179D01*
X21354328Y-31349299D01*
X21263088Y-31166065D01*
X21156634Y-31025097D01*
X21139730Y-31002712D01*
X20988462Y-30864814D01*
X20988460Y-30864812D01*
X20814430Y-30757057D01*
X20814424Y-30757054D01*
X20625373Y-30683816D01*
X20623556Y-30683112D01*
X20422347Y-30645500D01*
X20217653Y-30645500D01*
X20016444Y-30683112D01*
X20016441Y-30683112D01*
X20016441Y-30683113D01*
X19825575Y-30757054D01*
X19825569Y-30757057D01*
X19651539Y-30864812D01*
X19651537Y-30864814D01*
X19500269Y-31002712D01*
X19376912Y-31166064D01*
X19285672Y-31349297D01*
X19285669Y-31349303D01*
X19229655Y-31546175D01*
X19229655Y-31546176D01*
X19225104Y-31595283D01*
X19222156Y-31612998D01*
X19208405Y-31669835D01*
X19205538Y-31686204D01*
X19205537Y-31686212D01*
X19205537Y-31686213D01*
X19203398Y-31705699D01*
X19203398Y-31705700D01*
X19202645Y-31722290D01*
X19207511Y-31982187D01*
X19212691Y-32129559D01*
X19206342Y-32173314D01*
X19198249Y-32197465D01*
X19161217Y-32252347D01*
X19036111Y-32359222D01*
X19035826Y-32358889D01*
X19023669Y-32368828D01*
X19010204Y-32377825D01*
X19003171Y-32381885D01*
X18826230Y-32469140D01*
X18818729Y-32472247D01*
X18631906Y-32535663D01*
X18624063Y-32537765D01*
X18430558Y-32576253D01*
X18422509Y-32577312D01*
X18223304Y-32590366D01*
X18219249Y-32590499D01*
X18149838Y-32590499D01*
X18149826Y-32590500D01*
X16823588Y-32590500D01*
X16796571Y-32586211D01*
X16796310Y-32587400D01*
X16790360Y-32586089D01*
X16539399Y-32556205D01*
X16500289Y-32544809D01*
X16390501Y-32491972D01*
X16364180Y-32474900D01*
X16230617Y-32361893D01*
X16026207Y-32193741D01*
X16026206Y-32193740D01*
X16016186Y-32186276D01*
X16016187Y-32186277D01*
X16016179Y-32186271D01*
X16004022Y-32178093D01*
X16004018Y-32178090D01*
X15993454Y-32171693D01*
X15993455Y-32171694D01*
X15790240Y-32061493D01*
X15787156Y-32059704D01*
X15787146Y-32059698D01*
X15734427Y-32027056D01*
X15734425Y-32027055D01*
X15734423Y-32027054D01*
X15711184Y-32018050D01*
X15704026Y-32014740D01*
X15697478Y-32011190D01*
X15691564Y-32008176D01*
X15690331Y-32007587D01*
X15687483Y-32006226D01*
X15675144Y-32000719D01*
X15675140Y-32000718D01*
X15675138Y-32000717D01*
X15667652Y-31999220D01*
X15647182Y-31993256D01*
X15543561Y-31953113D01*
X15543556Y-31953112D01*
X15342347Y-31915500D01*
X15137653Y-31915500D01*
X14972289Y-31946411D01*
X14936438Y-31953113D01*
X14795823Y-32007587D01*
X14791785Y-32008993D01*
X14779615Y-32012765D01*
X14779609Y-32012768D01*
X14775967Y-32014743D01*
X14768814Y-32018051D01*
X14745575Y-32027054D01*
X14745568Y-32027058D01*
X14692850Y-32059698D01*
X14689769Y-32061485D01*
X14525248Y-32150704D01*
X14486525Y-32171703D01*
X14483866Y-32173314D01*
X14475977Y-32178093D01*
X14475927Y-32178123D01*
X14463781Y-32186298D01*
X14457037Y-32191323D01*
X14453794Y-32193740D01*
X14453791Y-32193742D01*
X14382549Y-32252347D01*
X14249381Y-32361893D01*
X14115815Y-32474902D01*
X14089494Y-32491973D01*
X13979705Y-32544809D01*
X13940596Y-32556205D01*
X13689631Y-32586091D01*
X13684562Y-32587129D01*
X13684439Y-32586529D01*
X13656790Y-32590500D01*
X6663583Y-32590500D01*
X6636569Y-32586212D01*
X6636308Y-32587401D01*
X6630358Y-32586090D01*
X6379402Y-32556206D01*
X6340292Y-32544810D01*
X6230500Y-32491972D01*
X6204179Y-32474900D01*
X6070617Y-32361893D01*
X5866207Y-32193741D01*
X5866206Y-32193740D01*
X5856186Y-32186276D01*
X5856187Y-32186277D01*
X5856179Y-32186271D01*
X5844022Y-32178093D01*
X5844018Y-32178090D01*
X5833454Y-32171693D01*
X5833455Y-32171694D01*
X5630240Y-32061493D01*
X5627156Y-32059704D01*
X5627146Y-32059698D01*
X5574427Y-32027056D01*
X5574425Y-32027055D01*
X5574423Y-32027054D01*
X5551184Y-32018050D01*
X5544026Y-32014740D01*
X5537478Y-32011190D01*
X5531564Y-32008176D01*
X5530331Y-32007587D01*
X5527483Y-32006226D01*
X5515144Y-32000719D01*
X5515140Y-32000718D01*
X5515138Y-32000717D01*
X5507652Y-31999220D01*
X5487182Y-31993256D01*
X5383561Y-31953113D01*
X5383556Y-31953112D01*
X5182347Y-31915500D01*
X4977653Y-31915500D01*
X4812289Y-31946411D01*
X4776438Y-31953113D01*
X4635823Y-32007587D01*
X4631785Y-32008993D01*
X4619615Y-32012765D01*
X4619609Y-32012768D01*
X4615967Y-32014743D01*
X4608814Y-32018051D01*
X4585575Y-32027054D01*
X4585568Y-32027058D01*
X4532850Y-32059698D01*
X4529769Y-32061485D01*
X4365248Y-32150704D01*
X4326525Y-32171703D01*
X4323866Y-32173314D01*
X4315977Y-32178093D01*
X4315927Y-32178123D01*
X4303781Y-32186298D01*
X4297037Y-32191323D01*
X4293794Y-32193740D01*
X4293791Y-32193742D01*
X4222549Y-32252347D01*
X4089381Y-32361893D01*
X3955815Y-32474902D01*
X3929495Y-32491973D01*
X3863771Y-32523603D01*
X3794826Y-32534937D01*
X3756225Y-32523603D01*
X3690501Y-32491973D01*
X3664180Y-32474901D01*
X3530617Y-32361893D01*
X3326207Y-32193741D01*
X3326206Y-32193740D01*
X3316186Y-32186276D01*
X3316187Y-32186277D01*
X3316179Y-32186271D01*
X3304022Y-32178093D01*
X3304018Y-32178090D01*
X3293454Y-32171693D01*
X3293455Y-32171694D01*
X3090240Y-32061493D01*
X3087156Y-32059704D01*
X3087146Y-32059698D01*
X3034427Y-32027056D01*
X3034425Y-32027055D01*
X3034423Y-32027054D01*
X3011184Y-32018050D01*
X3004026Y-32014740D01*
X2997478Y-32011190D01*
X2991564Y-32008176D01*
X2990331Y-32007587D01*
X2987483Y-32006226D01*
X2975144Y-32000719D01*
X2975140Y-32000718D01*
X2975138Y-32000717D01*
X2967652Y-31999220D01*
X2947182Y-31993256D01*
X2843561Y-31953113D01*
X2843556Y-31953112D01*
X2642347Y-31915500D01*
X2437653Y-31915500D01*
X2236444Y-31953112D01*
X2236441Y-31953112D01*
X2236441Y-31953113D01*
X2045575Y-32027054D01*
X2045569Y-32027057D01*
X1871539Y-32134812D01*
X1871537Y-32134814D01*
X1720269Y-32272712D01*
X1596912Y-32436064D01*
X1505673Y-32619295D01*
X1505671Y-32619299D01*
X1505672Y-32619299D01*
X1453279Y-32803444D01*
X1449654Y-32816183D01*
X1430768Y-33019999D01*
X1430768Y-33020000D01*
X-3556000Y-33020000D01*
X-3556000Y-30480000D01*
X1430768Y-30480000D01*
X1449654Y-30683816D01*
X1449654Y-30683818D01*
X1449655Y-30683821D01*
X1487893Y-30818213D01*
X1505673Y-30880704D01*
X1596912Y-31063935D01*
X1720269Y-31227287D01*
X1871537Y-31365185D01*
X1871539Y-31365187D01*
X2045569Y-31472942D01*
X2045575Y-31472945D01*
X2072506Y-31483378D01*
X2236444Y-31546888D01*
X2437653Y-31584500D01*
X2437656Y-31584500D01*
X2642344Y-31584500D01*
X2642347Y-31584500D01*
X2843556Y-31546888D01*
X2984227Y-31492390D01*
X2988211Y-31491003D01*
X3000390Y-31487230D01*
X3004013Y-31485264D01*
X3011164Y-31481955D01*
X3034427Y-31472944D01*
X3087190Y-31440273D01*
X3090234Y-31438507D01*
X3225446Y-31365185D01*
X3293463Y-31328301D01*
X3293462Y-31328301D01*
X3304055Y-31321884D01*
X3304056Y-31321883D01*
X3304056Y-31321884D01*
X3316209Y-31313705D01*
X3316210Y-31313704D01*
X3316209Y-31313704D01*
X3316219Y-31313698D01*
X3326213Y-31306252D01*
X3326216Y-31306250D01*
X3326215Y-31306251D01*
X3530617Y-31138106D01*
X3664177Y-31025098D01*
X3690493Y-31008028D01*
X3756227Y-30976393D01*
X3825168Y-30965060D01*
X3863765Y-30976392D01*
X3929500Y-31008028D01*
X3955816Y-31025095D01*
X4089382Y-31138105D01*
X4089383Y-31138106D01*
X4293781Y-31306249D01*
X4293782Y-31306249D01*
X4293784Y-31306251D01*
X4303779Y-31313698D01*
X4315943Y-31321884D01*
X4315945Y-31321885D01*
X4326536Y-31328301D01*
X4529749Y-31438500D01*
X4532833Y-31440289D01*
X4554232Y-31453538D01*
X4585573Y-31472944D01*
X4608811Y-31481946D01*
X4615978Y-31485261D01*
X4622523Y-31488810D01*
X4628424Y-31491819D01*
X4632495Y-31493764D01*
X4635699Y-31495194D01*
X4644855Y-31499280D01*
X4652336Y-31500775D01*
X4672811Y-31506739D01*
X4776444Y-31546888D01*
X4977653Y-31584500D01*
X4977656Y-31584500D01*
X5182344Y-31584500D01*
X5182347Y-31584500D01*
X5383556Y-31546888D01*
X5524227Y-31492390D01*
X5528211Y-31491003D01*
X5540390Y-31487230D01*
X5544013Y-31485264D01*
X5551164Y-31481955D01*
X5574427Y-31472944D01*
X5627190Y-31440273D01*
X5630234Y-31438507D01*
X5765446Y-31365185D01*
X5833463Y-31328301D01*
X5833462Y-31328301D01*
X5844055Y-31321884D01*
X5844056Y-31321883D01*
X5844056Y-31321884D01*
X5856209Y-31313705D01*
X5856210Y-31313704D01*
X5856209Y-31313704D01*
X5856219Y-31313698D01*
X5866213Y-31306252D01*
X5866216Y-31306250D01*
X5866215Y-31306251D01*
X6070617Y-31138106D01*
X6204177Y-31025098D01*
X6230496Y-31008027D01*
X6340294Y-30955186D01*
X6379400Y-30943791D01*
X6630366Y-30913907D01*
X6630375Y-30913904D01*
X6635428Y-30912871D01*
X6635550Y-30913469D01*
X6663201Y-30909500D01*
X13656416Y-30909500D01*
X13683429Y-30913787D01*
X13683691Y-30912599D01*
X13689625Y-30913905D01*
X13689633Y-30913908D01*
X13940592Y-30943791D01*
X13979702Y-30955187D01*
X14089497Y-31008027D01*
X14115817Y-31025098D01*
X14249382Y-31138106D01*
X14453781Y-31306249D01*
X14453782Y-31306249D01*
X14453784Y-31306251D01*
X14463779Y-31313698D01*
X14475943Y-31321884D01*
X14475945Y-31321885D01*
X14486536Y-31328301D01*
X14689749Y-31438500D01*
X14692833Y-31440289D01*
X14714232Y-31453538D01*
X14745573Y-31472944D01*
X14768811Y-31481946D01*
X14775978Y-31485261D01*
X14782523Y-31488810D01*
X14788424Y-31491819D01*
X14792495Y-31493764D01*
X14795699Y-31495194D01*
X14804855Y-31499280D01*
X14812336Y-31500775D01*
X14832811Y-31506739D01*
X14936444Y-31546888D01*
X15137653Y-31584500D01*
X15137656Y-31584500D01*
X15342344Y-31584500D01*
X15342347Y-31584500D01*
X15543556Y-31546888D01*
X15684227Y-31492390D01*
X15688211Y-31491003D01*
X15700390Y-31487230D01*
X15704013Y-31485264D01*
X15711164Y-31481955D01*
X15734427Y-31472944D01*
X15787190Y-31440273D01*
X15790234Y-31438507D01*
X15925446Y-31365185D01*
X15993463Y-31328301D01*
X15993462Y-31328301D01*
X16004055Y-31321884D01*
X16004056Y-31321883D01*
X16004056Y-31321884D01*
X16016209Y-31313705D01*
X16016210Y-31313704D01*
X16016209Y-31313704D01*
X16016219Y-31313698D01*
X16026213Y-31306252D01*
X16026216Y-31306250D01*
X16026215Y-31306251D01*
X16230617Y-31138106D01*
X16364177Y-31025098D01*
X16390492Y-31008029D01*
X16500293Y-30955186D01*
X16539397Y-30943792D01*
X16790367Y-30913908D01*
X16790381Y-30913903D01*
X16795425Y-30912872D01*
X16795547Y-30913471D01*
X16823204Y-30909500D01*
X18255871Y-30909500D01*
X18256387Y-30909480D01*
X18358005Y-30909482D01*
X18629164Y-30878933D01*
X18629171Y-30878931D01*
X18629180Y-30878930D01*
X18814785Y-30836568D01*
X18895198Y-30818216D01*
X19152761Y-30728094D01*
X19398614Y-30609701D01*
X19466847Y-30566827D01*
X19491768Y-30554814D01*
X19495017Y-30553673D01*
X19495027Y-30553671D01*
X19738324Y-30440431D01*
X19764436Y-30431654D01*
X19920735Y-30397861D01*
X19938767Y-30395332D01*
X20121342Y-30383274D01*
X20129783Y-30382447D01*
X20373213Y-30350981D01*
X20384737Y-30348960D01*
X20384734Y-30348960D01*
X20384736Y-30348959D01*
X20384739Y-30348959D01*
X20398216Y-30345964D01*
X20404153Y-30344360D01*
X20409509Y-30342914D01*
X20477888Y-30321095D01*
X20602710Y-30281268D01*
X20610161Y-30279391D01*
X20623556Y-30276888D01*
X20655036Y-30264691D01*
X20658531Y-30263457D01*
X20717041Y-30244790D01*
X20722871Y-30242667D01*
X20733122Y-30238686D01*
X20737011Y-30236093D01*
X20760997Y-30223642D01*
X20814427Y-30202944D01*
X20988462Y-30095186D01*
X21139732Y-29957285D01*
X21263088Y-29793935D01*
X21354328Y-29610701D01*
X21410345Y-29413821D01*
X21429232Y-29210000D01*
X21410345Y-29006179D01*
X21354328Y-28809299D01*
X21263088Y-28626065D01*
X21139732Y-28462715D01*
X21139730Y-28462712D01*
X20988462Y-28324814D01*
X20988460Y-28324812D01*
X20814430Y-28217057D01*
X20814424Y-28217054D01*
X20625373Y-28143816D01*
X20623556Y-28143112D01*
X20422347Y-28105500D01*
X20217653Y-28105500D01*
X20016444Y-28143112D01*
X20016441Y-28143112D01*
X20016441Y-28143113D01*
X19825575Y-28217054D01*
X19825569Y-28217057D01*
X19651539Y-28324812D01*
X19651537Y-28324814D01*
X19500269Y-28462712D01*
X19376912Y-28626064D01*
X19285672Y-28809297D01*
X19285669Y-28809303D01*
X19229655Y-29006175D01*
X19229655Y-29006176D01*
X19225104Y-29055283D01*
X19222156Y-29072998D01*
X19208405Y-29129835D01*
X19205538Y-29146204D01*
X19205537Y-29146212D01*
X19205537Y-29146213D01*
X19203398Y-29165699D01*
X19203398Y-29165700D01*
X19202645Y-29182290D01*
X19207511Y-29442187D01*
X19212691Y-29589559D01*
X19206342Y-29633314D01*
X19198249Y-29657465D01*
X19161217Y-29712347D01*
X19036111Y-29819222D01*
X19035826Y-29818889D01*
X19023669Y-29828828D01*
X19010204Y-29837825D01*
X19003171Y-29841885D01*
X18826230Y-29929140D01*
X18818729Y-29932247D01*
X18631906Y-29995663D01*
X18624063Y-29997765D01*
X18430558Y-30036253D01*
X18422509Y-30037312D01*
X18223304Y-30050366D01*
X18219249Y-30050499D01*
X18149838Y-30050499D01*
X18149826Y-30050500D01*
X16823588Y-30050500D01*
X16796571Y-30046211D01*
X16796310Y-30047400D01*
X16790360Y-30046089D01*
X16539399Y-30016205D01*
X16500289Y-30004809D01*
X16390501Y-29951972D01*
X16364180Y-29934900D01*
X16230617Y-29821893D01*
X16026207Y-29653741D01*
X16026206Y-29653740D01*
X16016186Y-29646276D01*
X16016187Y-29646277D01*
X16016179Y-29646271D01*
X16004022Y-29638093D01*
X16004018Y-29638090D01*
X15993454Y-29631693D01*
X15993455Y-29631694D01*
X15790240Y-29521493D01*
X15787156Y-29519704D01*
X15787146Y-29519698D01*
X15734427Y-29487056D01*
X15734425Y-29487055D01*
X15734423Y-29487054D01*
X15711184Y-29478050D01*
X15704026Y-29474740D01*
X15697478Y-29471190D01*
X15691564Y-29468176D01*
X15690331Y-29467587D01*
X15687483Y-29466226D01*
X15675144Y-29460719D01*
X15675140Y-29460718D01*
X15675138Y-29460717D01*
X15667652Y-29459220D01*
X15647182Y-29453256D01*
X15543561Y-29413113D01*
X15543556Y-29413112D01*
X15342347Y-29375500D01*
X15137653Y-29375500D01*
X14972289Y-29406411D01*
X14936438Y-29413113D01*
X14795823Y-29467587D01*
X14791785Y-29468993D01*
X14779615Y-29472765D01*
X14779609Y-29472768D01*
X14775967Y-29474743D01*
X14768814Y-29478051D01*
X14745575Y-29487054D01*
X14745568Y-29487058D01*
X14692850Y-29519698D01*
X14689769Y-29521485D01*
X14525248Y-29610704D01*
X14486525Y-29631703D01*
X14483866Y-29633314D01*
X14475977Y-29638093D01*
X14475927Y-29638123D01*
X14463781Y-29646298D01*
X14457037Y-29651323D01*
X14453794Y-29653740D01*
X14453791Y-29653742D01*
X14382549Y-29712347D01*
X14249381Y-29821893D01*
X14115815Y-29934902D01*
X14089494Y-29951973D01*
X13979705Y-30004809D01*
X13940596Y-30016205D01*
X13689631Y-30046091D01*
X13684562Y-30047129D01*
X13684439Y-30046529D01*
X13656790Y-30050500D01*
X6663583Y-30050500D01*
X6636569Y-30046212D01*
X6636308Y-30047401D01*
X6630358Y-30046090D01*
X6379402Y-30016206D01*
X6340292Y-30004810D01*
X6230500Y-29951972D01*
X6204179Y-29934900D01*
X6070617Y-29821893D01*
X5866207Y-29653741D01*
X5866206Y-29653740D01*
X5856186Y-29646276D01*
X5856187Y-29646277D01*
X5856179Y-29646271D01*
X5844022Y-29638093D01*
X5844018Y-29638090D01*
X5833454Y-29631693D01*
X5833455Y-29631694D01*
X5630240Y-29521493D01*
X5627156Y-29519704D01*
X5627146Y-29519698D01*
X5574427Y-29487056D01*
X5574425Y-29487055D01*
X5574423Y-29487054D01*
X5551184Y-29478050D01*
X5544026Y-29474740D01*
X5537478Y-29471190D01*
X5531564Y-29468176D01*
X5530331Y-29467587D01*
X5527483Y-29466226D01*
X5515144Y-29460719D01*
X5515140Y-29460718D01*
X5515138Y-29460717D01*
X5507652Y-29459220D01*
X5487182Y-29453256D01*
X5383561Y-29413113D01*
X5383556Y-29413112D01*
X5182347Y-29375500D01*
X4977653Y-29375500D01*
X4812289Y-29406411D01*
X4776438Y-29413113D01*
X4635823Y-29467587D01*
X4631785Y-29468993D01*
X4619615Y-29472765D01*
X4619609Y-29472768D01*
X4615967Y-29474743D01*
X4608814Y-29478051D01*
X4585575Y-29487054D01*
X4585568Y-29487058D01*
X4532850Y-29519698D01*
X4529769Y-29521485D01*
X4365248Y-29610704D01*
X4326525Y-29631703D01*
X4323866Y-29633314D01*
X4315977Y-29638093D01*
X4315927Y-29638123D01*
X4303781Y-29646298D01*
X4297037Y-29651323D01*
X4293794Y-29653740D01*
X4293791Y-29653742D01*
X4222549Y-29712347D01*
X4089381Y-29821893D01*
X3955815Y-29934902D01*
X3929495Y-29951973D01*
X3863771Y-29983603D01*
X3794826Y-29994937D01*
X3756225Y-29983603D01*
X3690501Y-29951973D01*
X3664180Y-29934901D01*
X3530617Y-29821893D01*
X3326207Y-29653741D01*
X3326206Y-29653740D01*
X3316186Y-29646276D01*
X3316187Y-29646277D01*
X3316179Y-29646271D01*
X3304022Y-29638093D01*
X3304018Y-29638090D01*
X3293454Y-29631693D01*
X3293455Y-29631694D01*
X3090240Y-29521493D01*
X3087156Y-29519704D01*
X3087146Y-29519698D01*
X3034427Y-29487056D01*
X3034425Y-29487055D01*
X3034423Y-29487054D01*
X3011184Y-29478050D01*
X3004026Y-29474740D01*
X2997478Y-29471190D01*
X2991564Y-29468176D01*
X2990331Y-29467587D01*
X2987483Y-29466226D01*
X2975144Y-29460719D01*
X2975140Y-29460718D01*
X2975138Y-29460717D01*
X2967652Y-29459220D01*
X2947182Y-29453256D01*
X2843561Y-29413113D01*
X2843556Y-29413112D01*
X2642347Y-29375500D01*
X2437653Y-29375500D01*
X2236444Y-29413112D01*
X2236441Y-29413112D01*
X2236441Y-29413113D01*
X2045575Y-29487054D01*
X2045569Y-29487057D01*
X1871539Y-29594812D01*
X1871537Y-29594814D01*
X1720269Y-29732712D01*
X1596912Y-29896064D01*
X1505673Y-30079295D01*
X1505671Y-30079299D01*
X1505672Y-30079299D01*
X1453279Y-30263444D01*
X1449654Y-30276183D01*
X1430768Y-30479999D01*
X1430768Y-30480000D01*
X-3556000Y-30480000D01*
X-3556000Y-27940000D01*
X1430768Y-27940000D01*
X1449654Y-28143816D01*
X1449654Y-28143818D01*
X1449655Y-28143821D01*
X1501151Y-28324812D01*
X1505673Y-28340704D01*
X1596912Y-28523935D01*
X1720269Y-28687287D01*
X1871537Y-28825185D01*
X1871539Y-28825187D01*
X2045569Y-28932942D01*
X2045575Y-28932945D01*
X2086010Y-28948609D01*
X2236444Y-29006888D01*
X2437653Y-29044500D01*
X2437656Y-29044500D01*
X2642344Y-29044500D01*
X2642347Y-29044500D01*
X2843556Y-29006888D01*
X3034427Y-28932944D01*
X3208462Y-28825186D01*
X3359732Y-28687285D01*
X3483088Y-28523935D01*
X3574328Y-28340701D01*
X3630345Y-28143821D01*
X3649232Y-27940000D01*
X3630345Y-27736179D01*
X3574328Y-27539299D01*
X3483088Y-27356065D01*
X3359732Y-27192715D01*
X3359730Y-27192712D01*
X3208462Y-27054814D01*
X3208460Y-27054812D01*
X3034430Y-26947057D01*
X3034424Y-26947054D01*
X2845386Y-26873821D01*
X2843556Y-26873112D01*
X2642347Y-26835500D01*
X2437653Y-26835500D01*
X2236444Y-26873112D01*
X2236441Y-26873112D01*
X2236441Y-26873113D01*
X2045575Y-26947054D01*
X2045569Y-26947057D01*
X1871539Y-27054812D01*
X1871537Y-27054814D01*
X1720269Y-27192712D01*
X1596912Y-27356064D01*
X1505673Y-27539295D01*
X1449654Y-27736183D01*
X1430768Y-27939999D01*
X1430768Y-27940000D01*
X-3556000Y-27940000D01*
X-3556000Y-25400000D01*
X1430768Y-25400000D01*
X1449654Y-25603816D01*
X1449654Y-25603818D01*
X1449655Y-25603821D01*
X1461722Y-25646232D01*
X1505673Y-25800704D01*
X1596912Y-25983935D01*
X1720269Y-26147287D01*
X1871537Y-26285185D01*
X1871539Y-26285187D01*
X2045569Y-26392942D01*
X2045575Y-26392945D01*
X2072506Y-26403378D01*
X2236444Y-26466888D01*
X2437653Y-26504500D01*
X2437656Y-26504500D01*
X2642344Y-26504500D01*
X2642347Y-26504500D01*
X2843556Y-26466888D01*
X2984227Y-26412390D01*
X2988211Y-26411003D01*
X3000390Y-26407230D01*
X3004013Y-26405264D01*
X3011164Y-26401955D01*
X3034427Y-26392944D01*
X3087190Y-26360273D01*
X3090234Y-26358507D01*
X3225446Y-26285185D01*
X3293463Y-26248301D01*
X3293462Y-26248301D01*
X3304055Y-26241884D01*
X3304056Y-26241883D01*
X3304056Y-26241884D01*
X3316209Y-26233705D01*
X3316210Y-26233704D01*
X3316209Y-26233704D01*
X3316219Y-26233698D01*
X3326213Y-26226252D01*
X3326216Y-26226250D01*
X3326215Y-26226251D01*
X3530617Y-26058106D01*
X3664177Y-25945098D01*
X3690492Y-25928029D01*
X3800293Y-25875186D01*
X3839397Y-25863792D01*
X4090367Y-25833908D01*
X4090381Y-25833903D01*
X4095425Y-25832872D01*
X4095547Y-25833471D01*
X4123204Y-25829500D01*
X5401416Y-25829500D01*
X5428429Y-25833787D01*
X5428691Y-25832599D01*
X5434625Y-25833905D01*
X5434633Y-25833908D01*
X5685592Y-25863791D01*
X5724702Y-25875187D01*
X5834497Y-25928027D01*
X5860817Y-25945098D01*
X5994382Y-26058106D01*
X6198781Y-26226249D01*
X6198782Y-26226249D01*
X6198784Y-26226251D01*
X6208779Y-26233698D01*
X6220943Y-26241884D01*
X6220945Y-26241885D01*
X6231536Y-26248301D01*
X6434749Y-26358500D01*
X6437833Y-26360289D01*
X6459232Y-26373538D01*
X6490573Y-26392944D01*
X6513811Y-26401946D01*
X6520978Y-26405261D01*
X6527523Y-26408810D01*
X6533424Y-26411819D01*
X6537495Y-26413764D01*
X6540699Y-26415194D01*
X6549855Y-26419280D01*
X6557336Y-26420775D01*
X6577811Y-26426739D01*
X6681444Y-26466888D01*
X6882653Y-26504500D01*
X6882656Y-26504500D01*
X7087344Y-26504500D01*
X7087347Y-26504500D01*
X7288556Y-26466888D01*
X7479427Y-26392944D01*
X7653462Y-26285186D01*
X7804732Y-26147285D01*
X7928088Y-25983935D01*
X8019328Y-25800701D01*
X8075345Y-25603821D01*
X8094232Y-25400000D01*
X8092799Y-25384541D01*
X8086178Y-25313088D01*
X8075345Y-25196179D01*
X8019328Y-24999299D01*
X7928088Y-24816065D01*
X7804732Y-24652715D01*
X7804730Y-24652712D01*
X7653462Y-24514814D01*
X7653460Y-24514812D01*
X7479430Y-24407057D01*
X7479424Y-24407054D01*
X7290386Y-24333821D01*
X7288556Y-24333112D01*
X7087347Y-24295500D01*
X6882653Y-24295500D01*
X6717289Y-24326411D01*
X6681438Y-24333113D01*
X6540823Y-24387587D01*
X6536785Y-24388993D01*
X6524615Y-24392765D01*
X6524609Y-24392768D01*
X6520967Y-24394743D01*
X6513814Y-24398051D01*
X6490575Y-24407054D01*
X6490568Y-24407058D01*
X6437850Y-24439698D01*
X6434769Y-24441485D01*
X6270248Y-24530704D01*
X6231525Y-24551703D01*
X6223486Y-24556572D01*
X6220977Y-24558093D01*
X6220927Y-24558123D01*
X6208781Y-24566298D01*
X6202037Y-24571323D01*
X6198794Y-24573740D01*
X6198791Y-24573742D01*
X6108241Y-24648230D01*
X5994381Y-24741893D01*
X5860815Y-24854902D01*
X5834494Y-24871973D01*
X5724705Y-24924809D01*
X5685596Y-24936205D01*
X5434631Y-24966091D01*
X5429562Y-24967129D01*
X5429439Y-24966529D01*
X5401790Y-24970500D01*
X4123588Y-24970500D01*
X4096571Y-24966211D01*
X4096310Y-24967400D01*
X4090360Y-24966089D01*
X3839399Y-24936205D01*
X3800289Y-24924809D01*
X3690501Y-24871972D01*
X3664180Y-24854900D01*
X3530617Y-24741893D01*
X3326207Y-24573741D01*
X3326206Y-24573740D01*
X3316186Y-24566276D01*
X3316187Y-24566277D01*
X3316179Y-24566271D01*
X3304022Y-24558093D01*
X3304018Y-24558090D01*
X3293454Y-24551693D01*
X3293455Y-24551694D01*
X3090240Y-24441493D01*
X3087156Y-24439704D01*
X3087146Y-24439698D01*
X3034427Y-24407056D01*
X3034425Y-24407055D01*
X3034423Y-24407054D01*
X3011184Y-24398050D01*
X3004026Y-24394740D01*
X2997478Y-24391190D01*
X2991564Y-24388176D01*
X2990331Y-24387587D01*
X2987483Y-24386226D01*
X2975144Y-24380719D01*
X2975140Y-24380718D01*
X2975138Y-24380717D01*
X2967652Y-24379220D01*
X2947182Y-24373256D01*
X2843561Y-24333113D01*
X2843556Y-24333112D01*
X2642347Y-24295500D01*
X2437653Y-24295500D01*
X2236444Y-24333112D01*
X2236441Y-24333112D01*
X2236441Y-24333113D01*
X2045575Y-24407054D01*
X2045569Y-24407057D01*
X1871539Y-24514812D01*
X1871537Y-24514814D01*
X1720269Y-24652712D01*
X1596912Y-24816064D01*
X1505673Y-24999295D01*
X1449654Y-25196183D01*
X1430768Y-25399999D01*
X1430768Y-25400000D01*
X-3556000Y-25400000D01*
X-3556000Y-22860000D01*
X1430768Y-22860000D01*
X1449654Y-23063816D01*
X1449654Y-23063818D01*
X1449655Y-23063821D01*
X1484347Y-23185751D01*
X1505673Y-23260704D01*
X1596912Y-23443935D01*
X1720269Y-23607287D01*
X1871537Y-23745185D01*
X1871539Y-23745187D01*
X2045569Y-23852942D01*
X2045575Y-23852945D01*
X2068810Y-23861946D01*
X2236444Y-23926888D01*
X2437653Y-23964500D01*
X2437656Y-23964500D01*
X2642344Y-23964500D01*
X2642347Y-23964500D01*
X2843556Y-23926888D01*
X2984227Y-23872390D01*
X2988211Y-23871003D01*
X3000390Y-23867230D01*
X3004013Y-23865264D01*
X3011164Y-23861955D01*
X3034427Y-23852944D01*
X3087190Y-23820273D01*
X3090234Y-23818507D01*
X3225446Y-23745185D01*
X3293463Y-23708301D01*
X3293462Y-23708301D01*
X3304055Y-23701884D01*
X3304056Y-23701883D01*
X3304056Y-23701884D01*
X3316209Y-23693705D01*
X3316210Y-23693704D01*
X3316209Y-23693704D01*
X3316219Y-23693698D01*
X3326213Y-23686252D01*
X3326216Y-23686250D01*
X3326215Y-23686251D01*
X3530617Y-23518106D01*
X3664177Y-23405098D01*
X3690492Y-23388029D01*
X3800293Y-23335186D01*
X3839397Y-23323792D01*
X4090367Y-23293908D01*
X4090381Y-23293903D01*
X4095425Y-23292872D01*
X4095547Y-23293471D01*
X4123204Y-23289500D01*
X6729820Y-23289500D01*
X6789534Y-23289500D01*
X6793590Y-23289633D01*
X6946710Y-23299668D01*
X6992512Y-23302670D01*
X7000549Y-23303728D01*
X7194057Y-23342220D01*
X7201894Y-23344320D01*
X7380940Y-23405098D01*
X7388723Y-23407740D01*
X7396216Y-23410843D01*
X7573181Y-23498113D01*
X7580197Y-23502164D01*
X7744250Y-23611780D01*
X7750684Y-23616716D01*
X7900577Y-23748170D01*
X7903539Y-23750944D01*
X7952814Y-23800219D01*
X7952819Y-23800223D01*
X9224504Y-25071909D01*
X9224514Y-25071920D01*
X9226846Y-25074252D01*
X9226847Y-25074253D01*
X9235124Y-25082530D01*
X9235157Y-25082590D01*
X9366981Y-25214411D01*
X9507322Y-25326326D01*
X9580323Y-25384541D01*
X9811376Y-25529718D01*
X10057231Y-25648113D01*
X10057234Y-25648114D01*
X10057236Y-25648115D01*
X10113284Y-25667726D01*
X10314796Y-25738235D01*
X10314805Y-25738237D01*
X10580816Y-25798950D01*
X10580826Y-25798951D01*
X10580833Y-25798953D01*
X10851994Y-25829502D01*
X10988433Y-25829500D01*
X11050186Y-25829500D01*
X18159823Y-25829500D01*
X18159826Y-25829501D01*
X18219543Y-25829500D01*
X18223598Y-25829633D01*
X18401609Y-25841297D01*
X18422514Y-25842667D01*
X18430550Y-25843724D01*
X18624072Y-25882215D01*
X18631910Y-25884316D01*
X18818736Y-25947733D01*
X18826236Y-25950840D01*
X18893349Y-25983935D01*
X19003190Y-26038101D01*
X19010216Y-26042157D01*
X19023161Y-26050807D01*
X19034585Y-26060376D01*
X19035031Y-26059855D01*
X19039659Y-26063809D01*
X19039662Y-26063812D01*
X19161217Y-26167653D01*
X19198248Y-26222534D01*
X19206341Y-26246685D01*
X19212690Y-26290439D01*
X19208404Y-26412403D01*
X19207511Y-26437814D01*
X19203164Y-26670000D01*
X19202645Y-26697697D01*
X19203397Y-26714292D01*
X19203397Y-26714293D01*
X19205535Y-26733773D01*
X19208404Y-26750157D01*
X19208404Y-26750158D01*
X19222154Y-26806990D01*
X19225103Y-26824706D01*
X19229654Y-26873817D01*
X19229654Y-26873820D01*
X19229655Y-26873821D01*
X19250492Y-26947057D01*
X19285673Y-27070704D01*
X19376912Y-27253935D01*
X19500269Y-27417287D01*
X19651537Y-27555185D01*
X19651539Y-27555187D01*
X19825569Y-27662942D01*
X19825575Y-27662945D01*
X19866010Y-27678609D01*
X20016444Y-27736888D01*
X20217653Y-27774500D01*
X20217656Y-27774500D01*
X20422344Y-27774500D01*
X20422347Y-27774500D01*
X20623556Y-27736888D01*
X20814427Y-27662944D01*
X20988462Y-27555186D01*
X21139732Y-27417285D01*
X21263088Y-27253935D01*
X21354328Y-27070701D01*
X21410345Y-26873821D01*
X21429232Y-26670000D01*
X21410345Y-26466179D01*
X21354328Y-26269299D01*
X21263088Y-26086065D01*
X21156635Y-25945098D01*
X21139730Y-25922712D01*
X20988463Y-25784815D01*
X20988462Y-25784814D01*
X20913230Y-25738232D01*
X20814428Y-25677056D01*
X20738797Y-25647756D01*
X20731180Y-25644195D01*
X20712055Y-25633618D01*
X20712052Y-25633616D01*
X20658561Y-25616549D01*
X20655012Y-25615297D01*
X20623562Y-25603114D01*
X20623558Y-25603112D01*
X20623556Y-25603112D01*
X20623553Y-25603111D01*
X20623545Y-25603109D01*
X20610175Y-25600610D01*
X20602718Y-25598731D01*
X20409524Y-25537090D01*
X20409523Y-25537090D01*
X20398276Y-25534051D01*
X20384815Y-25531053D01*
X20384817Y-25531054D01*
X20384814Y-25531053D01*
X20384812Y-25531053D01*
X20373240Y-25529021D01*
X20373235Y-25529020D01*
X20130045Y-25497586D01*
X20128363Y-25497417D01*
X20121661Y-25496745D01*
X20054016Y-25492278D01*
X19938770Y-25484667D01*
X19920737Y-25482137D01*
X19764442Y-25448345D01*
X19738323Y-25439565D01*
X19495022Y-25326326D01*
X19490377Y-25324639D01*
X19466754Y-25313090D01*
X19398623Y-25270281D01*
X19152768Y-25151887D01*
X19152766Y-25151886D01*
X19152765Y-25151885D01*
X18930893Y-25074253D01*
X18895203Y-25061765D01*
X18895199Y-25061764D01*
X18895196Y-25061763D01*
X18629179Y-25001049D01*
X18629156Y-25001045D01*
X18358011Y-24970498D01*
X18358006Y-24970498D01*
X18221567Y-24970500D01*
X11060174Y-24970500D01*
X11060162Y-24970499D01*
X10990455Y-24970499D01*
X10986400Y-24970366D01*
X10787488Y-24957332D01*
X10779439Y-24956273D01*
X10585931Y-24917784D01*
X10578091Y-24915683D01*
X10543996Y-24904110D01*
X10391265Y-24852267D01*
X10383764Y-24849160D01*
X10206812Y-24761899D01*
X10199780Y-24757840D01*
X10035734Y-24648230D01*
X10029293Y-24643287D01*
X9879648Y-24512055D01*
X9876686Y-24509280D01*
X9831926Y-24464520D01*
X9831903Y-24464499D01*
X8560228Y-23192823D01*
X8560216Y-23192809D01*
X8509489Y-23142084D01*
X8485172Y-23117766D01*
X8485112Y-23117710D01*
X8413011Y-23045609D01*
X8199669Y-22875474D01*
X8175042Y-22860000D01*
X9685768Y-22860000D01*
X9704654Y-23063816D01*
X9704654Y-23063818D01*
X9704655Y-23063821D01*
X9739347Y-23185751D01*
X9760673Y-23260704D01*
X9851912Y-23443935D01*
X9975269Y-23607287D01*
X10126537Y-23745185D01*
X10126539Y-23745187D01*
X10300569Y-23852942D01*
X10300575Y-23852945D01*
X10323810Y-23861946D01*
X10491444Y-23926888D01*
X10692653Y-23964500D01*
X10692656Y-23964500D01*
X10897344Y-23964500D01*
X10897347Y-23964500D01*
X11098556Y-23926888D01*
X11239227Y-23872390D01*
X11243211Y-23871003D01*
X11255390Y-23867230D01*
X11259013Y-23865264D01*
X11266164Y-23861955D01*
X11289427Y-23852944D01*
X11342190Y-23820273D01*
X11345234Y-23818507D01*
X11480446Y-23745185D01*
X11548463Y-23708301D01*
X11548462Y-23708301D01*
X11559055Y-23701884D01*
X11559056Y-23701883D01*
X11559056Y-23701884D01*
X11571209Y-23693705D01*
X11571210Y-23693704D01*
X11571209Y-23693704D01*
X11571219Y-23693698D01*
X11581213Y-23686252D01*
X11581216Y-23686250D01*
X11581215Y-23686251D01*
X11785617Y-23518106D01*
X11919177Y-23405098D01*
X11945492Y-23388029D01*
X12055293Y-23335186D01*
X12094397Y-23323792D01*
X12345367Y-23293908D01*
X12345381Y-23293903D01*
X12350425Y-23292872D01*
X12350547Y-23293471D01*
X12378204Y-23289500D01*
X18159823Y-23289500D01*
X18159826Y-23289501D01*
X18219543Y-23289500D01*
X18223598Y-23289633D01*
X18401609Y-23301297D01*
X18422514Y-23302667D01*
X18430550Y-23303724D01*
X18624072Y-23342215D01*
X18631910Y-23344316D01*
X18818736Y-23407733D01*
X18826236Y-23410840D01*
X18893349Y-23443935D01*
X19003190Y-23498101D01*
X19010216Y-23502157D01*
X19023161Y-23510807D01*
X19034585Y-23520376D01*
X19035031Y-23519855D01*
X19039659Y-23523809D01*
X19039662Y-23523812D01*
X19161217Y-23627653D01*
X19198248Y-23682534D01*
X19206341Y-23706685D01*
X19212690Y-23750439D01*
X19208721Y-23863378D01*
X19207511Y-23897814D01*
X19203164Y-24130000D01*
X19202645Y-24157697D01*
X19203397Y-24174292D01*
X19203397Y-24174293D01*
X19205535Y-24193773D01*
X19208404Y-24210157D01*
X19208404Y-24210158D01*
X19222154Y-24266990D01*
X19225103Y-24284706D01*
X19229654Y-24333817D01*
X19229654Y-24333820D01*
X19229655Y-24333821D01*
X19250492Y-24407057D01*
X19285673Y-24530704D01*
X19376912Y-24713935D01*
X19500269Y-24877287D01*
X19651537Y-25015185D01*
X19651539Y-25015187D01*
X19825569Y-25122942D01*
X19825575Y-25122945D01*
X19866010Y-25138609D01*
X20016444Y-25196888D01*
X20217653Y-25234500D01*
X20217656Y-25234500D01*
X20422344Y-25234500D01*
X20422347Y-25234500D01*
X20623556Y-25196888D01*
X20814427Y-25122944D01*
X20988462Y-25015186D01*
X21139732Y-24877285D01*
X21263088Y-24713935D01*
X21354328Y-24530701D01*
X21410345Y-24333821D01*
X21429232Y-24130000D01*
X21410345Y-23926179D01*
X21354328Y-23729299D01*
X21263088Y-23546065D01*
X21139732Y-23382715D01*
X21139730Y-23382712D01*
X20988463Y-23244815D01*
X20988462Y-23244814D01*
X20893069Y-23185749D01*
X20814428Y-23137056D01*
X20738797Y-23107756D01*
X20731180Y-23104195D01*
X20712055Y-23093618D01*
X20712052Y-23093616D01*
X20658561Y-23076549D01*
X20655012Y-23075297D01*
X20623562Y-23063114D01*
X20623558Y-23063112D01*
X20623556Y-23063112D01*
X20623553Y-23063111D01*
X20623545Y-23063109D01*
X20610175Y-23060610D01*
X20602718Y-23058731D01*
X20409524Y-22997090D01*
X20409523Y-22997090D01*
X20398276Y-22994051D01*
X20384815Y-22991053D01*
X20384817Y-22991054D01*
X20384814Y-22991053D01*
X20384812Y-22991053D01*
X20373240Y-22989021D01*
X20373235Y-22989020D01*
X20130045Y-22957586D01*
X20128363Y-22957417D01*
X20121661Y-22956745D01*
X20054016Y-22952278D01*
X19938770Y-22944667D01*
X19920737Y-22942137D01*
X19764442Y-22908345D01*
X19738323Y-22899565D01*
X19495022Y-22786326D01*
X19490377Y-22784639D01*
X19466754Y-22773090D01*
X19398623Y-22730281D01*
X19152768Y-22611887D01*
X19152766Y-22611886D01*
X19152765Y-22611885D01*
X18895237Y-22521777D01*
X18895203Y-22521765D01*
X18895199Y-22521764D01*
X18895196Y-22521763D01*
X18629179Y-22461049D01*
X18629156Y-22461045D01*
X18358011Y-22430498D01*
X18358006Y-22430498D01*
X18221567Y-22430500D01*
X12378588Y-22430500D01*
X12351571Y-22426211D01*
X12351310Y-22427400D01*
X12345360Y-22426089D01*
X12094399Y-22396205D01*
X12055289Y-22384809D01*
X11945501Y-22331972D01*
X11919180Y-22314900D01*
X11785617Y-22201893D01*
X11581207Y-22033741D01*
X11581206Y-22033740D01*
X11571186Y-22026276D01*
X11571187Y-22026277D01*
X11571179Y-22026271D01*
X11559022Y-22018093D01*
X11559018Y-22018090D01*
X11548454Y-22011693D01*
X11548455Y-22011694D01*
X11345240Y-21901493D01*
X11342156Y-21899704D01*
X11289432Y-21867059D01*
X11289430Y-21867058D01*
X11289427Y-21867056D01*
X11289425Y-21867055D01*
X11289423Y-21867054D01*
X11266184Y-21858050D01*
X11259026Y-21854740D01*
X11252478Y-21851190D01*
X11246564Y-21848176D01*
X11246560Y-21848174D01*
X11242483Y-21846226D01*
X11230144Y-21840719D01*
X11230140Y-21840718D01*
X11230138Y-21840717D01*
X11222652Y-21839220D01*
X11202182Y-21833256D01*
X11098561Y-21793113D01*
X11098556Y-21793112D01*
X10897347Y-21755500D01*
X10692653Y-21755500D01*
X10491444Y-21793112D01*
X10491441Y-21793112D01*
X10491441Y-21793113D01*
X10300575Y-21867054D01*
X10300569Y-21867057D01*
X10126539Y-21974812D01*
X10126537Y-21974814D01*
X9975269Y-22112712D01*
X9851912Y-22276064D01*
X9760673Y-22459295D01*
X9704654Y-22656183D01*
X9685768Y-22859999D01*
X9685768Y-22860000D01*
X8175042Y-22860000D01*
X8122652Y-22827081D01*
X7968623Y-22730298D01*
X7968581Y-22730278D01*
X7927889Y-22710681D01*
X7722774Y-22611902D01*
X7722760Y-22611896D01*
X7465215Y-22521777D01*
X7465203Y-22521773D01*
X7259891Y-22474912D01*
X7199171Y-22461053D01*
X7199167Y-22461052D01*
X7199158Y-22461051D01*
X6928015Y-22430500D01*
X6928011Y-22430500D01*
X6856310Y-22430500D01*
X4123588Y-22430500D01*
X4096571Y-22426211D01*
X4096310Y-22427400D01*
X4090360Y-22426089D01*
X3839399Y-22396205D01*
X3800289Y-22384809D01*
X3690501Y-22331972D01*
X3664180Y-22314900D01*
X3530617Y-22201893D01*
X3326207Y-22033741D01*
X3326206Y-22033740D01*
X3316186Y-22026276D01*
X3316187Y-22026277D01*
X3316179Y-22026271D01*
X3304022Y-22018093D01*
X3304018Y-22018090D01*
X3293454Y-22011693D01*
X3293455Y-22011694D01*
X3090240Y-21901493D01*
X3087156Y-21899704D01*
X3034432Y-21867059D01*
X3034430Y-21867058D01*
X3034427Y-21867056D01*
X3034425Y-21867055D01*
X3034423Y-21867054D01*
X3011184Y-21858050D01*
X3004026Y-21854740D01*
X2997478Y-21851190D01*
X2991564Y-21848176D01*
X2991560Y-21848174D01*
X2987483Y-21846226D01*
X2975144Y-21840719D01*
X2975140Y-21840718D01*
X2975138Y-21840717D01*
X2967652Y-21839220D01*
X2947182Y-21833256D01*
X2843561Y-21793113D01*
X2843556Y-21793112D01*
X2642347Y-21755500D01*
X2437653Y-21755500D01*
X2236444Y-21793112D01*
X2236441Y-21793112D01*
X2236441Y-21793113D01*
X2045575Y-21867054D01*
X2045569Y-21867057D01*
X1871539Y-21974812D01*
X1871537Y-21974814D01*
X1720269Y-22112712D01*
X1596912Y-22276064D01*
X1505673Y-22459295D01*
X1449654Y-22656183D01*
X1430768Y-22859999D01*
X1430768Y-22860000D01*
X-3556000Y-22860000D01*
X-3556000Y-21590000D01*
X19210768Y-21590000D01*
X19229654Y-21793816D01*
X19229654Y-21793818D01*
X19229655Y-21793821D01*
X19250493Y-21867059D01*
X19285673Y-21990704D01*
X19376912Y-22173935D01*
X19500269Y-22337287D01*
X19651537Y-22475185D01*
X19651539Y-22475187D01*
X19825569Y-22582942D01*
X19825575Y-22582945D01*
X19866010Y-22598609D01*
X20016444Y-22656888D01*
X20217653Y-22694500D01*
X20217656Y-22694500D01*
X20422344Y-22694500D01*
X20422347Y-22694500D01*
X20623556Y-22656888D01*
X20814427Y-22582944D01*
X20988462Y-22475186D01*
X21139732Y-22337285D01*
X21263088Y-22173935D01*
X21354328Y-21990701D01*
X21410345Y-21793821D01*
X21429232Y-21590000D01*
X21410345Y-21386179D01*
X21354328Y-21189299D01*
X21263088Y-21006065D01*
X21156635Y-20865098D01*
X21139730Y-20842712D01*
X20988462Y-20704814D01*
X20988460Y-20704812D01*
X20814430Y-20597057D01*
X20814424Y-20597054D01*
X20625373Y-20523816D01*
X20623556Y-20523112D01*
X20422347Y-20485500D01*
X20217653Y-20485500D01*
X20016444Y-20523112D01*
X20016441Y-20523112D01*
X20016441Y-20523113D01*
X19825575Y-20597054D01*
X19825569Y-20597057D01*
X19651539Y-20704812D01*
X19651537Y-20704814D01*
X19500269Y-20842712D01*
X19376912Y-21006064D01*
X19285673Y-21189295D01*
X19285671Y-21189299D01*
X19285672Y-21189299D01*
X19243000Y-21339278D01*
X19229654Y-21386183D01*
X19210768Y-21589999D01*
X19210768Y-21590000D01*
X-3556000Y-21590000D01*
X-3556000Y-20320000D01*
X1430768Y-20320000D01*
X1449654Y-20523816D01*
X1449654Y-20523818D01*
X1449655Y-20523821D01*
X1501151Y-20704812D01*
X1505673Y-20720704D01*
X1596912Y-20903935D01*
X1720269Y-21067287D01*
X1871537Y-21205185D01*
X1871539Y-21205187D01*
X2045569Y-21312942D01*
X2045575Y-21312945D01*
X2072506Y-21323378D01*
X2236444Y-21386888D01*
X2437653Y-21424500D01*
X2437656Y-21424500D01*
X2642344Y-21424500D01*
X2642347Y-21424500D01*
X2843556Y-21386888D01*
X2984227Y-21332390D01*
X2988211Y-21331003D01*
X3000390Y-21327230D01*
X3004013Y-21325264D01*
X3011164Y-21321955D01*
X3034427Y-21312944D01*
X3087190Y-21280273D01*
X3090234Y-21278507D01*
X3225446Y-21205185D01*
X3293463Y-21168301D01*
X3293462Y-21168301D01*
X3304055Y-21161884D01*
X3304056Y-21161883D01*
X3304056Y-21161884D01*
X3316209Y-21153705D01*
X3316210Y-21153704D01*
X3316209Y-21153704D01*
X3316219Y-21153698D01*
X3326213Y-21146252D01*
X3326216Y-21146250D01*
X3326215Y-21146251D01*
X3530617Y-20978106D01*
X3664177Y-20865098D01*
X3690492Y-20848029D01*
X3800293Y-20795186D01*
X3839397Y-20783792D01*
X4090367Y-20753908D01*
X4090381Y-20753903D01*
X4095425Y-20752872D01*
X4095547Y-20753471D01*
X4123204Y-20749500D01*
X11751416Y-20749500D01*
X11778429Y-20753787D01*
X11778691Y-20752599D01*
X11784625Y-20753905D01*
X11784633Y-20753908D01*
X12035592Y-20783791D01*
X12074702Y-20795187D01*
X12184497Y-20848027D01*
X12210817Y-20865098D01*
X12344382Y-20978106D01*
X12548781Y-21146249D01*
X12548782Y-21146249D01*
X12548784Y-21146251D01*
X12558779Y-21153698D01*
X12570943Y-21161884D01*
X12570945Y-21161885D01*
X12581536Y-21168301D01*
X12784749Y-21278500D01*
X12787833Y-21280289D01*
X12809232Y-21293538D01*
X12840573Y-21312944D01*
X12863811Y-21321946D01*
X12870978Y-21325261D01*
X12877523Y-21328810D01*
X12883424Y-21331819D01*
X12887495Y-21333764D01*
X12890699Y-21335194D01*
X12899855Y-21339280D01*
X12907336Y-21340775D01*
X12927811Y-21346739D01*
X13031444Y-21386888D01*
X13232653Y-21424500D01*
X13232656Y-21424500D01*
X13437344Y-21424500D01*
X13437347Y-21424500D01*
X13638556Y-21386888D01*
X13829427Y-21312944D01*
X14003462Y-21205186D01*
X14154732Y-21067285D01*
X14278088Y-20903935D01*
X14369328Y-20720701D01*
X14425345Y-20523821D01*
X14444232Y-20320000D01*
X14425345Y-20116179D01*
X14369328Y-19919299D01*
X14278088Y-19736065D01*
X14154732Y-19572715D01*
X14154730Y-19572712D01*
X14003462Y-19434814D01*
X14003460Y-19434812D01*
X13829430Y-19327057D01*
X13829424Y-19327054D01*
X13640373Y-19253816D01*
X13638556Y-19253112D01*
X13437347Y-19215500D01*
X13232653Y-19215500D01*
X13067289Y-19246411D01*
X13031438Y-19253113D01*
X12890823Y-19307587D01*
X12886785Y-19308993D01*
X12874615Y-19312765D01*
X12874609Y-19312768D01*
X12870967Y-19314743D01*
X12863814Y-19318051D01*
X12840575Y-19327054D01*
X12840568Y-19327058D01*
X12787850Y-19359698D01*
X12784769Y-19361485D01*
X12620248Y-19450704D01*
X12581525Y-19471703D01*
X12573486Y-19476572D01*
X12570977Y-19478093D01*
X12570927Y-19478123D01*
X12558781Y-19486298D01*
X12552037Y-19491323D01*
X12548794Y-19493740D01*
X12548791Y-19493742D01*
X12452793Y-19572712D01*
X12344381Y-19661893D01*
X12210815Y-19774902D01*
X12184494Y-19791973D01*
X12074705Y-19844809D01*
X12035596Y-19856205D01*
X11784631Y-19886091D01*
X11779562Y-19887129D01*
X11779439Y-19886529D01*
X11751790Y-19890500D01*
X4123588Y-19890500D01*
X4096571Y-19886211D01*
X4096310Y-19887400D01*
X4090360Y-19886089D01*
X3839399Y-19856205D01*
X3800289Y-19844809D01*
X3690501Y-19791972D01*
X3664180Y-19774900D01*
X3530617Y-19661893D01*
X3326207Y-19493741D01*
X3326206Y-19493740D01*
X3316186Y-19486276D01*
X3316187Y-19486277D01*
X3316179Y-19486271D01*
X3304022Y-19478093D01*
X3304018Y-19478090D01*
X3293454Y-19471693D01*
X3293455Y-19471694D01*
X3090240Y-19361493D01*
X3087156Y-19359704D01*
X3087146Y-19359698D01*
X3034427Y-19327056D01*
X3034425Y-19327055D01*
X3034423Y-19327054D01*
X3011184Y-19318050D01*
X3004026Y-19314740D01*
X2997478Y-19311190D01*
X2991564Y-19308176D01*
X2990331Y-19307587D01*
X2987483Y-19306226D01*
X2975144Y-19300719D01*
X2975140Y-19300718D01*
X2975138Y-19300717D01*
X2967652Y-19299220D01*
X2947182Y-19293256D01*
X2843561Y-19253113D01*
X2843556Y-19253112D01*
X2642347Y-19215500D01*
X2437653Y-19215500D01*
X2236444Y-19253112D01*
X2236441Y-19253112D01*
X2236441Y-19253113D01*
X2045575Y-19327054D01*
X2045569Y-19327057D01*
X1871539Y-19434812D01*
X1871537Y-19434814D01*
X1720269Y-19572712D01*
X1596912Y-19736064D01*
X1505673Y-19919295D01*
X1449654Y-20116183D01*
X1430768Y-20319999D01*
X1430768Y-20320000D01*
X-3556000Y-20320000D01*
X-3556000Y-17780000D01*
X1430768Y-17780000D01*
X1449654Y-17983816D01*
X1505673Y-18180704D01*
X1596912Y-18363935D01*
X1720269Y-18527287D01*
X1871537Y-18665185D01*
X1871539Y-18665187D01*
X2045569Y-18772942D01*
X2045575Y-18772945D01*
X2086010Y-18788609D01*
X2236444Y-18846888D01*
X2437653Y-18884500D01*
X2437656Y-18884500D01*
X2642344Y-18884500D01*
X2642347Y-18884500D01*
X2843556Y-18846888D01*
X3034427Y-18772944D01*
X3208462Y-18665186D01*
X3359732Y-18527285D01*
X3483088Y-18363935D01*
X3574328Y-18180701D01*
X3630345Y-17983821D01*
X3649232Y-17780000D01*
X3630345Y-17576179D01*
X3574328Y-17379299D01*
X3483088Y-17196065D01*
X3359732Y-17032715D01*
X3359730Y-17032712D01*
X3208462Y-16894814D01*
X3208460Y-16894812D01*
X3034430Y-16787057D01*
X3034424Y-16787054D01*
X2883993Y-16728777D01*
X2843556Y-16713112D01*
X2642347Y-16675500D01*
X2437653Y-16675500D01*
X2236444Y-16713112D01*
X2236441Y-16713112D01*
X2236441Y-16713113D01*
X2045575Y-16787054D01*
X2045569Y-16787057D01*
X1871539Y-16894812D01*
X1871537Y-16894814D01*
X1720269Y-17032712D01*
X1596912Y-17196064D01*
X1505673Y-17379295D01*
X1449654Y-17576183D01*
X1430768Y-17779999D01*
X1430768Y-17780000D01*
X-3556000Y-17780000D01*
X-3556000Y-15240000D01*
X1430768Y-15240000D01*
X1449654Y-15443816D01*
X1449654Y-15443818D01*
X1449655Y-15443821D01*
X1493062Y-15596380D01*
X1505673Y-15640704D01*
X1596912Y-15823935D01*
X1720269Y-15987287D01*
X1871537Y-16125185D01*
X1871539Y-16125187D01*
X2045569Y-16232942D01*
X2045575Y-16232945D01*
X2072506Y-16243378D01*
X2236444Y-16306888D01*
X2437653Y-16344500D01*
X2437656Y-16344500D01*
X2642344Y-16344500D01*
X2642347Y-16344500D01*
X2843556Y-16306888D01*
X2984227Y-16252390D01*
X2988211Y-16251003D01*
X3000390Y-16247230D01*
X3004013Y-16245264D01*
X3011164Y-16241955D01*
X3034427Y-16232944D01*
X3087190Y-16200273D01*
X3090234Y-16198507D01*
X3225446Y-16125185D01*
X3293463Y-16088301D01*
X3293462Y-16088301D01*
X3304055Y-16081884D01*
X3304056Y-16081883D01*
X3304056Y-16081884D01*
X3316209Y-16073705D01*
X3316210Y-16073704D01*
X3316209Y-16073704D01*
X3316219Y-16073698D01*
X3326213Y-16066252D01*
X3326216Y-16066250D01*
X3326215Y-16066251D01*
X3530617Y-15898106D01*
X3664177Y-15785098D01*
X3690492Y-15768029D01*
X3800293Y-15715186D01*
X3839397Y-15703792D01*
X4090367Y-15673908D01*
X4090381Y-15673903D01*
X4095425Y-15672872D01*
X4095547Y-15673471D01*
X4123204Y-15669500D01*
X7306415Y-15669500D01*
X7333428Y-15673787D01*
X7333690Y-15672599D01*
X7339624Y-15673905D01*
X7339632Y-15673908D01*
X7590592Y-15703791D01*
X7629700Y-15715186D01*
X7633463Y-15716997D01*
X7739495Y-15768026D01*
X7765815Y-15785097D01*
X7899381Y-15898106D01*
X8103783Y-16066251D01*
X8103782Y-16066250D01*
X8103785Y-16066252D01*
X8113779Y-16073698D01*
X8113788Y-16073704D01*
X8113789Y-16073705D01*
X8125942Y-16081884D01*
X8125942Y-16081883D01*
X8125943Y-16081884D01*
X8136536Y-16088301D01*
X8339749Y-16198500D01*
X8342833Y-16200289D01*
X8364232Y-16213538D01*
X8395573Y-16232944D01*
X8418811Y-16241946D01*
X8425978Y-16245261D01*
X8432523Y-16248810D01*
X8438424Y-16251819D01*
X8442495Y-16253764D01*
X8445699Y-16255194D01*
X8454855Y-16259280D01*
X8462336Y-16260775D01*
X8482811Y-16266739D01*
X8586444Y-16306888D01*
X8787653Y-16344500D01*
X8787656Y-16344500D01*
X8992344Y-16344500D01*
X8992347Y-16344500D01*
X9193556Y-16306888D01*
X9384427Y-16232944D01*
X9558462Y-16125186D01*
X9709732Y-15987285D01*
X9833088Y-15823935D01*
X9924328Y-15640701D01*
X9980345Y-15443821D01*
X9999232Y-15240000D01*
X9980345Y-15036179D01*
X9924328Y-14839299D01*
X9833088Y-14656065D01*
X9709732Y-14492715D01*
X9709730Y-14492712D01*
X9558462Y-14354814D01*
X9558460Y-14354812D01*
X9384430Y-14247057D01*
X9384424Y-14247054D01*
X9233993Y-14188777D01*
X9193556Y-14173112D01*
X8992347Y-14135500D01*
X8787653Y-14135500D01*
X8622289Y-14166411D01*
X8586438Y-14173113D01*
X8445823Y-14227587D01*
X8441785Y-14228993D01*
X8429615Y-14232765D01*
X8429609Y-14232768D01*
X8425967Y-14234743D01*
X8418814Y-14238051D01*
X8395575Y-14247054D01*
X8395568Y-14247058D01*
X8342850Y-14279698D01*
X8339769Y-14281485D01*
X8136543Y-14391693D01*
X8136525Y-14391703D01*
X8128486Y-14396572D01*
X8125977Y-14398093D01*
X8125927Y-14398123D01*
X8113781Y-14406298D01*
X8107037Y-14411323D01*
X8103794Y-14413740D01*
X8103791Y-14413742D01*
X8007793Y-14492712D01*
X7899381Y-14581893D01*
X7765815Y-14694902D01*
X7739494Y-14711973D01*
X7629705Y-14764809D01*
X7590596Y-14776205D01*
X7339630Y-14806091D01*
X7334561Y-14807129D01*
X7334438Y-14806529D01*
X7306789Y-14810500D01*
X4123588Y-14810500D01*
X4096571Y-14806211D01*
X4096310Y-14807400D01*
X4090360Y-14806089D01*
X3839399Y-14776205D01*
X3800289Y-14764809D01*
X3690501Y-14711972D01*
X3664180Y-14694900D01*
X3530617Y-14581893D01*
X3326207Y-14413741D01*
X3326206Y-14413740D01*
X3316186Y-14406276D01*
X3316187Y-14406277D01*
X3316179Y-14406271D01*
X3304022Y-14398093D01*
X3304018Y-14398090D01*
X3293454Y-14391693D01*
X3293455Y-14391694D01*
X3090240Y-14281493D01*
X3087156Y-14279704D01*
X3087146Y-14279698D01*
X3034427Y-14247056D01*
X3034425Y-14247055D01*
X3034423Y-14247054D01*
X3011184Y-14238050D01*
X3004026Y-14234740D01*
X2997478Y-14231190D01*
X2991564Y-14228176D01*
X2990331Y-14227587D01*
X2987483Y-14226226D01*
X2975144Y-14220719D01*
X2975140Y-14220718D01*
X2975138Y-14220717D01*
X2967652Y-14219220D01*
X2947182Y-14213256D01*
X2843561Y-14173113D01*
X2843556Y-14173112D01*
X2642347Y-14135500D01*
X2437653Y-14135500D01*
X2236444Y-14173112D01*
X2236441Y-14173112D01*
X2236441Y-14173113D01*
X2045575Y-14247054D01*
X2045569Y-14247057D01*
X1871539Y-14354812D01*
X1871537Y-14354814D01*
X1720269Y-14492712D01*
X1596912Y-14656064D01*
X1505673Y-14839295D01*
X1449654Y-15036183D01*
X1430768Y-15239999D01*
X1430768Y-15240000D01*
X-3556000Y-15240000D01*
X-3556000Y-12700000D01*
X1430768Y-12700000D01*
X1449654Y-12903816D01*
X1449654Y-12903818D01*
X1449655Y-12903821D01*
X1486355Y-13032807D01*
X1505673Y-13100704D01*
X1596912Y-13283935D01*
X1720269Y-13447287D01*
X1871537Y-13585185D01*
X1871539Y-13585187D01*
X2045569Y-13692942D01*
X2045575Y-13692945D01*
X2068810Y-13701946D01*
X2236444Y-13766888D01*
X2437653Y-13804500D01*
X2437656Y-13804500D01*
X2642344Y-13804500D01*
X2642347Y-13804500D01*
X2843556Y-13766888D01*
X2984227Y-13712390D01*
X2988211Y-13711003D01*
X3000390Y-13707230D01*
X3004013Y-13705264D01*
X3011164Y-13701955D01*
X3034427Y-13692944D01*
X3087190Y-13660273D01*
X3090234Y-13658507D01*
X3215228Y-13590726D01*
X3293463Y-13548301D01*
X3293462Y-13548301D01*
X3304055Y-13541884D01*
X3304056Y-13541883D01*
X3304056Y-13541884D01*
X3316209Y-13533705D01*
X3316210Y-13533704D01*
X3316209Y-13533704D01*
X3316219Y-13533698D01*
X3326213Y-13526252D01*
X3326216Y-13526250D01*
X3326215Y-13526251D01*
X3530617Y-13358106D01*
X3664177Y-13245098D01*
X3690492Y-13228029D01*
X3800293Y-13175186D01*
X3839397Y-13163792D01*
X4090367Y-13133908D01*
X4090381Y-13133903D01*
X4095425Y-13132872D01*
X4095547Y-13133471D01*
X4123204Y-13129500D01*
X15619823Y-13129500D01*
X15619826Y-13129501D01*
X15679543Y-13129500D01*
X15683598Y-13129633D01*
X15882511Y-13142667D01*
X15890553Y-13143725D01*
X16084076Y-13182217D01*
X16091898Y-13184312D01*
X16220677Y-13228025D01*
X16278734Y-13247732D01*
X16286235Y-13250839D01*
X16463187Y-13338100D01*
X16470214Y-13342156D01*
X16627554Y-13447285D01*
X16634265Y-13451769D01*
X16640706Y-13456712D01*
X16790359Y-13587951D01*
X16793321Y-13590726D01*
X16842818Y-13640223D01*
X16842824Y-13640228D01*
X19429060Y-16226465D01*
X19431832Y-16229424D01*
X19451306Y-16251630D01*
X19563275Y-16379308D01*
X19568210Y-16385739D01*
X19677821Y-16549788D01*
X19681881Y-16556819D01*
X19769141Y-16733772D01*
X19772248Y-16741273D01*
X19835664Y-16928095D01*
X19837765Y-16935937D01*
X19876253Y-17129441D01*
X19877312Y-17137490D01*
X19890366Y-17336695D01*
X19890499Y-17340750D01*
X19890499Y-17410161D01*
X19890500Y-17410174D01*
X19890500Y-17466415D01*
X19886212Y-17493428D01*
X19887401Y-17493690D01*
X19886090Y-17499639D01*
X19856206Y-17750594D01*
X19844810Y-17789704D01*
X19791972Y-17899495D01*
X19774901Y-17925815D01*
X19661893Y-18059381D01*
X19577817Y-18161586D01*
X19493742Y-18263791D01*
X19486300Y-18273779D01*
X19478114Y-18285941D01*
X19478115Y-18285940D01*
X19478113Y-18285943D01*
X19471703Y-18296525D01*
X19435148Y-18363935D01*
X19391469Y-18444480D01*
X19381428Y-18460083D01*
X19376916Y-18466058D01*
X19376907Y-18466073D01*
X19346428Y-18527285D01*
X19344876Y-18530401D01*
X19311166Y-18592565D01*
X19308127Y-18598533D01*
X19308126Y-18598536D01*
X19306169Y-18602633D01*
X19300718Y-18614857D01*
X19299873Y-18617509D01*
X19292730Y-18635123D01*
X19285674Y-18649293D01*
X19285671Y-18649300D01*
X19229654Y-18846183D01*
X19210768Y-19049999D01*
X19210768Y-19050000D01*
X19229654Y-19253816D01*
X19229654Y-19253818D01*
X19229655Y-19253821D01*
X19250493Y-19327058D01*
X19285673Y-19450704D01*
X19376912Y-19633935D01*
X19500269Y-19797287D01*
X19651537Y-19935185D01*
X19651539Y-19935187D01*
X19825569Y-20042942D01*
X19825575Y-20042945D01*
X19866010Y-20058609D01*
X20016444Y-20116888D01*
X20217653Y-20154500D01*
X20217656Y-20154500D01*
X20422344Y-20154500D01*
X20422347Y-20154500D01*
X20623556Y-20116888D01*
X20814427Y-20042944D01*
X20988462Y-19935186D01*
X21139732Y-19797285D01*
X21263088Y-19633935D01*
X21354328Y-19450701D01*
X21410345Y-19253821D01*
X21429232Y-19050000D01*
X21410345Y-18846179D01*
X21354328Y-18649299D01*
X21336023Y-18612537D01*
X21328583Y-18593974D01*
X21327230Y-18589609D01*
X21327229Y-18589606D01*
X21295137Y-18530428D01*
X21263089Y-18466067D01*
X21263085Y-18466059D01*
X21258579Y-18460094D01*
X21248523Y-18444471D01*
X21168296Y-18296527D01*
X21161884Y-18285943D01*
X21153698Y-18273779D01*
X21146251Y-18263784D01*
X21077905Y-18180701D01*
X20978106Y-18059382D01*
X20865098Y-17925819D01*
X20848027Y-17899501D01*
X20795187Y-17789704D01*
X20783792Y-17750595D01*
X20753909Y-17499634D01*
X20752872Y-17494564D01*
X20753470Y-17494441D01*
X20749500Y-17466790D01*
X20749500Y-17304140D01*
X20749480Y-17303617D01*
X20749482Y-17201996D01*
X20718933Y-16930836D01*
X20718931Y-16930829D01*
X20718930Y-16930819D01*
X20658218Y-16664811D01*
X20658216Y-16664802D01*
X20568094Y-16407240D01*
X20449701Y-16161387D01*
X20304526Y-15930336D01*
X20278824Y-15898106D01*
X20134399Y-15716997D01*
X20134396Y-15716994D01*
X20090764Y-15673361D01*
X20090752Y-15673347D01*
X20013785Y-15596380D01*
X19991923Y-15574517D01*
X19991912Y-15574507D01*
X17450226Y-13032821D01*
X17450214Y-13032807D01*
X17434875Y-13017469D01*
X17434842Y-13017409D01*
X17303018Y-12885588D01*
X17089676Y-12715458D01*
X16858622Y-12570281D01*
X16612763Y-12451884D01*
X16411257Y-12381378D01*
X16355204Y-12361765D01*
X16355200Y-12361764D01*
X16355194Y-12361762D01*
X16089183Y-12301049D01*
X16089156Y-12301045D01*
X15818011Y-12270498D01*
X15818006Y-12270498D01*
X15681567Y-12270500D01*
X4123588Y-12270500D01*
X4096571Y-12266211D01*
X4096310Y-12267400D01*
X4090360Y-12266089D01*
X3839399Y-12236205D01*
X3800289Y-12224809D01*
X3690501Y-12171972D01*
X3664180Y-12154900D01*
X3530617Y-12041893D01*
X3326207Y-11873741D01*
X3326206Y-11873740D01*
X3316186Y-11866276D01*
X3316187Y-11866277D01*
X3316179Y-11866271D01*
X3304022Y-11858093D01*
X3304018Y-11858090D01*
X3293454Y-11851693D01*
X3293455Y-11851694D01*
X3090240Y-11741493D01*
X3087156Y-11739704D01*
X3034432Y-11707059D01*
X3034430Y-11707058D01*
X3034427Y-11707056D01*
X3034425Y-11707055D01*
X3034423Y-11707054D01*
X3011184Y-11698050D01*
X3004026Y-11694740D01*
X2997478Y-11691190D01*
X2991564Y-11688176D01*
X2991560Y-11688174D01*
X2987483Y-11686226D01*
X2975144Y-11680719D01*
X2975140Y-11680718D01*
X2975138Y-11680717D01*
X2967652Y-11679220D01*
X2947182Y-11673256D01*
X2843561Y-11633113D01*
X2843556Y-11633112D01*
X2642347Y-11595500D01*
X2437653Y-11595500D01*
X2236444Y-11633112D01*
X2236441Y-11633112D01*
X2236441Y-11633113D01*
X2045575Y-11707054D01*
X2045569Y-11707057D01*
X1871539Y-11814812D01*
X1871537Y-11814814D01*
X1720269Y-11952712D01*
X1596912Y-12116064D01*
X1505673Y-12299295D01*
X1449654Y-12496183D01*
X1430768Y-12699999D01*
X1430768Y-12700000D01*
X-3556000Y-12700000D01*
X-3556000Y-7620000D01*
X1430768Y-7620000D01*
X1449654Y-7823816D01*
X1505673Y-8020704D01*
X1596912Y-8203935D01*
X1720269Y-8367287D01*
X1871537Y-8505185D01*
X1871539Y-8505187D01*
X2045569Y-8612942D01*
X2045575Y-8612945D01*
X2086010Y-8628609D01*
X2236444Y-8686888D01*
X2437653Y-8724500D01*
X2437656Y-8724500D01*
X2642344Y-8724500D01*
X2642347Y-8724500D01*
X2843556Y-8686888D01*
X3034427Y-8612944D01*
X3208462Y-8505186D01*
X3359732Y-8367285D01*
X3483088Y-8203935D01*
X3574328Y-8020701D01*
X3630345Y-7823821D01*
X3649232Y-7620000D01*
X3630345Y-7416179D01*
X3574328Y-7219299D01*
X3483088Y-7036065D01*
X3359732Y-6872715D01*
X3359730Y-6872712D01*
X3208462Y-6734814D01*
X3208460Y-6734812D01*
X3034430Y-6627057D01*
X3034424Y-6627054D01*
X2883993Y-6568777D01*
X2843556Y-6553112D01*
X2642347Y-6515500D01*
X2437653Y-6515500D01*
X2236444Y-6553112D01*
X2236441Y-6553112D01*
X2236441Y-6553113D01*
X2045575Y-6627054D01*
X2045569Y-6627057D01*
X1871539Y-6734812D01*
X1871537Y-6734814D01*
X1720269Y-6872712D01*
X1596912Y-7036064D01*
X1505673Y-7219295D01*
X1449654Y-7416183D01*
X1430768Y-7619999D01*
X1430768Y-7620000D01*
X-3556000Y-7620000D01*
X-3556000Y-5080000D01*
X1430768Y-5080000D01*
X1449654Y-5283816D01*
X1505673Y-5480704D01*
X1596912Y-5663935D01*
X1720269Y-5827287D01*
X1871537Y-5965185D01*
X1871539Y-5965187D01*
X2045569Y-6072942D01*
X2045575Y-6072945D01*
X2086010Y-6088609D01*
X2236444Y-6146888D01*
X2437653Y-6184500D01*
X2437656Y-6184500D01*
X2642344Y-6184500D01*
X2642347Y-6184500D01*
X2843556Y-6146888D01*
X3034427Y-6072944D01*
X3208462Y-5965186D01*
X3359732Y-5827285D01*
X3483088Y-5663935D01*
X3574328Y-5480701D01*
X3630345Y-5283821D01*
X3649232Y-5080000D01*
X3630345Y-4876179D01*
X3574328Y-4679299D01*
X3483088Y-4496065D01*
X3359732Y-4332715D01*
X3359730Y-4332712D01*
X3208462Y-4194814D01*
X3208460Y-4194812D01*
X3034430Y-4087057D01*
X3034424Y-4087054D01*
X2883993Y-4028777D01*
X2843556Y-4013112D01*
X2642347Y-3975500D01*
X2437653Y-3975500D01*
X2236444Y-4013112D01*
X2236441Y-4013112D01*
X2236441Y-4013113D01*
X2045575Y-4087054D01*
X2045569Y-4087057D01*
X1871539Y-4194812D01*
X1871537Y-4194814D01*
X1720269Y-4332712D01*
X1596912Y-4496064D01*
X1505673Y-4679295D01*
X1449654Y-4876183D01*
X1430768Y-5079999D01*
X1430768Y-5080000D01*
X-3556000Y-5080000D01*
X-3556000Y-2540000D01*
X1430768Y-2540000D01*
X1449654Y-2743816D01*
X1505673Y-2940704D01*
X1596912Y-3123935D01*
X1720269Y-3287287D01*
X1871537Y-3425185D01*
X1871539Y-3425187D01*
X2045569Y-3532942D01*
X2045575Y-3532945D01*
X2086010Y-3548609D01*
X2236444Y-3606888D01*
X2437653Y-3644500D01*
X2437656Y-3644500D01*
X2642344Y-3644500D01*
X2642347Y-3644500D01*
X2843556Y-3606888D01*
X3034427Y-3532944D01*
X3208462Y-3425186D01*
X3359732Y-3287285D01*
X3483088Y-3123935D01*
X3574328Y-2940701D01*
X3630345Y-2743821D01*
X3649232Y-2540000D01*
X3630345Y-2336179D01*
X3574328Y-2139299D01*
X3483088Y-1956065D01*
X3359732Y-1792715D01*
X3359730Y-1792712D01*
X3208462Y-1654814D01*
X3208460Y-1654812D01*
X3034430Y-1547057D01*
X3034424Y-1547054D01*
X2883993Y-1488777D01*
X2843556Y-1473112D01*
X2642347Y-1435500D01*
X2437653Y-1435500D01*
X2236444Y-1473112D01*
X2236441Y-1473112D01*
X2236441Y-1473113D01*
X2045575Y-1547054D01*
X2045569Y-1547057D01*
X1871539Y-1654812D01*
X1871537Y-1654814D01*
X1720269Y-1792712D01*
X1596912Y-1956064D01*
X1505673Y-2139295D01*
X1449654Y-2336183D01*
X1430768Y-2539999D01*
X1430768Y-2540000D01*
X-3556000Y-2540000D01*
X-3556000Y0D01*
X1430768Y0D01*
X1449654Y-203816D01*
X1505673Y-400704D01*
X1596912Y-583935D01*
X1720269Y-747287D01*
X1871537Y-885185D01*
X1871539Y-885187D01*
X2045569Y-992942D01*
X2045575Y-992945D01*
X2086010Y-1008609D01*
X2236444Y-1066888D01*
X2437653Y-1104500D01*
X2437656Y-1104500D01*
X2642344Y-1104500D01*
X2642347Y-1104500D01*
X2843556Y-1066888D01*
X3034427Y-992944D01*
X3208462Y-885186D01*
X3359732Y-747285D01*
X3483088Y-583935D01*
X3574328Y-400701D01*
X3630345Y-203821D01*
X3649232Y0D01*
X3630345Y203821D01*
X3574328Y400701D01*
X3483088Y583935D01*
X3359732Y747285D01*
X3208462Y885186D01*
X3034427Y992944D01*
X2843556Y1066888D01*
X2642347Y1104500D01*
X2437653Y1104500D01*
X2236444Y1066888D01*
X2086010Y1008609D01*
X2045575Y992945D01*
X2045569Y992942D01*
X1871539Y885187D01*
X1871537Y885185D01*
X1720269Y747287D01*
X1596912Y583935D01*
X1505673Y400704D01*
X1449654Y203816D01*
X1430768Y0D01*
X-3556000Y0D01*
X-3556000Y3432000D01*
X-3536315Y3499039D01*
X-3483511Y3544794D01*
X-3432000Y3556000D01*
X23752000Y3556000D01*
X23819039Y3536315D01*
G37*
%TD.AperFunction*%
%TD*%
%TA.AperFunction,Conductor*%
%TO.N,Net-(J1-~{DS3})*%
G36*
X10474176Y-37325594D02*
G01*
X10474696Y-37326682D01*
X10794134Y-38095511D01*
X10794143Y-38104466D01*
X10794134Y-38104489D01*
X10474696Y-38873317D01*
X10468357Y-38879642D01*
X10459402Y-38879633D01*
X10458314Y-38879113D01*
X10170685Y-38723136D01*
X10168829Y-38721887D01*
X9970627Y-38558842D01*
X9801101Y-38415406D01*
X9801099Y-38415405D01*
X9801098Y-38415404D01*
X9589694Y-38313664D01*
X9589691Y-38313663D01*
X9589690Y-38313663D01*
X9275317Y-38276228D01*
X9267507Y-38271847D01*
X9265000Y-38264610D01*
X9265000Y-37935389D01*
X9268427Y-37927116D01*
X9275315Y-37923771D01*
X9589694Y-37886335D01*
X9801098Y-37784595D01*
X9970627Y-37641157D01*
X10168838Y-37478104D01*
X10170676Y-37476867D01*
X10458315Y-37320885D01*
X10467220Y-37319955D01*
X10474176Y-37325594D01*
G37*
%TD.AperFunction*%
%TD*%
%TA.AperFunction,Conductor*%
%TO.N,Net-(J1-~{DS3})*%
G36*
X2875597Y-37320366D02*
G01*
X2876681Y-37320884D01*
X3164317Y-37476865D01*
X3166165Y-37478108D01*
X3364372Y-37641157D01*
X3533900Y-37784595D01*
X3745304Y-37886335D01*
X4059684Y-37923771D01*
X4067493Y-37928152D01*
X4070000Y-37935389D01*
X4070000Y-38264610D01*
X4066573Y-38272883D01*
X4059683Y-38276228D01*
X3745307Y-38313663D01*
X3745305Y-38313663D01*
X3745304Y-38313664D01*
X3533900Y-38415404D01*
X3533896Y-38415406D01*
X3364372Y-38558842D01*
X3166169Y-38721887D01*
X3164313Y-38723136D01*
X2876685Y-38879113D01*
X2867779Y-38880044D01*
X2860823Y-38874405D01*
X2860303Y-38873317D01*
X2670046Y-38415404D01*
X2540864Y-38104488D01*
X2540856Y-38095534D01*
X2540865Y-38095511D01*
X2607394Y-37935389D01*
X2860303Y-37326681D01*
X2866642Y-37320357D01*
X2875597Y-37320366D01*
G37*
%TD.AperFunction*%
%TD*%
%TA.AperFunction,Conductor*%
%TO.N,Net-(J1-~{DS3})*%
G36*
X19385527Y-23021595D02*
G01*
X19510476Y-23079750D01*
X19667695Y-23152925D01*
X19667698Y-23152925D01*
X19667699Y-23152926D01*
X19893495Y-23201744D01*
X20100152Y-23215390D01*
X20100451Y-23215420D01*
X20334148Y-23245627D01*
X20336196Y-23246083D01*
X20633172Y-23340838D01*
X20640012Y-23346617D01*
X20640762Y-23355540D01*
X20640431Y-23356449D01*
X20322720Y-24126006D01*
X20316395Y-24132345D01*
X20316372Y-24132355D01*
X19547328Y-24450064D01*
X19538374Y-24450055D01*
X19532047Y-24443717D01*
X19531489Y-24442002D01*
X19462581Y-24157211D01*
X19462255Y-24154240D01*
X19466926Y-23904801D01*
X19474473Y-23690111D01*
X19474472Y-23690111D01*
X19410545Y-23499349D01*
X19208216Y-23326505D01*
X19204152Y-23318526D01*
X19205682Y-23311762D01*
X19370460Y-23026351D01*
X19377564Y-23020902D01*
X19385527Y-23021595D01*
G37*
%TD.AperFunction*%
%TD*%
%TA.AperFunction,Conductor*%
%TO.N,Net-(J1-~{DS3})*%
G36*
X11130597Y-22080366D02*
G01*
X11131681Y-22080884D01*
X11419317Y-22236865D01*
X11421165Y-22238108D01*
X11619372Y-22401157D01*
X11788900Y-22544595D01*
X12000304Y-22646335D01*
X12314684Y-22683771D01*
X12322493Y-22688152D01*
X12325000Y-22695389D01*
X12325000Y-23024610D01*
X12321573Y-23032883D01*
X12314683Y-23036228D01*
X12000307Y-23073663D01*
X12000305Y-23073663D01*
X12000304Y-23073664D01*
X11788900Y-23175404D01*
X11788896Y-23175406D01*
X11619372Y-23318842D01*
X11421169Y-23481887D01*
X11419313Y-23483136D01*
X11131685Y-23639113D01*
X11122779Y-23640044D01*
X11115823Y-23634405D01*
X11115303Y-23633317D01*
X10925046Y-23175404D01*
X10795864Y-22864488D01*
X10795856Y-22855534D01*
X10795865Y-22855511D01*
X10862394Y-22695389D01*
X11115303Y-22086681D01*
X11121642Y-22080357D01*
X11130597Y-22080366D01*
G37*
%TD.AperFunction*%
%TD*%
%TA.AperFunction,Conductor*%
%TO.N,Net-(J1-~{INDEX})*%
G36*
X19385527Y-25561595D02*
G01*
X19510476Y-25619750D01*
X19667695Y-25692925D01*
X19667698Y-25692925D01*
X19667699Y-25692926D01*
X19893495Y-25741744D01*
X20100152Y-25755390D01*
X20100451Y-25755420D01*
X20334148Y-25785627D01*
X20336196Y-25786083D01*
X20633172Y-25880838D01*
X20640012Y-25886617D01*
X20640762Y-25895540D01*
X20640431Y-25896449D01*
X20322720Y-26666006D01*
X20316395Y-26672345D01*
X20316372Y-26672355D01*
X19547328Y-26990064D01*
X19538374Y-26990055D01*
X19532047Y-26983717D01*
X19531489Y-26982002D01*
X19462581Y-26697211D01*
X19462255Y-26694240D01*
X19466926Y-26444801D01*
X19474473Y-26230111D01*
X19474472Y-26230111D01*
X19410545Y-26039349D01*
X19208216Y-25866505D01*
X19204152Y-25858526D01*
X19205682Y-25851762D01*
X19370460Y-25566351D01*
X19377564Y-25560902D01*
X19385527Y-25561595D01*
G37*
%TD.AperFunction*%
%TD*%
%TA.AperFunction,Conductor*%
%TO.N,Net-(J1-~{INDEX})*%
G36*
X2875597Y-22080366D02*
G01*
X2876681Y-22080884D01*
X3164317Y-22236865D01*
X3166165Y-22238108D01*
X3364372Y-22401157D01*
X3533900Y-22544595D01*
X3745304Y-22646335D01*
X4059684Y-22683771D01*
X4067493Y-22688152D01*
X4070000Y-22695389D01*
X4070000Y-23024610D01*
X4066573Y-23032883D01*
X4059683Y-23036228D01*
X3745307Y-23073663D01*
X3745305Y-23073663D01*
X3745304Y-23073664D01*
X3533900Y-23175404D01*
X3533896Y-23175406D01*
X3364372Y-23318842D01*
X3166169Y-23481887D01*
X3164313Y-23483136D01*
X2876685Y-23639113D01*
X2867779Y-23640044D01*
X2860823Y-23634405D01*
X2860303Y-23633317D01*
X2670046Y-23175404D01*
X2540864Y-22864488D01*
X2540856Y-22855534D01*
X2540865Y-22855511D01*
X2607394Y-22695389D01*
X2860303Y-22086681D01*
X2866642Y-22080357D01*
X2875597Y-22080366D01*
G37*
%TD.AperFunction*%
%TD*%
%TA.AperFunction,Conductor*%
%TO.N,Net-(J1-~{READY})*%
G36*
X6664176Y-24625594D02*
G01*
X6664696Y-24626682D01*
X6984134Y-25395511D01*
X6984143Y-25404466D01*
X6984134Y-25404489D01*
X6664696Y-26173317D01*
X6658357Y-26179642D01*
X6649402Y-26179633D01*
X6648314Y-26179113D01*
X6360685Y-26023136D01*
X6358829Y-26021887D01*
X6160627Y-25858842D01*
X5991101Y-25715406D01*
X5991099Y-25715405D01*
X5991098Y-25715404D01*
X5779694Y-25613664D01*
X5779691Y-25613663D01*
X5779690Y-25613663D01*
X5465317Y-25576228D01*
X5457507Y-25571847D01*
X5455000Y-25564610D01*
X5455000Y-25235389D01*
X5458427Y-25227116D01*
X5465315Y-25223771D01*
X5779694Y-25186335D01*
X5991098Y-25084595D01*
X6160627Y-24941157D01*
X6358838Y-24778104D01*
X6360676Y-24776867D01*
X6648315Y-24620885D01*
X6657220Y-24619955D01*
X6664176Y-24625594D01*
G37*
%TD.AperFunction*%
%TD*%
%TA.AperFunction,Conductor*%
%TO.N,Net-(J1-~{READY})*%
G36*
X2875597Y-24620366D02*
G01*
X2876681Y-24620884D01*
X3164317Y-24776865D01*
X3166165Y-24778108D01*
X3364372Y-24941157D01*
X3533900Y-25084595D01*
X3745304Y-25186335D01*
X4059684Y-25223771D01*
X4067493Y-25228152D01*
X4070000Y-25235389D01*
X4070000Y-25564610D01*
X4066573Y-25572883D01*
X4059683Y-25576228D01*
X3745307Y-25613663D01*
X3745305Y-25613663D01*
X3745304Y-25613664D01*
X3533900Y-25715404D01*
X3533896Y-25715406D01*
X3364372Y-25858842D01*
X3166169Y-26021887D01*
X3164313Y-26023136D01*
X2876685Y-26179113D01*
X2867779Y-26180044D01*
X2860823Y-26174405D01*
X2860303Y-26173317D01*
X2670046Y-25715404D01*
X2540864Y-25404488D01*
X2540856Y-25395534D01*
X2540865Y-25395511D01*
X2607394Y-25235389D01*
X2860303Y-24626681D01*
X2866642Y-24620357D01*
X2875597Y-24620366D01*
G37*
%TD.AperFunction*%
%TD*%
%TA.AperFunction,Conductor*%
%TO.N,Net-(J1-~{SIDE1})*%
G36*
X8569176Y-14465594D02*
G01*
X8569696Y-14466682D01*
X8889134Y-15235511D01*
X8889143Y-15244466D01*
X8889134Y-15244489D01*
X8569696Y-16013317D01*
X8563357Y-16019642D01*
X8554402Y-16019633D01*
X8553314Y-16019113D01*
X8265685Y-15863136D01*
X8263829Y-15861887D01*
X8065626Y-15698842D01*
X7896101Y-15555406D01*
X7896099Y-15555405D01*
X7896098Y-15555404D01*
X7684694Y-15453664D01*
X7684691Y-15453663D01*
X7684690Y-15453663D01*
X7370316Y-15416228D01*
X7362506Y-15411847D01*
X7360000Y-15404612D01*
X7360000Y-15075386D01*
X7363426Y-15067116D01*
X7370314Y-15063771D01*
X7684694Y-15026335D01*
X7896098Y-14924595D01*
X8065627Y-14781157D01*
X8263838Y-14618104D01*
X8265676Y-14616867D01*
X8553315Y-14460885D01*
X8562220Y-14459955D01*
X8569176Y-14465594D01*
G37*
%TD.AperFunction*%
%TD*%
%TA.AperFunction,Conductor*%
%TO.N,Net-(J1-~{SIDE1})*%
G36*
X2875597Y-14460366D02*
G01*
X2876681Y-14460884D01*
X3164317Y-14616865D01*
X3166165Y-14618108D01*
X3364372Y-14781157D01*
X3533900Y-14924595D01*
X3745304Y-15026335D01*
X4059684Y-15063771D01*
X4067493Y-15068152D01*
X4070000Y-15075389D01*
X4070000Y-15404610D01*
X4066573Y-15412883D01*
X4059683Y-15416228D01*
X3745307Y-15453663D01*
X3745305Y-15453663D01*
X3745304Y-15453664D01*
X3533900Y-15555404D01*
X3533896Y-15555406D01*
X3364372Y-15698842D01*
X3166169Y-15861887D01*
X3164313Y-15863136D01*
X2876685Y-16019113D01*
X2867779Y-16020044D01*
X2860823Y-16014405D01*
X2860303Y-16013317D01*
X2670046Y-15555404D01*
X2540864Y-15244488D01*
X2540856Y-15235534D01*
X2540865Y-15235511D01*
X2607394Y-15075389D01*
X2860303Y-14466681D01*
X2866642Y-14460357D01*
X2875597Y-14460366D01*
G37*
%TD.AperFunction*%
%TD*%
%TA.AperFunction,Conductor*%
%TO.N,Net-(J1-~{DSKCHG})*%
G36*
X2875597Y-11920366D02*
G01*
X2876681Y-11920884D01*
X3164317Y-12076865D01*
X3166165Y-12078108D01*
X3364372Y-12241157D01*
X3533900Y-12384595D01*
X3745304Y-12486335D01*
X4059684Y-12523771D01*
X4067493Y-12528152D01*
X4070000Y-12535389D01*
X4070000Y-12864610D01*
X4066573Y-12872883D01*
X4059683Y-12876228D01*
X3745307Y-12913663D01*
X3745305Y-12913663D01*
X3745304Y-12913664D01*
X3533900Y-13015404D01*
X3533896Y-13015406D01*
X3364372Y-13158842D01*
X3166169Y-13321887D01*
X3164313Y-13323136D01*
X2876685Y-13479113D01*
X2867779Y-13480044D01*
X2860823Y-13474405D01*
X2860303Y-13473317D01*
X2670046Y-13015404D01*
X2540864Y-12704488D01*
X2540856Y-12695534D01*
X2540865Y-12695511D01*
X2607394Y-12535389D01*
X2860303Y-11926681D01*
X2866642Y-11920357D01*
X2875597Y-11920366D01*
G37*
%TD.AperFunction*%
%TD*%
%TA.AperFunction,Conductor*%
%TO.N,Net-(J1-~{DSKCHG})*%
G36*
X20492884Y-17523427D02*
G01*
X20496229Y-17530317D01*
X20533663Y-17844690D01*
X20533663Y-17844691D01*
X20533664Y-17844694D01*
X20635404Y-18056098D01*
X20635405Y-18056099D01*
X20635406Y-18056101D01*
X20778842Y-18225627D01*
X20941887Y-18423829D01*
X20943136Y-18425685D01*
X21099113Y-18713314D01*
X21100044Y-18722220D01*
X21094405Y-18729176D01*
X21093317Y-18729696D01*
X20324489Y-19049134D01*
X20315534Y-19049143D01*
X20315511Y-19049134D01*
X19546682Y-18729696D01*
X19540357Y-18723357D01*
X19540366Y-18714402D01*
X19540880Y-18713325D01*
X19696867Y-18425676D01*
X19698104Y-18423838D01*
X19861157Y-18225627D01*
X20004595Y-18056098D01*
X20106335Y-17844694D01*
X20143771Y-17530316D01*
X20148152Y-17522507D01*
X20155389Y-17520000D01*
X20484611Y-17520000D01*
X20492884Y-17523427D01*
G37*
%TD.AperFunction*%
%TD*%
%TA.AperFunction,Conductor*%
%TO.N,Net-(J1-~{READY})*%
G36*
X7320597Y-60180366D02*
G01*
X7321681Y-60180884D01*
X7609317Y-60336865D01*
X7611165Y-60338108D01*
X7809372Y-60501157D01*
X7978900Y-60644595D01*
X8190304Y-60746335D01*
X8504684Y-60783771D01*
X8512493Y-60788152D01*
X8515000Y-60795389D01*
X8515000Y-61124610D01*
X8511573Y-61132883D01*
X8504683Y-61136228D01*
X8190307Y-61173663D01*
X8190305Y-61173663D01*
X8190304Y-61173664D01*
X7978900Y-61275404D01*
X7978896Y-61275406D01*
X7809372Y-61418842D01*
X7611169Y-61581887D01*
X7609313Y-61583136D01*
X7321685Y-61739113D01*
X7312779Y-61740044D01*
X7305823Y-61734405D01*
X7305303Y-61733317D01*
X7115046Y-61275404D01*
X6985864Y-60964488D01*
X6985856Y-60955534D01*
X6985865Y-60955511D01*
X7052394Y-60795389D01*
X7305303Y-60186681D01*
X7311642Y-60180357D01*
X7320597Y-60180366D01*
G37*
%TD.AperFunction*%
%TD*%
%TA.AperFunction,Conductor*%
%TO.N,Net-(J1-~{READY})*%
G36*
X19547327Y-59369934D02*
G01*
X20316372Y-59687644D01*
X20322710Y-59693971D01*
X20322720Y-59693993D01*
X20640431Y-60463550D01*
X20640420Y-60472505D01*
X20634081Y-60478830D01*
X20633172Y-60479161D01*
X20336200Y-60573915D01*
X20334144Y-60574372D01*
X20160597Y-60596805D01*
X20100483Y-60604575D01*
X20100126Y-60604610D01*
X19893490Y-60618257D01*
X19893486Y-60618258D01*
X19667693Y-60667075D01*
X19385526Y-60798405D01*
X19376579Y-60798790D01*
X19370457Y-60793648D01*
X19205682Y-60508239D01*
X19204515Y-60499363D01*
X19208214Y-60493497D01*
X19410546Y-60320651D01*
X19474473Y-60129889D01*
X19466926Y-59915199D01*
X19462255Y-59665756D01*
X19462581Y-59662787D01*
X19531489Y-59377997D01*
X19536766Y-59370762D01*
X19545613Y-59369377D01*
X19547327Y-59369934D01*
G37*
%TD.AperFunction*%
%TD*%
%TA.AperFunction,Conductor*%
%TO.N,Net-(J1-~{SIDE1})*%
G36*
X9225597Y-57640366D02*
G01*
X9226681Y-57640884D01*
X9514317Y-57796865D01*
X9516165Y-57798108D01*
X9714372Y-57961157D01*
X9883900Y-58104595D01*
X10095304Y-58206335D01*
X10409684Y-58243771D01*
X10417493Y-58248152D01*
X10420000Y-58255389D01*
X10420000Y-58584610D01*
X10416573Y-58592883D01*
X10409683Y-58596228D01*
X10095307Y-58633663D01*
X10095305Y-58633663D01*
X10095304Y-58633664D01*
X9883900Y-58735404D01*
X9883896Y-58735406D01*
X9714372Y-58878842D01*
X9516169Y-59041887D01*
X9514313Y-59043136D01*
X9226685Y-59199113D01*
X9217779Y-59200044D01*
X9210823Y-59194405D01*
X9210303Y-59193317D01*
X9020046Y-58735404D01*
X8890864Y-58424488D01*
X8890856Y-58415534D01*
X8890865Y-58415511D01*
X8957394Y-58255389D01*
X9210303Y-57646681D01*
X9216642Y-57640357D01*
X9225597Y-57640366D01*
G37*
%TD.AperFunction*%
%TD*%
%TA.AperFunction,Conductor*%
%TO.N,Net-(J1-~{SIDE1})*%
G36*
X19547327Y-56829934D02*
G01*
X20316372Y-57147644D01*
X20322710Y-57153971D01*
X20322720Y-57153993D01*
X20640431Y-57923550D01*
X20640420Y-57932505D01*
X20634081Y-57938830D01*
X20633172Y-57939161D01*
X20336200Y-58033915D01*
X20334144Y-58034372D01*
X20160597Y-58056805D01*
X20100483Y-58064575D01*
X20100126Y-58064610D01*
X19893490Y-58078257D01*
X19893486Y-58078258D01*
X19667693Y-58127075D01*
X19385526Y-58258405D01*
X19376579Y-58258790D01*
X19370457Y-58253648D01*
X19205682Y-57968239D01*
X19204515Y-57959363D01*
X19208214Y-57953497D01*
X19410546Y-57780651D01*
X19474473Y-57589889D01*
X19466926Y-57375199D01*
X19462255Y-57125756D01*
X19462581Y-57122787D01*
X19531489Y-56837997D01*
X19536766Y-56830762D01*
X19545613Y-56829377D01*
X19547327Y-56829934D01*
G37*
%TD.AperFunction*%
%TD*%
%TA.AperFunction,Conductor*%
%TO.N,Net-(J1-~{RDATA})*%
G36*
X2875597Y-55100366D02*
G01*
X2876681Y-55100884D01*
X3164317Y-55256865D01*
X3166165Y-55258108D01*
X3364372Y-55421157D01*
X3533900Y-55564595D01*
X3745304Y-55666335D01*
X4059684Y-55703771D01*
X4067493Y-55708152D01*
X4070000Y-55715389D01*
X4070000Y-56044610D01*
X4066573Y-56052883D01*
X4059683Y-56056228D01*
X3745307Y-56093663D01*
X3745305Y-56093663D01*
X3745304Y-56093664D01*
X3533900Y-56195404D01*
X3533896Y-56195406D01*
X3364372Y-56338842D01*
X3166169Y-56501887D01*
X3164313Y-56503136D01*
X2876685Y-56659113D01*
X2867779Y-56660044D01*
X2860823Y-56654405D01*
X2860303Y-56653317D01*
X2670046Y-56195404D01*
X2540864Y-55884488D01*
X2540856Y-55875534D01*
X2540865Y-55875511D01*
X2607394Y-55715389D01*
X2860303Y-55106681D01*
X2866642Y-55100357D01*
X2875597Y-55100366D01*
G37*
%TD.AperFunction*%
%TD*%
%TA.AperFunction,Conductor*%
%TO.N,Net-(J1-~{RDATA})*%
G36*
X19547327Y-54289934D02*
G01*
X20316372Y-54607644D01*
X20322710Y-54613971D01*
X20322720Y-54613993D01*
X20640431Y-55383550D01*
X20640420Y-55392505D01*
X20634081Y-55398830D01*
X20633172Y-55399161D01*
X20336200Y-55493915D01*
X20334144Y-55494372D01*
X20160597Y-55516805D01*
X20100483Y-55524575D01*
X20100126Y-55524610D01*
X19893490Y-55538257D01*
X19893486Y-55538258D01*
X19667693Y-55587075D01*
X19385526Y-55718405D01*
X19376579Y-55718790D01*
X19370457Y-55713648D01*
X19205682Y-55428239D01*
X19204515Y-55419363D01*
X19208214Y-55413497D01*
X19410546Y-55240651D01*
X19474473Y-55049889D01*
X19466926Y-54835199D01*
X19462255Y-54585756D01*
X19462581Y-54582787D01*
X19531489Y-54297997D01*
X19536766Y-54290762D01*
X19545613Y-54289377D01*
X19547327Y-54289934D01*
G37*
%TD.AperFunction*%
%TD*%
%TA.AperFunction,Conductor*%
%TO.N,Net-(J1-~{WPT})*%
G36*
X2875597Y-52560366D02*
G01*
X2876681Y-52560884D01*
X3164317Y-52716865D01*
X3166165Y-52718108D01*
X3364372Y-52881157D01*
X3533900Y-53024595D01*
X3745304Y-53126335D01*
X4059684Y-53163771D01*
X4067493Y-53168152D01*
X4070000Y-53175389D01*
X4070000Y-53504610D01*
X4066573Y-53512883D01*
X4059683Y-53516228D01*
X3745307Y-53553663D01*
X3745305Y-53553663D01*
X3745304Y-53553664D01*
X3533900Y-53655404D01*
X3533896Y-53655406D01*
X3364372Y-53798842D01*
X3166169Y-53961887D01*
X3164313Y-53963136D01*
X2876685Y-54119113D01*
X2867779Y-54120044D01*
X2860823Y-54114405D01*
X2860303Y-54113317D01*
X2670046Y-53655404D01*
X2540864Y-53344488D01*
X2540856Y-53335534D01*
X2540865Y-53335511D01*
X2607394Y-53175389D01*
X2860303Y-52566681D01*
X2866642Y-52560357D01*
X2875597Y-52560366D01*
G37*
%TD.AperFunction*%
%TD*%
%TA.AperFunction,Conductor*%
%TO.N,Net-(J1-~{WPT})*%
G36*
X19547327Y-51749934D02*
G01*
X20316372Y-52067644D01*
X20322710Y-52073971D01*
X20322720Y-52073993D01*
X20640431Y-52843550D01*
X20640420Y-52852505D01*
X20634081Y-52858830D01*
X20633172Y-52859161D01*
X20336200Y-52953915D01*
X20334144Y-52954372D01*
X20160597Y-52976805D01*
X20100483Y-52984575D01*
X20100126Y-52984610D01*
X19893490Y-52998257D01*
X19893486Y-52998258D01*
X19667693Y-53047075D01*
X19385526Y-53178405D01*
X19376579Y-53178790D01*
X19370457Y-53173648D01*
X19205682Y-52888239D01*
X19204515Y-52879363D01*
X19208214Y-52873497D01*
X19410546Y-52700651D01*
X19474473Y-52509889D01*
X19466926Y-52295199D01*
X19462255Y-52045756D01*
X19462581Y-52042787D01*
X19531489Y-51757997D01*
X19536766Y-51750762D01*
X19545613Y-51749377D01*
X19547327Y-51749934D01*
G37*
%TD.AperFunction*%
%TD*%
%TA.AperFunction,Conductor*%
%TO.N,Net-(J1-~{TRK00})*%
G36*
X2875597Y-50020366D02*
G01*
X2876681Y-50020884D01*
X3164317Y-50176865D01*
X3166165Y-50178108D01*
X3364372Y-50341157D01*
X3533900Y-50484595D01*
X3745304Y-50586335D01*
X4059684Y-50623771D01*
X4067493Y-50628152D01*
X4070000Y-50635389D01*
X4070000Y-50964610D01*
X4066573Y-50972883D01*
X4059683Y-50976228D01*
X3745307Y-51013663D01*
X3745305Y-51013663D01*
X3745304Y-51013664D01*
X3533900Y-51115404D01*
X3533896Y-51115406D01*
X3364372Y-51258842D01*
X3166169Y-51421887D01*
X3164313Y-51423136D01*
X2876685Y-51579113D01*
X2867779Y-51580044D01*
X2860823Y-51574405D01*
X2860303Y-51573317D01*
X2670046Y-51115404D01*
X2540864Y-50804488D01*
X2540856Y-50795534D01*
X2540865Y-50795511D01*
X2607394Y-50635389D01*
X2860303Y-50026681D01*
X2866642Y-50020357D01*
X2875597Y-50020366D01*
G37*
%TD.AperFunction*%
%TD*%
%TA.AperFunction,Conductor*%
%TO.N,Net-(J1-~{TRK00})*%
G36*
X19547327Y-49209934D02*
G01*
X20316372Y-49527644D01*
X20322710Y-49533971D01*
X20322720Y-49533993D01*
X20640431Y-50303550D01*
X20640420Y-50312505D01*
X20634081Y-50318830D01*
X20633172Y-50319161D01*
X20336200Y-50413915D01*
X20334144Y-50414372D01*
X20160597Y-50436805D01*
X20100483Y-50444575D01*
X20100126Y-50444610D01*
X19893490Y-50458257D01*
X19893486Y-50458258D01*
X19667693Y-50507075D01*
X19385526Y-50638405D01*
X19376579Y-50638790D01*
X19370457Y-50633648D01*
X19205682Y-50348239D01*
X19204515Y-50339363D01*
X19208214Y-50333497D01*
X19410546Y-50160651D01*
X19474473Y-49969889D01*
X19466926Y-49755199D01*
X19462255Y-49505756D01*
X19462581Y-49502787D01*
X19531489Y-49217997D01*
X19536766Y-49210762D01*
X19545613Y-49209377D01*
X19547327Y-49209934D01*
G37*
%TD.AperFunction*%
%TD*%
%TA.AperFunction,Conductor*%
%TO.N,Net-(J1-~{WGATE})*%
G36*
X2875597Y-47480366D02*
G01*
X2876681Y-47480884D01*
X3164317Y-47636865D01*
X3166165Y-47638108D01*
X3364372Y-47801157D01*
X3533900Y-47944595D01*
X3745304Y-48046335D01*
X4059684Y-48083771D01*
X4067493Y-48088152D01*
X4070000Y-48095389D01*
X4070000Y-48424610D01*
X4066573Y-48432883D01*
X4059683Y-48436228D01*
X3745307Y-48473663D01*
X3745305Y-48473663D01*
X3745304Y-48473664D01*
X3533900Y-48575404D01*
X3533896Y-48575406D01*
X3364372Y-48718842D01*
X3166169Y-48881887D01*
X3164313Y-48883136D01*
X2876685Y-49039113D01*
X2867779Y-49040044D01*
X2860823Y-49034405D01*
X2860303Y-49033317D01*
X2670046Y-48575404D01*
X2540864Y-48264488D01*
X2540856Y-48255534D01*
X2540865Y-48255511D01*
X2607394Y-48095389D01*
X2860303Y-47486681D01*
X2866642Y-47480357D01*
X2875597Y-47480366D01*
G37*
%TD.AperFunction*%
%TD*%
%TA.AperFunction,Conductor*%
%TO.N,Net-(J1-~{WGATE})*%
G36*
X19547327Y-46669934D02*
G01*
X20316372Y-46987644D01*
X20322710Y-46993971D01*
X20322720Y-46993993D01*
X20640431Y-47763550D01*
X20640420Y-47772505D01*
X20634081Y-47778830D01*
X20633172Y-47779161D01*
X20336200Y-47873915D01*
X20334144Y-47874372D01*
X20160597Y-47896805D01*
X20100483Y-47904575D01*
X20100126Y-47904610D01*
X19893490Y-47918257D01*
X19893486Y-47918258D01*
X19667693Y-47967075D01*
X19385526Y-48098405D01*
X19376579Y-48098790D01*
X19370457Y-48093648D01*
X19205682Y-47808239D01*
X19204515Y-47799363D01*
X19208214Y-47793497D01*
X19410546Y-47620651D01*
X19474473Y-47429889D01*
X19466926Y-47215199D01*
X19462255Y-46965756D01*
X19462581Y-46962787D01*
X19531489Y-46677997D01*
X19536766Y-46670762D01*
X19545613Y-46669377D01*
X19547327Y-46669934D01*
G37*
%TD.AperFunction*%
%TD*%
%TA.AperFunction,Conductor*%
%TO.N,Net-(J1-~{WDATA})*%
G36*
X2875597Y-44940366D02*
G01*
X2876681Y-44940884D01*
X3164317Y-45096865D01*
X3166165Y-45098108D01*
X3364372Y-45261157D01*
X3533900Y-45404595D01*
X3745304Y-45506335D01*
X4059684Y-45543771D01*
X4067493Y-45548152D01*
X4070000Y-45555389D01*
X4070000Y-45884610D01*
X4066573Y-45892883D01*
X4059683Y-45896228D01*
X3745307Y-45933663D01*
X3745305Y-45933663D01*
X3745304Y-45933664D01*
X3533900Y-46035404D01*
X3533896Y-46035406D01*
X3364372Y-46178842D01*
X3166169Y-46341887D01*
X3164313Y-46343136D01*
X2876685Y-46499113D01*
X2867779Y-46500044D01*
X2860823Y-46494405D01*
X2860303Y-46493317D01*
X2670046Y-46035404D01*
X2540864Y-45724488D01*
X2540856Y-45715534D01*
X2540865Y-45715511D01*
X2607394Y-45555389D01*
X2860303Y-44946681D01*
X2866642Y-44940357D01*
X2875597Y-44940366D01*
G37*
%TD.AperFunction*%
%TD*%
%TA.AperFunction,Conductor*%
%TO.N,Net-(J1-~{WDATA})*%
G36*
X19547327Y-44129934D02*
G01*
X20316372Y-44447644D01*
X20322710Y-44453971D01*
X20322720Y-44453993D01*
X20640431Y-45223550D01*
X20640420Y-45232505D01*
X20634081Y-45238830D01*
X20633172Y-45239161D01*
X20336200Y-45333915D01*
X20334144Y-45334372D01*
X20160597Y-45356805D01*
X20100483Y-45364575D01*
X20100126Y-45364610D01*
X19893490Y-45378257D01*
X19893486Y-45378258D01*
X19667693Y-45427075D01*
X19385526Y-45558405D01*
X19376579Y-45558790D01*
X19370457Y-45553648D01*
X19205682Y-45268239D01*
X19204515Y-45259363D01*
X19208214Y-45253497D01*
X19410546Y-45080651D01*
X19474473Y-44889889D01*
X19466926Y-44675199D01*
X19462255Y-44425756D01*
X19462581Y-44422787D01*
X19531489Y-44137997D01*
X19536766Y-44130762D01*
X19545613Y-44129377D01*
X19547327Y-44129934D01*
G37*
%TD.AperFunction*%
%TD*%
%TA.AperFunction,Conductor*%
%TO.N,Net-(J1-~{STEP})*%
G36*
X2875597Y-42400366D02*
G01*
X2876681Y-42400884D01*
X3164317Y-42556865D01*
X3166165Y-42558108D01*
X3364372Y-42721157D01*
X3533900Y-42864595D01*
X3745304Y-42966335D01*
X4059684Y-43003771D01*
X4067493Y-43008152D01*
X4070000Y-43015389D01*
X4070000Y-43344610D01*
X4066573Y-43352883D01*
X4059683Y-43356228D01*
X3745307Y-43393663D01*
X3745305Y-43393663D01*
X3745304Y-43393664D01*
X3533900Y-43495404D01*
X3533896Y-43495406D01*
X3364372Y-43638842D01*
X3166169Y-43801887D01*
X3164313Y-43803136D01*
X2876685Y-43959113D01*
X2867779Y-43960044D01*
X2860823Y-43954405D01*
X2860303Y-43953317D01*
X2540865Y-43184488D01*
X2540856Y-43175533D01*
X2540856Y-43175532D01*
X2860303Y-42406681D01*
X2866642Y-42400357D01*
X2875597Y-42400366D01*
G37*
%TD.AperFunction*%
%TD*%
%TA.AperFunction,Conductor*%
%TO.N,Net-(J1-~{STEP})*%
G36*
X19547327Y-41589934D02*
G01*
X20316372Y-41907644D01*
X20322710Y-41913971D01*
X20322720Y-41913993D01*
X20640431Y-42683550D01*
X20640420Y-42692505D01*
X20634081Y-42698830D01*
X20633172Y-42699161D01*
X20336200Y-42793915D01*
X20334144Y-42794372D01*
X20160597Y-42816805D01*
X20100483Y-42824575D01*
X20100126Y-42824610D01*
X19893490Y-42838257D01*
X19893486Y-42838258D01*
X19667693Y-42887075D01*
X19385526Y-43018405D01*
X19376579Y-43018790D01*
X19370457Y-43013648D01*
X19205682Y-42728239D01*
X19204515Y-42719363D01*
X19208214Y-42713497D01*
X19410546Y-42540651D01*
X19474473Y-42349889D01*
X19466926Y-42135199D01*
X19462255Y-41885756D01*
X19462581Y-41882787D01*
X19531489Y-41597997D01*
X19536766Y-41590762D01*
X19545613Y-41589377D01*
X19547327Y-41589934D01*
G37*
%TD.AperFunction*%
%TD*%
%TA.AperFunction,Conductor*%
%TO.N,Net-(J1-~{DIR})*%
G36*
X2875597Y-39860366D02*
G01*
X2876681Y-39860884D01*
X3164317Y-40016865D01*
X3166165Y-40018108D01*
X3364372Y-40181157D01*
X3533900Y-40324595D01*
X3745304Y-40426335D01*
X4059684Y-40463771D01*
X4067493Y-40468152D01*
X4070000Y-40475389D01*
X4070000Y-40804610D01*
X4066573Y-40812883D01*
X4059683Y-40816228D01*
X3745307Y-40853663D01*
X3745305Y-40853663D01*
X3745304Y-40853664D01*
X3533900Y-40955404D01*
X3533896Y-40955406D01*
X3364372Y-41098842D01*
X3166169Y-41261887D01*
X3164313Y-41263136D01*
X2876685Y-41419113D01*
X2867779Y-41420044D01*
X2860823Y-41414405D01*
X2860303Y-41413317D01*
X2670046Y-40955404D01*
X2540864Y-40644488D01*
X2540856Y-40635534D01*
X2540865Y-40635511D01*
X2607394Y-40475389D01*
X2860303Y-39866681D01*
X2866642Y-39860357D01*
X2875597Y-39860366D01*
G37*
%TD.AperFunction*%
%TD*%
%TA.AperFunction,Conductor*%
%TO.N,Net-(J1-~{DIR})*%
G36*
X19547327Y-39049934D02*
G01*
X20316372Y-39367644D01*
X20322710Y-39373971D01*
X20322720Y-39373993D01*
X20640431Y-40143550D01*
X20640420Y-40152505D01*
X20634081Y-40158830D01*
X20633172Y-40159161D01*
X20336200Y-40253915D01*
X20334144Y-40254372D01*
X20160597Y-40276805D01*
X20100483Y-40284575D01*
X20100126Y-40284610D01*
X19893490Y-40298257D01*
X19893486Y-40298258D01*
X19667693Y-40347075D01*
X19385526Y-40478405D01*
X19376579Y-40478790D01*
X19370457Y-40473648D01*
X19205682Y-40188239D01*
X19204515Y-40179363D01*
X19208214Y-40173497D01*
X19410546Y-40000651D01*
X19474473Y-39809889D01*
X19466926Y-39595199D01*
X19462255Y-39345756D01*
X19462581Y-39342787D01*
X19531489Y-39057997D01*
X19536766Y-39050762D01*
X19545613Y-39049377D01*
X19547327Y-39049934D01*
G37*
%TD.AperFunction*%
%TD*%
%TA.AperFunction,Conductor*%
%TO.N,Net-(J1-~{HLD})*%
G36*
X13014176Y-19545594D02*
G01*
X13014696Y-19546682D01*
X13334134Y-20315510D01*
X13334143Y-20324465D01*
X13334134Y-20324488D01*
X13014696Y-21093317D01*
X13008357Y-21099642D01*
X12999402Y-21099633D01*
X12998314Y-21099113D01*
X12710685Y-20943136D01*
X12708829Y-20941887D01*
X12510627Y-20778842D01*
X12341101Y-20635406D01*
X12341099Y-20635405D01*
X12341098Y-20635404D01*
X12129694Y-20533664D01*
X12129691Y-20533663D01*
X12129690Y-20533663D01*
X11815317Y-20496228D01*
X11807507Y-20491847D01*
X11805000Y-20484610D01*
X11805000Y-20155389D01*
X11808427Y-20147116D01*
X11815315Y-20143771D01*
X12129694Y-20106335D01*
X12341098Y-20004595D01*
X12510627Y-19861157D01*
X12708838Y-19698104D01*
X12710676Y-19696867D01*
X12998315Y-19540885D01*
X13007220Y-19539955D01*
X13014176Y-19545594D01*
G37*
%TD.AperFunction*%
%TD*%
%TA.AperFunction,Conductor*%
%TO.N,Net-(J1-~{HLD})*%
G36*
X2875597Y-19540366D02*
G01*
X2876681Y-19540884D01*
X3164317Y-19696865D01*
X3166165Y-19698108D01*
X3364372Y-19861157D01*
X3533900Y-20004595D01*
X3745304Y-20106335D01*
X4059684Y-20143771D01*
X4067493Y-20148152D01*
X4070000Y-20155389D01*
X4070000Y-20484610D01*
X4066573Y-20492883D01*
X4059683Y-20496228D01*
X3745307Y-20533663D01*
X3745305Y-20533663D01*
X3745304Y-20533664D01*
X3533900Y-20635404D01*
X3533896Y-20635406D01*
X3364372Y-20778842D01*
X3166169Y-20941887D01*
X3164313Y-20943136D01*
X2876685Y-21099113D01*
X2867779Y-21100044D01*
X2860823Y-21094405D01*
X2860303Y-21093317D01*
X2670046Y-20635404D01*
X2540864Y-20324488D01*
X2540856Y-20315534D01*
X2540865Y-20315511D01*
X2607394Y-20155389D01*
X2860303Y-19546681D01*
X2866642Y-19540357D01*
X2875597Y-19540366D01*
G37*
%TD.AperFunction*%
%TD*%
%TA.AperFunction,Conductor*%
%TO.N,Net-(J1-~{HLD})*%
G36*
X13670597Y-37320366D02*
G01*
X13671681Y-37320884D01*
X13959317Y-37476865D01*
X13961165Y-37478108D01*
X14159372Y-37641157D01*
X14328900Y-37784595D01*
X14540304Y-37886335D01*
X14854684Y-37923771D01*
X14862493Y-37928152D01*
X14865000Y-37935389D01*
X14865000Y-38264610D01*
X14861573Y-38272883D01*
X14854683Y-38276228D01*
X14540307Y-38313663D01*
X14540305Y-38313663D01*
X14540304Y-38313664D01*
X14328900Y-38415404D01*
X14328896Y-38415406D01*
X14159372Y-38558842D01*
X13961169Y-38721887D01*
X13959313Y-38723136D01*
X13671685Y-38879113D01*
X13662779Y-38880044D01*
X13655823Y-38874405D01*
X13655303Y-38873317D01*
X13335865Y-38104488D01*
X13335856Y-38095533D01*
X13335856Y-38095532D01*
X13655303Y-37326681D01*
X13661642Y-37320357D01*
X13670597Y-37320366D01*
G37*
%TD.AperFunction*%
%TD*%
%TA.AperFunction,Conductor*%
%TO.N,Net-(J1-~{HLD})*%
G36*
X19547327Y-36509934D02*
G01*
X20316372Y-36827644D01*
X20322710Y-36833971D01*
X20322720Y-36833993D01*
X20640431Y-37603550D01*
X20640420Y-37612505D01*
X20634081Y-37618830D01*
X20633172Y-37619161D01*
X20336200Y-37713914D01*
X20334144Y-37714371D01*
X20160734Y-37736785D01*
X20100484Y-37744573D01*
X20100127Y-37744609D01*
X19893491Y-37758254D01*
X19893490Y-37758255D01*
X19667699Y-37807073D01*
X19667696Y-37807074D01*
X19385529Y-37938403D01*
X19376582Y-37938788D01*
X19370459Y-37933646D01*
X19205682Y-37648238D01*
X19204515Y-37639362D01*
X19208214Y-37633495D01*
X19410545Y-37460649D01*
X19474473Y-37269887D01*
X19466926Y-37055197D01*
X19462255Y-36805756D01*
X19462581Y-36802787D01*
X19531489Y-36517997D01*
X19536766Y-36510762D01*
X19545613Y-36509377D01*
X19547327Y-36509934D01*
G37*
%TD.AperFunction*%
%TD*%
%TA.AperFunction,Conductor*%
%TO.N,Net-(J1-~{DS2})*%
G36*
X15575597Y-34780366D02*
G01*
X15576681Y-34780884D01*
X15864317Y-34936865D01*
X15866165Y-34938108D01*
X16064372Y-35101157D01*
X16233900Y-35244595D01*
X16445304Y-35346335D01*
X16759684Y-35383771D01*
X16767493Y-35388152D01*
X16770000Y-35395389D01*
X16770000Y-35724610D01*
X16766573Y-35732883D01*
X16759683Y-35736228D01*
X16445307Y-35773663D01*
X16445305Y-35773663D01*
X16445304Y-35773664D01*
X16233900Y-35875404D01*
X16233896Y-35875406D01*
X16064372Y-36018842D01*
X15866169Y-36181887D01*
X15864313Y-36183136D01*
X15576685Y-36339113D01*
X15567779Y-36340044D01*
X15560823Y-36334405D01*
X15560303Y-36333317D01*
X15370046Y-35875404D01*
X15240864Y-35564488D01*
X15240856Y-35555534D01*
X15240865Y-35555511D01*
X15307394Y-35395389D01*
X15560303Y-34786681D01*
X15566642Y-34780357D01*
X15575597Y-34780366D01*
G37*
%TD.AperFunction*%
%TD*%
%TA.AperFunction,Conductor*%
%TO.N,Net-(J1-~{DS2})*%
G36*
X19547327Y-33969934D02*
G01*
X20316372Y-34287644D01*
X20322710Y-34293971D01*
X20322720Y-34293993D01*
X20640431Y-35063550D01*
X20640420Y-35072505D01*
X20634081Y-35078830D01*
X20633172Y-35079161D01*
X20336200Y-35173915D01*
X20334144Y-35174372D01*
X20160597Y-35196805D01*
X20100483Y-35204575D01*
X20100126Y-35204610D01*
X19893490Y-35218257D01*
X19893486Y-35218258D01*
X19667693Y-35267075D01*
X19385526Y-35398405D01*
X19376579Y-35398790D01*
X19370457Y-35393648D01*
X19205682Y-35108239D01*
X19204515Y-35099363D01*
X19208214Y-35093497D01*
X19410546Y-34920651D01*
X19474473Y-34729889D01*
X19466926Y-34515199D01*
X19462255Y-34265756D01*
X19462581Y-34262787D01*
X19531489Y-33977997D01*
X19536766Y-33970762D01*
X19545613Y-33969377D01*
X19547327Y-33969934D01*
G37*
%TD.AperFunction*%
%TD*%
%TA.AperFunction,Conductor*%
%TO.N,Net-(J1-~{DS2})*%
G36*
X14919176Y-34785594D02*
G01*
X14919696Y-34786682D01*
X15239134Y-35555511D01*
X15239143Y-35564466D01*
X15239134Y-35564489D01*
X14919696Y-36333317D01*
X14913357Y-36339642D01*
X14904402Y-36339633D01*
X14903314Y-36339113D01*
X14615685Y-36183136D01*
X14613829Y-36181887D01*
X14415627Y-36018842D01*
X14246101Y-35875406D01*
X14246099Y-35875405D01*
X14246098Y-35875404D01*
X14034694Y-35773664D01*
X14034691Y-35773663D01*
X14034690Y-35773663D01*
X13720317Y-35736228D01*
X13712507Y-35731847D01*
X13710000Y-35724610D01*
X13710000Y-35395389D01*
X13713427Y-35387116D01*
X13720315Y-35383771D01*
X14034694Y-35346335D01*
X14246098Y-35244595D01*
X14415627Y-35101157D01*
X14613838Y-34938104D01*
X14615676Y-34936867D01*
X14903315Y-34780885D01*
X14912220Y-34779955D01*
X14919176Y-34785594D01*
G37*
%TD.AperFunction*%
%TD*%
%TA.AperFunction,Conductor*%
%TO.N,Net-(J1-~{DS2})*%
G36*
X5415597Y-34780366D02*
G01*
X5416681Y-34780884D01*
X5704317Y-34936865D01*
X5706165Y-34938108D01*
X5904372Y-35101157D01*
X6073900Y-35244595D01*
X6285304Y-35346335D01*
X6599682Y-35383771D01*
X6607492Y-35388152D01*
X6609999Y-35395389D01*
X6609999Y-35724610D01*
X6606572Y-35732883D01*
X6599682Y-35736228D01*
X6285307Y-35773663D01*
X6285305Y-35773663D01*
X6285304Y-35773664D01*
X6073900Y-35875404D01*
X6073896Y-35875406D01*
X5904372Y-36018842D01*
X5706169Y-36181887D01*
X5704313Y-36183136D01*
X5416685Y-36339113D01*
X5407779Y-36340044D01*
X5400823Y-36334405D01*
X5400303Y-36333317D01*
X5210046Y-35875404D01*
X5080864Y-35564488D01*
X5080856Y-35555534D01*
X5080865Y-35555511D01*
X5147394Y-35395389D01*
X5400303Y-34786681D01*
X5406642Y-34780357D01*
X5415597Y-34780366D01*
G37*
%TD.AperFunction*%
%TD*%
%TA.AperFunction,Conductor*%
%TO.N,Net-(J1-~{DS2})*%
G36*
X4759176Y-34785594D02*
G01*
X4759696Y-34786682D01*
X5079134Y-35555511D01*
X5079143Y-35564466D01*
X5079134Y-35564489D01*
X4759696Y-36333317D01*
X4753357Y-36339642D01*
X4744402Y-36339633D01*
X4743314Y-36339113D01*
X4455685Y-36183136D01*
X4453829Y-36181887D01*
X4255627Y-36018842D01*
X4086101Y-35875406D01*
X4086099Y-35875405D01*
X4086098Y-35875404D01*
X3874694Y-35773664D01*
X3874691Y-35773663D01*
X3874690Y-35773663D01*
X3560317Y-35736228D01*
X3552507Y-35731847D01*
X3550000Y-35724610D01*
X3550000Y-35395389D01*
X3553427Y-35387116D01*
X3560315Y-35383771D01*
X3874694Y-35346335D01*
X4086098Y-35244595D01*
X4255627Y-35101157D01*
X4453838Y-34938104D01*
X4455676Y-34936867D01*
X4743315Y-34780885D01*
X4752220Y-34779955D01*
X4759176Y-34785594D01*
G37*
%TD.AperFunction*%
%TD*%
%TA.AperFunction,Conductor*%
%TO.N,Net-(J1-~{DS2})*%
G36*
X2875597Y-34780366D02*
G01*
X2876681Y-34780884D01*
X3164317Y-34936865D01*
X3166165Y-34938108D01*
X3364372Y-35101157D01*
X3533900Y-35244595D01*
X3745304Y-35346335D01*
X4059684Y-35383771D01*
X4067493Y-35388152D01*
X4070000Y-35395389D01*
X4070000Y-35724610D01*
X4066573Y-35732883D01*
X4059683Y-35736228D01*
X3745307Y-35773663D01*
X3745305Y-35773663D01*
X3745304Y-35773664D01*
X3533900Y-35875404D01*
X3533896Y-35875406D01*
X3364372Y-36018842D01*
X3166169Y-36181887D01*
X3164313Y-36183136D01*
X2876685Y-36339113D01*
X2867779Y-36340044D01*
X2860823Y-36334405D01*
X2860303Y-36333317D01*
X2670046Y-35875404D01*
X2540864Y-35564488D01*
X2540856Y-35555534D01*
X2540865Y-35555511D01*
X2607394Y-35395389D01*
X2860303Y-34786681D01*
X2866642Y-34780357D01*
X2875597Y-34780366D01*
G37*
%TD.AperFunction*%
%TD*%
%TA.AperFunction,Conductor*%
%TO.N,Net-(J1-~{DS1})*%
G36*
X15575597Y-32240366D02*
G01*
X15576681Y-32240884D01*
X15864317Y-32396865D01*
X15866165Y-32398108D01*
X16064372Y-32561157D01*
X16233900Y-32704595D01*
X16445304Y-32806335D01*
X16759684Y-32843771D01*
X16767493Y-32848152D01*
X16770000Y-32855389D01*
X16770000Y-33184610D01*
X16766573Y-33192883D01*
X16759683Y-33196228D01*
X16445307Y-33233663D01*
X16445305Y-33233663D01*
X16445304Y-33233664D01*
X16233900Y-33335404D01*
X16233896Y-33335406D01*
X16064372Y-33478842D01*
X15866169Y-33641887D01*
X15864313Y-33643136D01*
X15576685Y-33799113D01*
X15567779Y-33800044D01*
X15560823Y-33794405D01*
X15560303Y-33793317D01*
X15370046Y-33335404D01*
X15240864Y-33024488D01*
X15240856Y-33015534D01*
X15240865Y-33015511D01*
X15307394Y-32855389D01*
X15560303Y-32246681D01*
X15566642Y-32240357D01*
X15575597Y-32240366D01*
G37*
%TD.AperFunction*%
%TD*%
%TA.AperFunction,Conductor*%
%TO.N,Net-(J1-~{DS1})*%
G36*
X19547327Y-31429934D02*
G01*
X20316372Y-31747644D01*
X20322710Y-31753971D01*
X20322720Y-31753993D01*
X20640431Y-32523550D01*
X20640420Y-32532505D01*
X20634081Y-32538830D01*
X20633172Y-32539161D01*
X20336200Y-32633915D01*
X20334144Y-32634372D01*
X20160597Y-32656805D01*
X20100483Y-32664575D01*
X20100126Y-32664610D01*
X19893490Y-32678257D01*
X19893486Y-32678258D01*
X19667693Y-32727075D01*
X19385526Y-32858405D01*
X19376579Y-32858790D01*
X19370457Y-32853648D01*
X19205682Y-32568239D01*
X19204515Y-32559363D01*
X19208214Y-32553497D01*
X19410546Y-32380651D01*
X19474473Y-32189889D01*
X19466926Y-31975199D01*
X19462255Y-31725756D01*
X19462581Y-31722787D01*
X19531489Y-31437997D01*
X19536766Y-31430762D01*
X19545613Y-31429377D01*
X19547327Y-31429934D01*
G37*
%TD.AperFunction*%
%TD*%
%TA.AperFunction,Conductor*%
%TO.N,Net-(J1-~{DS1})*%
G36*
X14919176Y-32245594D02*
G01*
X14919696Y-32246682D01*
X15239134Y-33015511D01*
X15239143Y-33024466D01*
X15239134Y-33024489D01*
X14919696Y-33793317D01*
X14913357Y-33799642D01*
X14904402Y-33799633D01*
X14903314Y-33799113D01*
X14615685Y-33643136D01*
X14613829Y-33641887D01*
X14415627Y-33478842D01*
X14246101Y-33335406D01*
X14246099Y-33335405D01*
X14246098Y-33335404D01*
X14034694Y-33233664D01*
X14034691Y-33233663D01*
X14034690Y-33233663D01*
X13720317Y-33196228D01*
X13712507Y-33191847D01*
X13710000Y-33184610D01*
X13710000Y-32855389D01*
X13713427Y-32847116D01*
X13720315Y-32843771D01*
X14034694Y-32806335D01*
X14246098Y-32704595D01*
X14415627Y-32561157D01*
X14613838Y-32398104D01*
X14615676Y-32396867D01*
X14903315Y-32240885D01*
X14912220Y-32239955D01*
X14919176Y-32245594D01*
G37*
%TD.AperFunction*%
%TD*%
%TA.AperFunction,Conductor*%
%TO.N,Net-(J1-~{DS1})*%
G36*
X5415597Y-32240366D02*
G01*
X5416681Y-32240884D01*
X5704317Y-32396865D01*
X5706165Y-32398108D01*
X5904372Y-32561157D01*
X6073900Y-32704595D01*
X6285304Y-32806335D01*
X6599682Y-32843771D01*
X6607492Y-32848152D01*
X6609999Y-32855389D01*
X6609999Y-33184610D01*
X6606572Y-33192883D01*
X6599682Y-33196228D01*
X6285307Y-33233663D01*
X6285305Y-33233663D01*
X6285304Y-33233664D01*
X6073900Y-33335404D01*
X6073896Y-33335406D01*
X5904372Y-33478842D01*
X5706169Y-33641887D01*
X5704313Y-33643136D01*
X5416685Y-33799113D01*
X5407779Y-33800044D01*
X5400823Y-33794405D01*
X5400303Y-33793317D01*
X5210046Y-33335404D01*
X5080864Y-33024488D01*
X5080856Y-33015534D01*
X5080865Y-33015511D01*
X5147394Y-32855389D01*
X5400303Y-32246681D01*
X5406642Y-32240357D01*
X5415597Y-32240366D01*
G37*
%TD.AperFunction*%
%TD*%
%TA.AperFunction,Conductor*%
%TO.N,Net-(J1-~{DS1})*%
G36*
X4759176Y-32245594D02*
G01*
X4759696Y-32246682D01*
X5079134Y-33015511D01*
X5079143Y-33024466D01*
X5079134Y-33024489D01*
X4759696Y-33793317D01*
X4753357Y-33799642D01*
X4744402Y-33799633D01*
X4743314Y-33799113D01*
X4455685Y-33643136D01*
X4453829Y-33641887D01*
X4255627Y-33478842D01*
X4086101Y-33335406D01*
X4086099Y-33335405D01*
X4086098Y-33335404D01*
X3874694Y-33233664D01*
X3874691Y-33233663D01*
X3874690Y-33233663D01*
X3560317Y-33196228D01*
X3552507Y-33191847D01*
X3550000Y-33184610D01*
X3550000Y-32855389D01*
X3553427Y-32847116D01*
X3560315Y-32843771D01*
X3874694Y-32806335D01*
X4086098Y-32704595D01*
X4255627Y-32561157D01*
X4453838Y-32398104D01*
X4455676Y-32396867D01*
X4743315Y-32240885D01*
X4752220Y-32239955D01*
X4759176Y-32245594D01*
G37*
%TD.AperFunction*%
%TD*%
%TA.AperFunction,Conductor*%
%TO.N,Net-(J1-~{DS1})*%
G36*
X2875597Y-32240366D02*
G01*
X2876681Y-32240884D01*
X3164317Y-32396865D01*
X3166165Y-32398108D01*
X3364372Y-32561157D01*
X3533900Y-32704595D01*
X3745304Y-32806335D01*
X4059684Y-32843771D01*
X4067493Y-32848152D01*
X4070000Y-32855389D01*
X4070000Y-33184610D01*
X4066573Y-33192883D01*
X4059683Y-33196228D01*
X3745307Y-33233663D01*
X3745305Y-33233663D01*
X3745304Y-33233664D01*
X3533900Y-33335404D01*
X3533896Y-33335406D01*
X3364372Y-33478842D01*
X3166169Y-33641887D01*
X3164313Y-33643136D01*
X2876685Y-33799113D01*
X2867779Y-33800044D01*
X2860823Y-33794405D01*
X2860303Y-33793317D01*
X2670046Y-33335404D01*
X2540864Y-33024488D01*
X2540856Y-33015534D01*
X2540865Y-33015511D01*
X2607394Y-32855389D01*
X2860303Y-32246681D01*
X2866642Y-32240357D01*
X2875597Y-32240366D01*
G37*
%TD.AperFunction*%
%TD*%
%TA.AperFunction,Conductor*%
%TO.N,Net-(J1-~{DS0})*%
G36*
X15575597Y-29700366D02*
G01*
X15576681Y-29700884D01*
X15864317Y-29856865D01*
X15866165Y-29858108D01*
X16064372Y-30021157D01*
X16233900Y-30164595D01*
X16445304Y-30266335D01*
X16759684Y-30303771D01*
X16767493Y-30308152D01*
X16770000Y-30315389D01*
X16770000Y-30644610D01*
X16766573Y-30652883D01*
X16759683Y-30656228D01*
X16445307Y-30693663D01*
X16445305Y-30693663D01*
X16445304Y-30693664D01*
X16233900Y-30795404D01*
X16233896Y-30795406D01*
X16064372Y-30938842D01*
X15866169Y-31101887D01*
X15864313Y-31103136D01*
X15576685Y-31259113D01*
X15567779Y-31260044D01*
X15560823Y-31254405D01*
X15560303Y-31253317D01*
X15370046Y-30795404D01*
X15240864Y-30484488D01*
X15240856Y-30475534D01*
X15240865Y-30475511D01*
X15307394Y-30315389D01*
X15560303Y-29706681D01*
X15566642Y-29700357D01*
X15575597Y-29700366D01*
G37*
%TD.AperFunction*%
%TD*%
%TA.AperFunction,Conductor*%
%TO.N,Net-(J1-~{DS0})*%
G36*
X19547327Y-28889934D02*
G01*
X20316372Y-29207644D01*
X20322710Y-29213971D01*
X20322720Y-29213993D01*
X20640431Y-29983550D01*
X20640420Y-29992505D01*
X20634081Y-29998830D01*
X20633172Y-29999161D01*
X20336200Y-30093915D01*
X20334144Y-30094372D01*
X20160597Y-30116805D01*
X20100483Y-30124575D01*
X20100126Y-30124610D01*
X19893490Y-30138257D01*
X19893486Y-30138258D01*
X19667693Y-30187075D01*
X19385526Y-30318405D01*
X19376579Y-30318790D01*
X19370457Y-30313648D01*
X19205682Y-30028239D01*
X19204515Y-30019363D01*
X19208214Y-30013497D01*
X19410546Y-29840651D01*
X19474473Y-29649889D01*
X19466926Y-29435199D01*
X19462255Y-29185756D01*
X19462581Y-29182787D01*
X19531489Y-28897997D01*
X19536766Y-28890762D01*
X19545613Y-28889377D01*
X19547327Y-28889934D01*
G37*
%TD.AperFunction*%
%TD*%
%TA.AperFunction,Conductor*%
%TO.N,Net-(J1-~{DS0})*%
G36*
X14919176Y-29705594D02*
G01*
X14919696Y-29706682D01*
X15239134Y-30475511D01*
X15239143Y-30484466D01*
X15239134Y-30484489D01*
X14919696Y-31253317D01*
X14913357Y-31259642D01*
X14904402Y-31259633D01*
X14903314Y-31259113D01*
X14615685Y-31103136D01*
X14613829Y-31101887D01*
X14415627Y-30938842D01*
X14246101Y-30795406D01*
X14246099Y-30795405D01*
X14246098Y-30795404D01*
X14034694Y-30693664D01*
X14034691Y-30693663D01*
X14034690Y-30693663D01*
X13720317Y-30656228D01*
X13712507Y-30651847D01*
X13710000Y-30644610D01*
X13710000Y-30315389D01*
X13713427Y-30307116D01*
X13720315Y-30303771D01*
X14034694Y-30266335D01*
X14246098Y-30164595D01*
X14415627Y-30021157D01*
X14613838Y-29858104D01*
X14615676Y-29856867D01*
X14903315Y-29700885D01*
X14912220Y-29699955D01*
X14919176Y-29705594D01*
G37*
%TD.AperFunction*%
%TD*%
%TA.AperFunction,Conductor*%
%TO.N,Net-(J1-~{DS0})*%
G36*
X5415597Y-29700366D02*
G01*
X5416681Y-29700884D01*
X5704317Y-29856865D01*
X5706165Y-29858108D01*
X5904372Y-30021157D01*
X6073900Y-30164595D01*
X6285304Y-30266335D01*
X6599682Y-30303771D01*
X6607492Y-30308152D01*
X6609999Y-30315389D01*
X6609999Y-30644610D01*
X6606572Y-30652883D01*
X6599682Y-30656228D01*
X6285307Y-30693663D01*
X6285305Y-30693663D01*
X6285304Y-30693664D01*
X6073900Y-30795404D01*
X6073896Y-30795406D01*
X5904372Y-30938842D01*
X5706169Y-31101887D01*
X5704313Y-31103136D01*
X5416685Y-31259113D01*
X5407779Y-31260044D01*
X5400823Y-31254405D01*
X5400303Y-31253317D01*
X5210046Y-30795404D01*
X5080864Y-30484488D01*
X5080856Y-30475534D01*
X5080865Y-30475511D01*
X5147394Y-30315389D01*
X5400303Y-29706681D01*
X5406642Y-29700357D01*
X5415597Y-29700366D01*
G37*
%TD.AperFunction*%
%TD*%
%TA.AperFunction,Conductor*%
%TO.N,Net-(J1-~{DS0})*%
G36*
X4759176Y-29705594D02*
G01*
X4759696Y-29706682D01*
X5079134Y-30475511D01*
X5079143Y-30484466D01*
X5079134Y-30484489D01*
X4759696Y-31253317D01*
X4753357Y-31259642D01*
X4744402Y-31259633D01*
X4743314Y-31259113D01*
X4455685Y-31103136D01*
X4453829Y-31101887D01*
X4255627Y-30938842D01*
X4086101Y-30795406D01*
X4086099Y-30795405D01*
X4086098Y-30795404D01*
X3874694Y-30693664D01*
X3874691Y-30693663D01*
X3874690Y-30693663D01*
X3560317Y-30656228D01*
X3552507Y-30651847D01*
X3550000Y-30644610D01*
X3550000Y-30315389D01*
X3553427Y-30307116D01*
X3560315Y-30303771D01*
X3874694Y-30266335D01*
X4086098Y-30164595D01*
X4255627Y-30021157D01*
X4453838Y-29858104D01*
X4455676Y-29856867D01*
X4743315Y-29700885D01*
X4752220Y-29699955D01*
X4759176Y-29705594D01*
G37*
%TD.AperFunction*%
%TD*%
%TA.AperFunction,Conductor*%
%TO.N,Net-(J1-~{DS0})*%
G36*
X2875597Y-29700366D02*
G01*
X2876681Y-29700884D01*
X3164317Y-29856865D01*
X3166165Y-29858108D01*
X3364372Y-30021157D01*
X3533900Y-30164595D01*
X3745304Y-30266335D01*
X4059684Y-30303771D01*
X4067493Y-30308152D01*
X4070000Y-30315389D01*
X4070000Y-30644610D01*
X4066573Y-30652883D01*
X4059683Y-30656228D01*
X3745307Y-30693663D01*
X3745305Y-30693663D01*
X3745304Y-30693664D01*
X3533900Y-30795404D01*
X3533896Y-30795406D01*
X3364372Y-30938842D01*
X3166169Y-31101887D01*
X3164313Y-31103136D01*
X2876685Y-31259113D01*
X2867779Y-31260044D01*
X2860823Y-31254405D01*
X2860303Y-31253317D01*
X2670046Y-30795404D01*
X2540864Y-30484488D01*
X2540856Y-30475534D01*
X2540865Y-30475511D01*
X2607394Y-30315389D01*
X2860303Y-29706681D01*
X2866642Y-29700357D01*
X2875597Y-29700366D01*
G37*
%TD.AperFunction*%
%TD*%
M02*
