%TF.GenerationSoftware,KiCad,Pcbnew,7.0.7-7.0.7~ubuntu22.04.1*%
%TF.CreationDate,2023-09-04T23:59:45-04:00*%
%TF.ProjectId,fd50to34,66643530-746f-4333-942e-6b696361645f,rev?*%
%TF.SameCoordinates,Original*%
%TF.FileFunction,Legend,Bot*%
%TF.FilePolarity,Positive*%
%FSLAX46Y46*%
G04 Gerber Fmt 4.6, Leading zero omitted, Abs format (unit mm)*
G04 Created by KiCad (PCBNEW 7.0.7-7.0.7~ubuntu22.04.1) date 2023-09-04 23:59:45*
%MOMM*%
%LPD*%
G01*
G04 APERTURE LIST*
%ADD10C,0.300000*%
G04 APERTURE END LIST*
D10*
X9650796Y-1981828D02*
X8936510Y-1981828D01*
X8936510Y-1981828D02*
X8865082Y-2696114D01*
X8865082Y-2696114D02*
X8936510Y-2624685D01*
X8936510Y-2624685D02*
X9079368Y-2553257D01*
X9079368Y-2553257D02*
X9436510Y-2553257D01*
X9436510Y-2553257D02*
X9579368Y-2624685D01*
X9579368Y-2624685D02*
X9650796Y-2696114D01*
X9650796Y-2696114D02*
X9722225Y-2838971D01*
X9722225Y-2838971D02*
X9722225Y-3196114D01*
X9722225Y-3196114D02*
X9650796Y-3338971D01*
X9650796Y-3338971D02*
X9579368Y-3410400D01*
X9579368Y-3410400D02*
X9436510Y-3481828D01*
X9436510Y-3481828D02*
X9079368Y-3481828D01*
X9079368Y-3481828D02*
X8936510Y-3410400D01*
X8936510Y-3410400D02*
X8865082Y-3338971D01*
X10650796Y-1981828D02*
X10793653Y-1981828D01*
X10793653Y-1981828D02*
X10936510Y-2053257D01*
X10936510Y-2053257D02*
X11007939Y-2124685D01*
X11007939Y-2124685D02*
X11079367Y-2267542D01*
X11079367Y-2267542D02*
X11150796Y-2553257D01*
X11150796Y-2553257D02*
X11150796Y-2910400D01*
X11150796Y-2910400D02*
X11079367Y-3196114D01*
X11079367Y-3196114D02*
X11007939Y-3338971D01*
X11007939Y-3338971D02*
X10936510Y-3410400D01*
X10936510Y-3410400D02*
X10793653Y-3481828D01*
X10793653Y-3481828D02*
X10650796Y-3481828D01*
X10650796Y-3481828D02*
X10507939Y-3410400D01*
X10507939Y-3410400D02*
X10436510Y-3338971D01*
X10436510Y-3338971D02*
X10365081Y-3196114D01*
X10365081Y-3196114D02*
X10293653Y-2910400D01*
X10293653Y-2910400D02*
X10293653Y-2553257D01*
X10293653Y-2553257D02*
X10365081Y-2267542D01*
X10365081Y-2267542D02*
X10436510Y-2124685D01*
X10436510Y-2124685D02*
X10507939Y-2053257D01*
X10507939Y-2053257D02*
X10650796Y-1981828D01*
X11793652Y-2910400D02*
X12936510Y-2910400D01*
X13507938Y-1981828D02*
X14436510Y-1981828D01*
X14436510Y-1981828D02*
X13936510Y-2553257D01*
X13936510Y-2553257D02*
X14150795Y-2553257D01*
X14150795Y-2553257D02*
X14293653Y-2624685D01*
X14293653Y-2624685D02*
X14365081Y-2696114D01*
X14365081Y-2696114D02*
X14436510Y-2838971D01*
X14436510Y-2838971D02*
X14436510Y-3196114D01*
X14436510Y-3196114D02*
X14365081Y-3338971D01*
X14365081Y-3338971D02*
X14293653Y-3410400D01*
X14293653Y-3410400D02*
X14150795Y-3481828D01*
X14150795Y-3481828D02*
X13722224Y-3481828D01*
X13722224Y-3481828D02*
X13579367Y-3410400D01*
X13579367Y-3410400D02*
X13507938Y-3338971D01*
X15722224Y-2481828D02*
X15722224Y-3481828D01*
X15365081Y-1910400D02*
X15007938Y-2981828D01*
X15007938Y-2981828D02*
X15936509Y-2981828D01*
X17650794Y-3481828D02*
X17650794Y-1981828D01*
X17650794Y-1981828D02*
X18222223Y-1981828D01*
X18222223Y-1981828D02*
X18365080Y-2053257D01*
X18365080Y-2053257D02*
X18436509Y-2124685D01*
X18436509Y-2124685D02*
X18507937Y-2267542D01*
X18507937Y-2267542D02*
X18507937Y-2481828D01*
X18507937Y-2481828D02*
X18436509Y-2624685D01*
X18436509Y-2624685D02*
X18365080Y-2696114D01*
X18365080Y-2696114D02*
X18222223Y-2767542D01*
X18222223Y-2767542D02*
X17650794Y-2767542D01*
X19150794Y-3481828D02*
X19150794Y-1981828D01*
X19865080Y-3481828D02*
X19865080Y-1981828D01*
X19865080Y-1981828D02*
X20722223Y-3481828D01*
X20722223Y-3481828D02*
X20722223Y-1981828D01*
X9436510Y-5111114D02*
X8936510Y-5111114D01*
X8936510Y-5896828D02*
X8936510Y-4396828D01*
X8936510Y-4396828D02*
X9650796Y-4396828D01*
X10936510Y-5896828D02*
X10222224Y-5896828D01*
X10222224Y-5896828D02*
X10222224Y-4396828D01*
X11722225Y-4396828D02*
X12007939Y-4396828D01*
X12007939Y-4396828D02*
X12150796Y-4468257D01*
X12150796Y-4468257D02*
X12293653Y-4611114D01*
X12293653Y-4611114D02*
X12365082Y-4896828D01*
X12365082Y-4896828D02*
X12365082Y-5396828D01*
X12365082Y-5396828D02*
X12293653Y-5682542D01*
X12293653Y-5682542D02*
X12150796Y-5825400D01*
X12150796Y-5825400D02*
X12007939Y-5896828D01*
X12007939Y-5896828D02*
X11722225Y-5896828D01*
X11722225Y-5896828D02*
X11579368Y-5825400D01*
X11579368Y-5825400D02*
X11436510Y-5682542D01*
X11436510Y-5682542D02*
X11365082Y-5396828D01*
X11365082Y-5396828D02*
X11365082Y-4896828D01*
X11365082Y-4896828D02*
X11436510Y-4611114D01*
X11436510Y-4611114D02*
X11579368Y-4468257D01*
X11579368Y-4468257D02*
X11722225Y-4396828D01*
X13007939Y-5896828D02*
X13007939Y-4396828D01*
X13007939Y-4396828D02*
X13579368Y-4396828D01*
X13579368Y-4396828D02*
X13722225Y-4468257D01*
X13722225Y-4468257D02*
X13793654Y-4539685D01*
X13793654Y-4539685D02*
X13865082Y-4682542D01*
X13865082Y-4682542D02*
X13865082Y-4896828D01*
X13865082Y-4896828D02*
X13793654Y-5039685D01*
X13793654Y-5039685D02*
X13722225Y-5111114D01*
X13722225Y-5111114D02*
X13579368Y-5182542D01*
X13579368Y-5182542D02*
X13007939Y-5182542D01*
X14507939Y-5896828D02*
X14507939Y-4396828D01*
X14507939Y-4396828D02*
X15079368Y-4396828D01*
X15079368Y-4396828D02*
X15222225Y-4468257D01*
X15222225Y-4468257D02*
X15293654Y-4539685D01*
X15293654Y-4539685D02*
X15365082Y-4682542D01*
X15365082Y-4682542D02*
X15365082Y-4896828D01*
X15365082Y-4896828D02*
X15293654Y-5039685D01*
X15293654Y-5039685D02*
X15222225Y-5111114D01*
X15222225Y-5111114D02*
X15079368Y-5182542D01*
X15079368Y-5182542D02*
X14507939Y-5182542D01*
X16293654Y-5182542D02*
X16293654Y-5896828D01*
X15793654Y-4396828D02*
X16293654Y-5182542D01*
X16293654Y-5182542D02*
X16793654Y-4396828D01*
M02*
